<svg xmlns="http://www.w3.org/2000/svg" viewBox="0 0 72.90697 62.83576"><defs><style>.cls-1{isolation:isolate;}.cls-2,.cls-3{fill:#3c3c3c;}.cls-3{opacity:0.2;mix-blend-mode:multiply;}.cls-4{fill:#d2d3d5;}.cls-5{fill:#fff;}.cls-6{fill:#f37721;}.cls-7{fill:#e8503c;}</style></defs><title>axe</title><g class="cls-1"><g id="Layer_2" data-name="Layer 2"><g id="Layer_1-2" data-name="Layer 1"><path class="cls-2" d="M1.46482,57.14842a4.99821,4.99821,0,0,1,0-7.07029L50.07814,1.46482a4.99945,4.99945,0,1,1,7.07028,7.07031L8.53522,57.14842A4.99831,4.99831,0,0,1,1.46482,57.14842Z"/><path class="cls-3" d="M58.38482,3.58592a4.94814,4.94814,0,0,1-1.2364,2.1211L8.53522,54.32033a4.96461,4.96461,0,0,1-8.3086-2.1211,4.98451,4.98451,0,0,0,8.3086,4.94919L57.14842,8.53513A4.97627,4.97627,0,0,0,58.38482,3.58592Z"/><path class="cls-4" d="M36.72272,48.20513A25.25017,25.25017,0,0,0,70.418,14.50783a25.2245,25.2245,0,0,1-22.7578-6.916,25.26786,25.26786,0,0,1-4.9043-6.916,25.25749,25.25749,0,0,0-19.8653,19.86709,25.24944,25.24944,0,0,1,13.8321,27.66221Z"/><path class="cls-5" d="M32.793,10.59572a20.889,20.889,0,0,1,12.3203-5.9805,25.1703,25.1703,0,0,1-2.375-3.9414A25.25637,25.25637,0,0,0,22.87114,20.541a25.31742,25.31742,0,0,1,3.94138,2.373A20.89531,20.89531,0,0,1,32.793,10.59572Z"/><path class="cls-5" d="M70.40042,14.50583a25.3776,25.3776,0,0,1-4.57228.47459A20.97434,20.97434,0,0,1,37.17772,43.62893a25.38152,25.38152,0,0,1-.47458,4.5742,25.25147,25.25147,0,0,0,33.69728-33.6973Z"/><path class="cls-6" d="M55.15042,6.748a2.43757,2.43757,0,1,1,0-3.4472A2.43552,2.43552,0,0,1,55.15042,6.748Z"/><path class="cls-7" d="M37.47072,49.27342c3.5313,2.25,6.6875,1.375,6.6875,10.0684,0,4.98831,3.3047,4.2207,3.1504.3066-.1524-3.914.8867-4.2812,2.8437-4.77049,1.9571-.4902,4.1582-.6435,5.3516-3.2422.8418-1.831,3.2481-.831,3.2481,2.26269s2.6562,2.875,2.6562-.2187.5313-3.25,2.2813-4.4375,5.8945-8.9776,5.582-10.7276-2.5.6348-8.6875,5.666a17.42659,17.42659,0,0,1-14.0938,3.53129C43.05272,46.96192,32.959,46.39942,37.47072,49.27342Z"/></g></g></g></svg>