<svg xmlns="http://www.w3.org/2000/svg" viewBox="0 0 57.05131 75.32222"><defs><style>.cls-1{isolation:isolate;}.cls-2,.cls-3,.cls-4,.cls-5,.cls-7{fill:#7f5d99;}.cls-11,.cls-3{opacity:0.2;}.cls-11,.cls-3,.cls-5,.cls-7{mix-blend-mode:multiply;}.cls-4,.cls-5{opacity:0.6;}.cls-4{mix-blend-mode:screen;}.cls-6{fill:#a37ab5;}.cls-7{opacity:0.5;}.cls-8{fill:#f9b332;}.cls-9{fill:#ed8222;}.cls-10{fill:#323333;}.cls-11{fill:#3c3c3c;}</style></defs><title>candle</title><g class="cls-1"><g id="Layer_2" data-name="Layer 2"><g id="Layer_1-2" data-name="Layer 1"><path class="cls-2" d="M18.063,10.40472c-9.05609,0-16.3984,3.4243-16.3984,7.6465v45.3706c0,4.2246,7.34231,7.6489,16.3984,7.6489,9.0586,0,16.4004-3.4243,16.4004-7.6489V18.05122C34.46341,13.829,27.12161,10.40472,18.063,10.40472Z"/><path class="cls-3" d="M22.72371,10.72262a3.85136,3.85136,0,0,1,.3974,1.6572v45.3706c0,4.2246-7.3413,7.6489-16.3999,7.6489a33.87214,33.87214,0,0,1-4.6582-.3178c1.6275,3.4262,8.168,5.9892,16,5.9892,9.0586,0,16.4004-3.4243,16.4004-7.6489V18.05122C34.46341,14.58442,29.51031,11.65962,22.72371,10.72262Z"/><path class="cls-4" d="M5.81551,63.996a2.26847,2.26847,0,0,1-2.2691-2.268V25.11172a2.2683,2.2683,0,1,1,4.5366,0V61.728A2.26748,2.26748,0,0,1,5.81551,63.996Z"/><path class="cls-5" d="M34.46341,18.91112H2.79881a67.36758,67.36758,0,0,1-1.1342,13.4228v5.6133c.86231,1.5859,2.5244,1.3628,3.0234-2.0688.8042-5.5293,2.6001-4.6924,6.4282-5.6851,3.8282-.9922,3.9702-2.3745,9.1446-1.0982,5.1753,1.2759,3.1904,7.7974,4.3242,10.3145,1.1343,2.5171,4.1831,3.0132,4.0766-3.0483-.1064-6.0611-.4961-8.6661,1.94931-9.5254,1.42769-.5015,2.88469-2.2017,3.85249-4.0659Z"/><path class="cls-6" d="M1.66461,17.77732c0,2.2212-.001,9.1216-1.3711,14.4155-1.3701,5.2915,2.4565,8.0815,3.2602,2.5513.80421-5.5293,2.6001-4.6919,6.4278-5.6841,3.8281-.9922,3.9702-2.375,9.1455-1.0991,5.1743,1.2758,3.18991,7.7983,4.3242,10.3144,1.1338,2.5171,4.1821,3.0132,4.0762-3.0478-.107-6.0616-.4961-8.667,1.9497-9.5264,2.4453-.8594,4.9863-5.23,4.9863-7.9238Z"/><path class="cls-6" d="M34.46341,18.05122c0,4.2246-7.3418,7.6499-16.4004,7.6499-9.05609,0-16.3984-3.4253-16.3984-7.6499,0-4.2222,7.34231-7.6465,16.3984-7.6465C27.12161,10.40472,34.46341,13.829,34.46341,18.05122Z"/><path class="cls-5" d="M30.84821,18.05122c0,3.2949-5.7237,5.9644-12.7852,5.9644-7.05909,0-12.7832-2.6695-12.7832-5.9644,0-3.29,5.72411-5.9609,12.7832-5.9609C25.12451,12.09032,30.84821,14.76122,30.84821,18.05122Z"/><path class="cls-7" d="M18.063,15.49262c-5.7905,0-10.6763,1.7988-12.2475,4.2612,1.5712,2.4639,6.457,4.2618,12.2475,4.2618,5.793,0,10.6777-1.7979,12.25-4.2618C28.74071,17.29142,23.856,15.49262,18.063,15.49262Z"/><path class="cls-8" d="M24.35741,11.915c-.5502,3.1098-3.3598,4.3076-6.4677,3.7583-3.1084-.5479-5.3379-2.6353-4.791-5.7442.55021-3.1103,4.4423-10.4492,7.55121-9.8999C23.75731.57712,24.90531,8.80512,24.35741,11.915Z"/><path class="cls-9" d="M22.41211,12.33732c-.3681,2.0835-2.25,2.8858-4.3325,2.5171-2.081-.3652-3.57469-1.7646-3.207-3.8467.3672-2.083,2.9746-6.998,5.0571-6.6303C22.01081,4.74262,22.78081,10.25432,22.41211,12.33732Z"/><path class="cls-10" d="M18.063,21.27342a.56527.56527,0,0,1-.5478-.4214c-.085-.3218-2.0562-7.9365.8554-13.2715a.56605.56605,0,1,1,.9942.5415c-2.6953,4.9429-.7735,12.3657-.7535,12.4395a.567.567,0,0,1-.4028.6933A.51582.51582,0,0,1,18.063,21.27342Z"/><path class="cls-11" d="M34.46341,63.42182V29.32072c-3.0742,1.0865-5.06449,2.8023-5.06449,4.7383,0,0-1.25191,11.2422-.78711,14.6538a2.81157,2.81157,0,0,0,.78711,1.7969v18.4312C32.51521,67.54882,34.46341,65.59322,34.46341,63.42182Z"/><path class="cls-2" d="M44.28761,28.10932c-7.0478,0-12.76269,2.6646-12.76269,5.9497v35.3106c0,3.2871,5.71489,5.9526,12.76269,5.9526,7.0508,0,12.7637-2.6655,12.7637-5.9526V34.059C57.05131,30.77392,51.33841,28.10932,44.28761,28.10932Z"/><path class="cls-3" d="M47.91551,28.35542a3.01433,3.01433,0,0,1,.3086,1.29V64.956c0,3.2871-5.7138,5.9526-12.7636,5.9526a26.31858,26.31858,0,0,1-3.6241-.248c1.2657,2.6665,6.35651,4.6616,12.4512,4.6616,7.0508,0,12.7637-2.6655,12.7637-5.9526V34.059C57.05131,31.36132,53.19581,29.08492,47.91551,28.35542Z"/><path class="cls-5" d="M57.05131,34.88622H32.353s-.625,5.6113-.82809,10.1079v4.1806c.01079.1299.02439.2525.041.3653.46489,3.4121,3.41309,2.3261,3.13579-1.0503-.2764-3.3775,2.44721-3.6538,3.1709-1.5166.7246,2.1362,2.8252,1.8955,2.7226-1.2061-.1035-3.1011,1.2412-2.9302,2.7578-2.792a23.87448,23.87448,0,0,0,7.2725-.6538c1.585-.6206,3.6533-1.6191,3.7568.0684.10361,1.6889-.2412,4.3784.9659,4.6533,1.205.2749,1.34271-2.9292.792-5.4805a6.18435,6.18435,0,0,1,.9111-4.0234Z"/><path class="cls-4" d="M34.75541,69.81682a1.76647,1.76647,0,0,1-1.7666-1.7656V39.55412a1.7656,1.7656,0,0,1,3.5312,0v28.4971A1.7654,1.7654,0,0,1,34.75541,69.81682Z"/><path class="cls-6" d="M31.52492,34.059s-1.25191,11.2422-.78711,14.6538c.4658,3.4131,3.41411,2.3262,3.1377-1.0503-.2773-3.3774,2.4463-3.6538,3.1699-1.5166.7246,2.1363,2.8252,1.8955,2.7227-1.206-.1035-3.1016,1.2412-2.9302,2.75781-2.792a23.84074,23.84074,0,0,0,7.27149-.6538c1.5859-.6211,3.6533-1.6197,3.7578.0683.1025,1.6885-.2402,4.378.9648,4.6534,1.2071.2749,1.3438-2.9292.793-5.4805-.5517-2.5503,1.7383-4.5464,1.7383-6.6763Z"/><path class="cls-6" d="M57.05131,34.059c0,3.2881-5.7129,5.9536-12.7637,5.9536-7.0478,0-12.76269-2.6655-12.76269-5.9536,0-3.2851,5.71489-5.9497,12.76269-5.9497C51.33841,28.10932,57.05131,30.77392,57.05131,34.059Z"/><path class="cls-5" d="M54.23781,34.059c0,2.565-4.4541,4.6416-9.9502,4.6416-5.4941,0-9.9492-2.0766-9.9492-4.6416,0-2.5596,4.4551-4.6377,9.9492-4.6377C49.78371,29.42132,54.23781,31.49942,54.23781,34.059Z"/><path class="cls-7" d="M44.28761,32.06832c-4.5068,0-8.3096,1.3999-9.5322,3.3159,1.2226,1.9185,5.0254,3.3164,9.5322,3.3164,4.5088,0,8.3096-1.3979,9.5342-3.3164C52.59721,33.46822,48.79641,32.06832,44.28761,32.06832Z"/><path class="cls-8" d="M49.187,29.28312c-.4287,2.4204-2.6162,3.354-5.0332,2.9253-2.42089-.4267-4.1552-2.0503-3.7295-4.4707.4278-2.4194,3.4561-8.1313,5.876-7.7036C48.71931,20.46042,49.61281,26.86372,49.187,29.28312Z"/><path class="cls-9" d="M47.67241,29.61222c-.2871,1.6211-1.751,2.2461-3.3711,1.96-1.6211-.2847-2.7822-1.3745-2.4971-2.9946.2871-1.6216,2.3155-5.4463,3.9356-5.1597C47.35992,23.70212,47.95851,27.99112,47.67241,29.61222Z"/><path class="cls-10" d="M44.28761,36.56682a.44029.44029,0,0,1-.42669-.3281c-.06551-.25-1.59961-6.1758.665-10.3286a.44105.44105,0,1,1,.77439.4224c-2.0976,3.8466-.6006,9.623-.5859,9.6811a.4405.4405,0,0,1-.31349.5386A.40278.40278,0,0,1,44.28761,36.56682Z"/></g></g></g></svg>