<svg xmlns="http://www.w3.org/2000/svg" viewBox="0 0 139.02998 189.47929"><defs><style>.cls-1{fill:#395398;}.cls-1,.cls-2,.cls-3,.cls-4,.cls-5{fill-rule:evenodd;}.cls-2{fill:#415fa3;}.cls-3{fill:#6994d1;}.cls-4{fill:#5479ba;}.cls-5{fill:#36568e;}.cls-6{fill:#fff;}</style></defs><title>fb color</title><g id="Layer_2" data-name="Layer 2"><g id="OBJECTS"><path class="cls-1" d="M117.17379,65.34815c18.624,29.1323,16.5864,39.1553-14.5567,71.7241-9.9292.687-18.8208,10.6782-29.6538,3.3213-2.9033-16.6314,8.9238-27.4014,18.2954-42.1001-22.4575-4.9683-44.8701-7.3296-59.6904-25.5537-8.5825-6.8701-13.4732-14.1602-8.3526-26.2036,3.89071-9.1529,5.4263-19.4224,7.3672-29.3526l-.0556.1114c14.0825-12.6143,28.6582-15.5191,44.4043-2.7193,4.3413,3.5249,9.707,4.8877,15.3462,5.6636,28.4458,3.9058,32.1879,9.4087,26.4638,38.417C116.266,61.05465,115.97059,63.18405,117.17379,65.34815Z"/><path class="cls-2" d="M30.58289,17.18355c.18851,10.8838,2.6587,22.2559-3.7163,32.1197-7.6709,11.8657,7.6016,13.226,8.8467,20.8525,8.1226,12.7456,17.2168,24.3174,30.6953,32.2339,8.7676,5.1406,13.6392,13.186,9.3242,24.0845-7.937,6.4892-15.7182,2.354-21.10639-2.6636-14.48881-13.4995-32.68751-21.5254-47.71-34.0884a63.56813,63.56813,0,0,1-4.35691-5.3218C5.78649,59.44335,20.5614,39.30715,30.58289,17.18355Z"/><path class="cls-2" d="M117.17379,65.34815c-5.4571-3.4649-2.2081-7.7617-1.7979-12.3037,1.4526-15.9781,1.1392-30.9756-22.5361-26.1993-5.8223,1.1719-13.2242,2.0767-17.646-3.5952-13.1182-16.8281-28.2422-15.5088-44.6665-5.955,9.0669-9.6114,57.4907-21.1568,67.2959-16.0376C120.46569,13.07565,126.12489,31.79935,117.17379,65.34815Z"/><path class="cls-3" d="M2.55949,84.40035c1.499,0,3.0015.0386,4.5.0943,2.6465,4.9013,7.3437,8.5317,9.08591,13.9301,6.17189,19.0874,19.54979,28.0523,39.22709,28.7662,6.3896.2338,12.7412,1.2656,17.3003,6.6264q.67155,1.5981,1.32761,3.2036c9.52779,8.2325,19.08839-3.9336,28.61669.0513-12.2163,8.5137-24.6802,13.8945-39.0703,4.4404-4.54539-2.978-9.2612-2.4658-12.0601,2.8223-10.3305,19.5659-22.4897,8.4087-29.6626-.6958C8.54779,126.793-5.99521,108.93355,2.55949,84.40035Z"/><path class="cls-4" d="M50.44229,176.27485c.3325-4.8213,2.3374-8.1538,7.01711-7.5893,6.62789.8003,8.80469,6.2446,8.40819,11.7763-.3047,4.2056-1.8628,10.5401-7.98,8.6856C52.3974,187.48685,51.3564,181.20015,50.44229,176.27485Z"/><path class="cls-4" d="M130.88129,125.40725c5.4883,1.1967,8.18111,4.706,8.1484,9.8789-.0459,5.9331-4.0649,7.8979-9.3232,7.5234-5.3706-.3755-8.8228-3.188-8.0259-8.9375C122.394,128.73875,125.64049,125.71385,130.88129,125.40725Z"/><path class="cls-3" d="M5.6064,153.75045c-.55281-3.7729,1.48829-4.8725,3.76609-4.3208,1.8296.4439,4.2021,1.94,4.7651,3.5259.8443,2.3896-1.01319,4.4961-3.6826,3.8823C8.55559,156.396,6.95649,154.65675,5.6064,153.75045Z"/><path class="cls-5" d="M73.94469,127.50975c.9136-9.7075-2.40229-18.8418-11.4091-21.5176-18.5708-5.5293-22.3511-20.5952-26.8223-35.8364,14.1606,12.3257,29.7817,20.6538,49.3833,19.2476,6.4439-.4576,13.4644.2348,15.3814,7.9838,1.73241,7.0249-4.58259,9.3521-9.3121,12.0176-10.809,6.1074-9.1953,19.8218-17.16549,27.6162l-.11911.0957C71.32219,133.90035,70.954,130.69525,73.94469,127.50975Z"/><path class="cls-4" d="M73.94469,127.50975q-.0351,4.81275-.0634,9.6069c-4.44-1.5664-8.773-3.998-13.336-4.5688-42.19189-5.3003-42.206-5.2031-53.4858-48.0532Q40.50486,105.9955,73.94469,127.50975Z"/><path class="cls-6" d="M85.4164,147.40285v-47.648h15.99469l2.3945-18.5698H85.4164V69.32815c0-5.3755,1.49219-9.0386,9.20269-9.0386l9.8335-.0049V43.67525a132.0414,132.0414,0,0,0-14.3301-.7309c-14.1758,0-23.8823,8.6533-23.8823,24.5459v13.6948H50.206v18.5698h16.0342v47.648Z"/></g></g></svg>