<svg xmlns="http://www.w3.org/2000/svg" viewBox="0 0 70.28565 74.5286"><defs><style>.cls-1{isolation:isolate;}.cls-2,.cls-4,.cls-5,.cls-6{fill:#fff;}.cls-2{opacity:0.5;}.cls-3,.cls-7{fill:#f37721;}.cls-4{opacity:0.2;}.cls-5{opacity:0.6;}.cls-6{opacity:0.4;}.cls-7{mix-blend-mode:screen;}</style></defs><title>flask</title><g class="cls-1"><g id="Layer_2" data-name="Layer 2"><g id="Layer_1-2" data-name="Layer 1"><path class="cls-2" d="M47.01025,43.96l10.1406-10.1406,2.4737,2.4736a3.45818,3.45818,0,1,0,4.8906-4.8906l-5.6563-5.6563L48.78275,15.6699l-5.6573-5.6572a3.45818,3.45818,0,0,0-4.8906,4.8906l2.4746,2.4746L30.56885,27.5186A23.96774,23.96774,0,1,0,47.01025,43.96Z"/><path class="cls-3" d="M45.36085,50.5908a21.4121,21.4121,0,0,1-42.8242,0c0-11.8252,9.5859-1.4121,21.4121-1.4121S45.36085,38.7656,45.36085,50.5908Z"/><path class="cls-4" d="M44.16555,44.5567a21.13758,21.13758,0,0,1-40.3946-.001,21.138,21.138,0,1,0,40.3946.001Z"/><path class="cls-5" d="M23.33055,39.7715c-5.2695.001-9.541-2.2676-9.541-5.0664,0-2.7998,4.2715-5.0674,9.542-5.0674,5.2685,0,9.542,2.2676,9.542,5.0674C32.87255,37.5049,28.60005,39.7735,23.33055,39.7715Z"/><rect class="cls-6" x="31.35467" y="23.25262" width="14.30237" height="4.06997" transform="translate(-6.60293 34.63431) rotate(-45)"/><path class="cls-3" d="M70.28565,18.791a6.1167,6.1167,0,1,1-6.1162-6.1162A6.117,6.117,0,0,1,70.28565,18.791Z"/><circle class="cls-3" cx="53.41065" cy="10.7236" r="4"/><circle class="cls-3" cx="59.91065" cy="2.5" r="2.5"/><circle class="cls-7" cx="34.51025" cy="52.2412" r="2.5"/><circle class="cls-7" cx="13.33645" cy="51.3486" r="2.5"/><circle class="cls-7" cx="19.56395" cy="55.0879" r="1.6074"/><path class="cls-7" d="M27.78955,52.2412a1.60745,1.60745,0,1,1-1.6074-1.6074A1.60745,1.60745,0,0,1,27.78955,52.2412Z"/></g></g></g></svg>