<svg xmlns="http://www.w3.org/2000/svg" viewBox="0 0 55.29388 64.9746"><defs><style>.cls-1{fill:#fff;}.cls-2,.cls-4{fill:#d2d3d5;}.cls-2{opacity:0.5;}.cls-3{fill:#3c3c3c;}</style></defs><title>ghost</title><g id="Layer_2" data-name="Layer 2"><g id="Layer_1-2" data-name="Layer 1"><path class="cls-1" d="M49.90771,30.4414C49.90771,18.1484,44.96431,0,27.64691,0S5.38621,18.1484,5.38621,30.4414c0,7.5479-8.209,20.3838-4.3584,29.1719,1,2.2832,2.8144-7.9795,5.7988-6.4063,1.8584.9786,4.1719,9.9707,7.0244,10.5713,1.8779.3955,3.9912-7.4804,6.3613-7.2783,2.2413.1914,4.712,8.4746,7.4346,8.4746s5.1934-8.2832,7.4346-8.4746c2.3701-.2021,4.4834,7.6738,6.3613,7.2783,2.8526-.6006,5.166-9.5927,7.0244-10.5713,2.9834-1.5732,4.7989,8.6895,5.7989,6.4063C58.11661,50.8252,49.90771,37.9893,49.90771,30.4414Z"/><path class="cls-2" d="M49.90771,30.4414c0-10.0156-3.2823-23.917-13.8643-28.7246,8.3408,5.7031,10.9678,19.6719,10.9678,28.0303,0,6.5654,7.1406,13.6406,3.792,21.2842-.8711,1.9863-2.4493-6.9405-5.045-5.5723-1.6171.8516-3.6289,12.2324-6.1103,12.7549-1.6338.3447-3.4717-10.0655-5.5342-9.8897-1.9482.166-4.0986,10.9297-6.4668,10.9297s-4.5185-10.7637-6.4668-10.9297c-2.0625-.1758-3.9004,10.2344-5.5342,9.8897-2.4814-.5225-4.4931-11.9033-6.1103-12.7549-2.5957-1.3682-4.1748,7.5586-5.044,5.5723-3.3496-7.6436,3.7911-14.7188,3.7911-21.2842,0-8.3584,2.6269-22.3272,10.9677-28.0303-10.582,4.8076-13.8642,18.709-13.8642,28.7246,0,7.5479-8.209,20.3838-4.3584,29.1719,1,2.2832,2.8144-7.9795,5.7988-6.4063,1.8584.9786,4.1719,9.9707,7.0244,10.5713,1.8779.3955,3.9912-7.4804,6.3613-7.2783,2.2413.1914,4.712,8.4746,7.4346,8.4746s5.1934-8.2832,7.4346-8.4746c2.3701-.2021,4.4834,7.6738,6.3613,7.2783,2.8526-.6006,5.166-9.5927,7.0244-10.5713,2.9834-1.5732,4.7989,8.6895,5.7989,6.4063C58.11661,50.8252,49.90771,37.9893,49.90771,30.4414Z"/><path class="cls-3" d="M41.67231,18.9258c-.0703-.7402-7.3389-8.8037-8.0664-8.5957-.7285.207-.4297,5.9472,2.2051,8.0244C37.88911,19.9922,41.77191,20.0088,41.67231,18.9258Z"/><path class="cls-4" d="M35.54931,19.1836c-2.1543-1.7002-2.8819-5.6367-2.7803-7.6162-.7031.3027-.3867,5.956,2.2236,8.0146,1.7256,1.3594,4.6953,1.6016,5.5957,1.0235A7.82229,7.82229,0,0,1,35.54931,19.1836Z"/><path class="cls-3" d="M13.66941,17.0078c.3496-.6572,10.1601-5.3047,10.751-4.832.5937.4697-1.8907,5.6533-5.1202,6.5586C16.75141,19.4473,13.15961,17.9688,13.66941,17.0078Z"/><path class="cls-4" d="M19.12251,19.3779a8.17156,8.17156,0,0,1-5.3867-.6308c.5976.8818,3.4414,1.8076,5.5644,1.2138,2.6006-.7285,4.7178-4.2314,5.1338-5.8134C23.45161,16.1152,21.45841,18.7236,19.12251,19.3779Z"/><path class="cls-3" d="M22.90281,26.5215c0-2.6211,2.124-5.3867,4.7441-5.3867,2.6211,0,4.7451,2.7656,4.7451,5.3867s.2256,9.9883-4.7451,9.9883C22.67721,36.5098,22.90281,29.1426,22.90281,26.5215Z"/><path class="cls-4" d="M27.64691,37.2559c-4.7666,0-5.1201-6.2578-5.1387-9.6602-.0087,3.042-.081,10.5459,5.1387,10.5459,5.2207,0,5.1494-7.5039,5.1397-10.5459C32.768,30.9981,32.41451,37.2559,27.64691,37.2559Z"/></g></g></svg>