<svg xmlns="http://www.w3.org/2000/svg" viewBox="0 0 95.72107 72.27516"><defs><style>.cls-1{isolation:isolate;}.cls-2{fill:#a37ab5;}.cls-10,.cls-11,.cls-3,.cls-4{fill:#7f5d99;}.cls-3{opacity:0.6;}.cls-3,.cls-6{mix-blend-mode:multiply;}.cls-5,.cls-6,.cls-8{fill:#3c3c3c;}.cls-6{opacity:0.2;}.cls-7{fill:#f9b332;}.cls-10,.cls-11,.cls-8,.cls-9{mix-blend-mode:screen;}.cls-11,.cls-9{opacity:0.4;}.cls-12{fill:#f7cc2b;}</style></defs><title>hot</title><g class="cls-1"><g id="Layer_2" data-name="Layer 2"><g id="Layer_1-2" data-name="Layer 1"><path class="cls-2" d="M73.9366,68.8633c7.3603-7.3623-4.9844-19.4565-20.0576-34.5298C38.8047,19.2579,26.709,6.9136,19.3487,14.2759c-7.36228,7.3599-2.6348,27.0733,12.4404,42.1465C46.8633,71.4957,66.5743,76.2232,73.9366,68.8633Z"/><path class="cls-3" d="M33.82042,54.3912C19.4561,40.0284,14.4952,21.4649,20.4258,13.3765a8.06687,8.06687,0,0,0-1.0771.8994c-7.36228,7.3599-2.6348,27.0733,12.4404,42.1465C46.8633,71.4957,66.5743,76.2232,73.9366,68.8633a8.33933,8.33933,0,0,0,.8984-1.0796C66.7452,73.7159,48.1827,68.7535,33.82042,54.3912Z"/><path class="cls-4" d="M67.5333,34.7149c.7177-1.54,5.4814-2.812,5.6464-3.0996.1621-.2876-.1494-1.3008.0049-1.4546.1533-.1533,1.5869.1074,1.7256-.0308s-.2627-1.0307-.0322-1.3554c.23242-.3228,1.81742.1225,2.1719-.2613.7539-.8491,1.1601-7.8032,2.371-9.4658,1.2129-1.6631,16.6534-2.0732,16.294-2.5166C92.0479,12.251,70.004,7.2867,67.3292,8.9253c-2.67878,1.6363-6.34578,7.0835-7.044,7.0025-5.9971-1.2354-12.0557-.3511-12.8545.0395a33.29111,33.29111,0,0,0-4.5381,4.3521c-1.0381,1.1543-7.6894,5.3335-9.7011,6.9082-.0762.0571-.1514.1186-.2247.1821-.0869.0747-.164.1406-.2207.1978-3.46868,3.4682-.0566,12.5088,7.6211,20.187,7.6787,7.6782,16.70122,11.0737,20.1856,7.6186C70.1729,45.8746,66.8672,36.1412,67.5333,34.7149Z"/><path class="cls-3" d="M60.5528,55.4131c9.6201-9.5385,6.3144-19.2719,6.9805-20.6982.7177-1.54,5.4814-2.812,5.6464-3.0996.1621-.2876-.1494-1.3008.0049-1.4546.1533-.1533,1.5869.1074,1.7256-.0308s-.2627-1.0307-.0322-1.3554c.23242-.3228,1.81742.1225,2.1719-.2613.7539-.8491,1.1601-7.8032,2.371-9.4658,1.1807-1.6172,15.8194-2.0513,16.2833-2.479-6.1153-1.5225-17.5557-1.3447-20.3897-1.0137-3.4492.4014-3.2275,1.2286-4.5918,3.9248-1.36428,2.6983-1.9678,2.0621-3.1572,2.9678-1.1905.9043.666,2.8237-1.0156,2.5386-1.6827-.2832-1.5547.2871-1.5713,1.792-.0147,1.5093-3.8711,1.4834-5.5977,3.2295-3.3008,3.3408,2.1387,8.2925-4.8437,6.0088C47.0469,33.502,41.1133,26.1749,38.9659,23.233c-2.1944,1.4985-4.6748,3.1347-5.7744,3.9946-.0762.0571-.1514.1186-.2247.1821-.0869.0747-.164.1406-.2207.1978-3.46868,3.4682-.0566,12.5088,7.6211,20.187C48.0459,55.4727,57.06842,58.8682,60.5528,55.4131Z"/><path class="cls-5" d="M48.5459,39.6641a36.87272,36.87272,0,0,1-9.5996-16.416c-2.1894,1.4941-4.6582,3.1221-5.7548,3.9795-.0762.0571-.1514.1186-.2247.1821-.0869.0747-.164.1406-.2207.1978-3.46868,3.4682-.0566,12.5088,7.6211,20.187,7.6787,7.6782,16.70122,11.0737,20.1856,7.6186a24.65971,24.65971,0,0,0,4.582-6.103A36.83216,36.83216,0,0,1,48.5459,39.6641Z"/><path class="cls-6" d="M60.5528,55.4131a22.00542,22.00542,0,0,0,6.97262-14.7968C65.3477,50.3941,55.3467,56.5123,42.2647,45.7256c-8.6914-7.165-10.6348-12.3442-10.8018-15.3408-.60448,4.3413,2.7998,11.3042,8.9043,17.4097C48.0459,55.4727,57.06842,58.8682,60.5528,55.4131Z"/><path class="cls-6" d="M38.378,50.4708c-1.14358-1.1431-3.8545-4.0562-4.35058-6.4058-.65242-3.0933,2.44628-6.3267,3.41308-7.2437.8418-.8007,3.7646-3.3632,6.0176-2.7666,2.08.5528,5.1845,3.4927,6.4218,4.73,1.3291,1.3291,4.4551,4.6309,4.7842,6.5767.3887,2.2993-2.5029,5.5019-3.3974,6.4302-1.2911,1.3359-3.7725,3.5341-5.8956,3.2509C42.7803,54.6983,39.3653,51.4556,38.378,50.4708Zm9.4707-9.6548c-2.4531-2.4546-4.376-3.7867-5.125-3.9839-.4766-.0396-2.3301.9018-4.0742,2.8672-1.2813,1.4389-1.9912,2.9223-1.8116,3.7734.1866.8794,1.3623,2.7573,3.5713,4.9668,2.3057,2.3057,4.4336,3.6348,5.3418,3.7578.2608.0264,1.2823-.3662,2.7793-1.7461,2.1563-1.9897,3.3106-4.1094,3.2998-4.6401C51.7178,45.3067,50.3711,43.3389,47.8487,40.816Z"/><path class="cls-7" d="M38.378,49.4551c-1.14358-1.143-3.8545-4.0561-4.35058-6.4057-.65142-3.0933,2.44728-6.3272,3.41308-7.2442.8418-.8008,3.7646-3.3628,6.0176-2.7661,2.08.5527,5.1826,3.4902,6.4218,4.7295,1.3282,1.3276,4.4551,4.6313,4.7842,6.5772.3887,2.2988-2.5029,5.5039-3.3974,6.4296-1.293,1.3365-3.7715,3.5367-5.8956,3.2535C42.7803,53.6822,39.36242,50.44,38.378,49.4551Zm9.4707-9.6572c-2.4531-2.4526-4.377-3.7842-5.125-3.9814-.4746-.0396-2.3301.9038-4.0752,2.8671-1.2803,1.439-1.9902,2.92-1.8106,3.7735.1866.8794,1.3623,2.7573,3.5713,4.9663,2.3057,2.3057,4.4336,3.6377,5.3418,3.7583.2608.0264,1.2832-.3643,2.7783-1.7466,2.1573-1.9897,3.3116-4.1089,3.3008-4.6396C51.7178,44.2911,50.3721,42.3233,47.8487,39.7979Z"/><path class="cls-8" d="M42.7842,35.292c-1.0312,0-1.8701-.4013-1.8681-.895,0-.4956.8359-.895,1.8681-.895,1.0323.002,1.8701.4014,1.86922.895C44.65242,34.8926,43.8165,35.292,42.7842,35.292Z"/><path class="cls-8" d="M45.7979,53.3926c-1.0293,0-1.8672-.4013-1.8672-.895,0-.4956.835-.895,1.8682-.895,1.0312,0,1.8681.3994,1.8681.895C47.6661,52.9913,46.8301,53.3926,45.7979,53.3926Z"/><path class="cls-8" d="M40.60842,36.2505a.97709.97709,0,1,1,0-1.3818A.97591.97591,0,0,1,40.60842,36.2505Z"/><path class="cls-8" d="M49.2842,52.0523a.97574.97574,0,1,1,0-1.3799A.97319.97319,0,0,1,49.2842,52.0523Z"/><g class="cls-9"><polygon class="cls-10" points="95.684 16.582 95.687 16.575 95.679 16.579 95.684 16.582"/><path class="cls-10" d="M74.1319,15.7413c.3379-.0704.72852-.1319,1.1826-.1866,2.834-.3291,14.2637-.5068,20.37892,1.0093.01168-.0112.02928-.022.02148-.0332-3.4102-3.9814-22.7373-8.5576-27.5566-7.8516C68.98342,9.375,71.0167,11.9634,74.1319,15.7413Z"/></g><path class="cls-11" d="M58.9922,30.4659a4.46163,4.46163,0,0,1,.3887-.4585c1.7266-1.7461,5.583-1.7202,5.5977-3.2295.0166-1.5049-.1114-2.0752,1.5713-1.792.3339.0571.5234.0239.6298-.0684-2.8076-2.6914-6.3486-8.2109-6.8515-9.0029-.0127,0-.0323.0132-.043.0132-5.9971-1.2354-12.0557-.3511-12.8545.0395-.0254.0132-.0586.0352-.0869.0523C47.9141,17.4126,56.253,28.0196,58.9922,30.4659Z"/><path class="cls-12" d="M48.5948,6.5142c-5.7901.3994-6.1143.7241-6.5137,6.5132-.3994-5.7891-.7246-6.1138-6.5146-6.5132,5.79-.4004,6.1152-.7241,6.5146-6.5142C42.4805,5.7901,42.8047,6.1138,48.5948,6.5142Z"/><path class="cls-12" d="M85.4747,49.3829c-5.7901.3999-6.11528.7236-6.5147,6.5141-.3994-5.7905-.72358-6.1142-6.5137-6.5141,5.79012-.3995,6.1143-.7242,6.5137-6.5137C79.35942,48.6587,79.6846,48.9834,85.4747,49.3829Z"/><path class="cls-12" d="M90.9971,41.6607c-3.7929.2632-4.0058.4746-4.2676,4.2681-.2617-3.7935-.4736-4.0049-4.2675-4.2681,3.7939-.2612,4.0058-.4741,4.2675-4.2671C86.9913,41.1866,87.2042,41.3995,90.9971,41.6607Z"/><path class="cls-12" d="M5.5225,43.7666c5.791.4004,6.1152.7242,6.5147,6.5142.3994-5.79.7236-6.1138,6.5146-6.5142-5.791-.3994-6.1152-.7241-6.5146-6.5131C11.6377,43.0425,11.3135,43.3672,5.5225,43.7666Z"/><path class="cls-12" d="M0,36.0445c3.793.2632,4.0059.4751,4.2676,4.268.2627-3.7929.4746-4.0048,4.2686-4.268-3.794-.2612-4.0059-.4737-4.2686-4.2666C4.0059,35.5708,3.793,35.7833,0,36.0445Z"/></g></g></g></svg>