<svg xmlns="http://www.w3.org/2000/svg" viewBox="0 0 167.26632 152.91291"><defs><style>.cls-1{fill:#b02a9e;}.cls-1,.cls-2,.cls-3,.cls-4,.cls-5,.cls-6,.cls-7,.cls-8{fill-rule:evenodd;}.cls-2{fill:#972aab;}.cls-3{fill:#f04471;}.cls-4{fill:#cf2a8c;}.cls-5{fill:#9f2aa6;}.cls-6{fill:#b52a9b;}.cls-7{fill:#f38259;}.cls-8{fill:#f5ab4a;}.cls-9{fill:#fff;}</style></defs><title>intsa color</title><g id="Layer_2" data-name="Layer 2"><g id="OBJECTS"><path class="cls-1" d="M14.04383,39.02478c-8.938-16.791-6.539-25.2104,13.9204-33.3628,20.4595-8.1518,110.2793-6.9218,103.6836,0-6.5957,6.9224,1.3609,4.7984-.9946,6.7662-6.9487,4.4218-14.7998,4.1294-22.564,4.3027-17.9638.2192-35.9423-.0122-53.9272.1191-13.6338.1001-24.3936,4.5913-30.6206,17.4185C21.11173,37.32808,18.31433,39.68108,14.04383,39.02478Z"/><path class="cls-2" d="M127.392,11.47408q-.02565-2.35185,0-4.6954h4.7085c3.7544,6.6836,11.479,3.1612,16.4502,6.3457,6.2109,3.9937,4.5815,6.7784-1.9453,8.0396-4.3477,3.7173-1.4322,10.0005-4.9385,14.0112q-.01755,4.6026-.0283,9.2202c-12.8863.2842-15.4395-11.1186-21.2998-18.8085C118.40663,18.74748,122.12393,14.72018,127.392,11.47408Z"/><path class="cls-3" d="M14.04383,39.02478q2.4807-2.56785,4.9659-5.145c19.5419-22.124,47.312-17.8662,68.5498-11.8681,20.9878,5.9326,41.3818,19.9458,61.5014,31.4189,11.0498,10.9277,12.4195,23.5352,6.4849,37.397-.2251,3.8413-1.396,7.1406-5.1509,8.9555-4.6567,4.9292-3.7725,12.0415-6.8979,17.5899-7.0826,7.4761-18.7266,11.2876-25.3623,7.4346-18.3101-10.6353-23.5665-.2759-28.7085,13.4819-35.8247,18.4321-33.5972,15.4863-62.4913-14.7402C.619,96.01308-.58017,70.08,14.04383,39.02478Z"/><path class="cls-4" d="M145.83533,57.478c-5.8237,1.1215-5.3144-21.8902-16.8877-3.6392-4.4741,7.0542-9.249-3.9936-13.3193-7.7598-25.5293-23.6308-68.7573-29.0962-96.624-12.1992,3.3701-17.2104,14.2671-24.0913,31.2671-23.6289,19.2456.5269,38.5073.3862,57.7632.5435,6.1914,4.6992,9.5307,13.3911,18.9658,13.5185,9.4106,3.2393,11.477,13.7627,18.8945,18.9732q2.45295,2.2536,4.9048,4.5088C153.68983,53.352,149.121,55.08,145.83533,57.478Z"/><path class="cls-4" d="M89.42623,138.28948c6.9082-12.8174-9.3335-7.6109-11.8374-15.8867,16.0615.061,29.1499-6.2281,38.6274-17.9497,8.4927,7.8584-1.0972,11.3789.417,17.7182,9.2578,1.4434,16.9736-2.7539,24.3911-7.999,8.8101-.5937,7.6162,3.9561,4.7998,9.332Q117.628,130.90468,89.42623,138.28948Z"/><path class="cls-5" d="M145.83533,57.478c1.6607-3.2354,3.3018-6.4571,4.9644-9.6831,12.8047,13.1064,27.1538,26.0483,4.7339,43.0288C152.52193,79.643,156.10243,66.54928,145.83533,57.478Z"/><path class="cls-5" d="M145.82413,123.50428c-.2969-3.7793-.9297-7.3847-4.7998-9.332.0493-6.8071,2.5537-12.0029,9.3799-14.3892C145.31043,107.00238,163.28063,118.66938,145.82413,123.50428Z"/><path class="cls-1" d="M141.663,36.29528c-2.5591-6.1557-8.8408-16.0595,4.1723-16.7275,6.5699-2.3691,10.7154,13.9526,10.7154,13.9526S143.77043,42.76458,141.663,36.29528Z"/><path class="cls-6" d="M127.00043,24.31288c-1.4385,2.4551-3.8223,7.1616-4.1753,7.0181-9.0176-3.7549-15.4038-9.7324-14.7905-20.541q11.8095-.20955,23.6132-.4326Q129.32613,17.34393,127.00043,24.31288Z"/><path class="cls-7" d="M33.03943,148.58c-1.4917-.4614-2.9897-.9253-4.4814-1.3847-18.731-4.9-24.4507-22.4175-27.2192-36.625-2.7334-14.0425-.5596-30.126.2075-45.2989,3.1308-9.7007,10.1074-14.2314,19.9775-14.8559,2.3159-1.0044,4.5943-1.294,6.7671.3667,4.2622,1.2705,8.1641-1.3511,12.3374-1.1626,6.4707,1.9365,12.1465,7.6259,11.853,12.6508-.812,13.8658,6.8072,13.8785,16.3828,12.8218,21.3853,15.5235,19.0015,15.0904,9.8492,40.9463C70.37443,139.58778,55.54533,147.95888,33.03943,148.58Z"/><path class="cls-8" d="M13.75383,137.57368q-4.1844-.35385-8.3408-.7984c.2676-2.7964.5327-5.5703.7993-8.3623,12.5083-5.5337,7.5659-19.8506,14.0669-28.1382,8.146-10.3535,12.8174-6.9853,13.9477,4.8213,5.8614,8.3516,17.5186,4.2412,24.045,11.1499q8.1738.81225,16.3715,1.6167c-1.6831,22.9366-22.3711,25.5323-37.0234,34.6333C25.14343,154.76608,18.622,147.48088,13.75383,137.57368Z"/><path class="cls-9" d="M96.64443,120.54388H57.12053a31.84989,31.84989,0,0,1-31.8125-31.813V53.90128a31.84711,31.84711,0,0,1,31.8125-31.8105h39.5239a31.84657,31.84657,0,0,1,31.8115,31.8105v34.8296A31.84935,31.84935,0,0,1,96.64443,120.54388Zm-39.5239-91.3848a24.77146,24.77146,0,0,0-24.7432,24.7422v34.8296a24.77013,24.77013,0,0,0,24.7432,24.7417h39.5239a24.7696,24.7696,0,0,0,24.7422-24.7417V53.90128a24.77092,24.77092,0,0,0-24.7422-24.7422Z"/><path class="cls-9" d="M76.88223,99.63518a28.3181,28.3181,0,1,1,28.3184-28.3184A28.35035,28.35035,0,0,1,76.88223,99.63518Zm0-49.5669a21.2483,21.2483,0,1,0,21.2485,21.2485A21.2708,21.2708,0,0,0,76.88223,50.06828Z"/><path class="cls-9" d="M110.64253,43.86958a5.87575,5.87575,0,1,1-5.875-5.8765A5.87435,5.87435,0,0,1,110.64253,43.86958Z"/></g></g></svg>