<svg xmlns="http://www.w3.org/2000/svg" xmlns:xlink="http://www.w3.org/1999/xlink" viewBox="0 0 99.0673 104.9096"><defs><style>.cls-1{fill:none;}.cls-2{isolation:isolate;}.cls-3{fill:#f37721;}.cls-4{clip-path:url(#clip-path);}.cls-5,.cls-9{fill:#3c3c3c;}.cls-6,.cls-9{opacity:0.2;}.cls-6,.cls-8,.cls-9{mix-blend-mode:multiply;}.cls-7{fill:#f9b332;}.cls-8{opacity:0.5;}</style><clipPath id="clip-path"><path class="cls-1" d="M34.6688,88.1557a4.86858,4.86858,0,0,0,6.6031-1.9589L61.9574,48.0425A17.15225,17.15225,0,0,0,31.8002,31.6919l-1.5845,2.9199a4.87116,4.87116,0,1,0,8.5645,4.6435l1.5835-2.9199a7.4115,7.4115,0,1,1,13.0297,7.0674L32.7079,81.5532A4.86833,4.86833,0,0,0,34.6688,88.1557Z"/></clipPath></defs><title>lollipop</title><g class="cls-2"><g id="Layer_2" data-name="Layer 2"><g id="Layer_1-2" data-name="Layer 1"><path class="cls-3" d="M34.6688,88.1557a4.86858,4.86858,0,0,0,6.6031-1.9589L61.9574,48.0425A17.15225,17.15225,0,0,0,31.8002,31.6919l-1.5845,2.9199a4.87116,4.87116,0,1,0,8.5645,4.6435l1.5835-2.9199a7.4115,7.4115,0,1,1,13.0297,7.0674L32.7079,81.5532A4.86833,4.86833,0,0,0,34.6688,88.1557Z"/><g class="cls-4"><polygon class="cls-5" points="5.996 28.664 3.712 21.048 74.607 0 76.87 7.626 5.996 28.664"/><polygon class="cls-5" points="10 44.435 7.638 36.475 78.886 15.322 81.083 23.331 10 44.435"/><polygon class="cls-5" points="14.427 59.351 12.165 51.728 82.886 30.732 84.986 38.408 14.427 59.351"/><polygon class="cls-5" points="18.954 74.603 16.69 66.977 87.94 45.83 90.038 53.501 18.954 74.603"/><rect class="cls-5" x="20.85648" y="71.44513" width="74.57883" height="8.30309" transform="translate(-19.10635 19.6691) rotate(-16.53092)"/><rect class="cls-5" x="26.02468" y="86.67072" width="73.42749" height="7.95491" transform="translate(-23.21022 21.61171) rotate(-16.54009)"/></g><g class="cls-6"><path class="cls-5" d="M31.2225,40.522a4.93638,4.93638,0,0,0,.9532.6953,4.8749,4.8749,0,0,0,6.6045-1.962l1.5835-2.9199a7.41757,7.41757,0,0,1,8.9726-3.4502,7.52343,7.52343,0,0,0-.979-.6465,7.41962,7.41962,0,0,0-10.0478,2.9834l-1.5835,2.919A4.8631,4.8631,0,0,1,31.2225,40.522Z"/><path class="cls-5" d="M55.0551,24.7895c-.3453-.1875-.6988-.3427-1.0523-.5039a17.15883,17.15883,0,0,1,5.9004,22.6436L39.2182,85.0835a4.86409,4.86409,0,0,1-5.503,2.3789,4.82611,4.82611,0,0,0,7.5567-1.2656L61.9574,48.0425A17.16947,17.16947,0,0,0,55.0551,24.7895Z"/></g><path class="cls-7" d="M22.1928,53.8833a7.07882,7.07882,0,0,1-5.2076,3.7138,3.22592,3.22592,0,0,1-3.5698-1.9013,2.3438,2.3438,0,0,1,.9507-3.0742,3.01895,3.01895,0,0,0,4.8306.0478c1.5971-2.6963-.0152-5.54-2.0323-7.2226-5.6709-4.2637-13.3232.3857-14.3955,7.1748-.6601,5.1416,1.1182,9.8339,5.5484,12.5244a11.32383,11.32383,0,0,0,1.9975.9883c.8706.2343.6387.3173-.3647-.0362a13.81453,13.81453,0,0,1-2.1187-.959A14.71128,14.71128,0,0,1,.2084,54.8198a14.31251,14.31251,0,0,1,1.0889-8.3867c-.1148.2861.1445.2597.9541-.7471,4.0073-5.3594,12.2959-7.1807,17.4736-2.4375C22.7006,45.9184,24.1947,50.0239,22.1928,53.8833Z"/><g class="cls-8"><path class="cls-7" d="M19.1967,52.6694c1.5971-2.6963-.0152-5.54-2.0323-7.2226-5.6709-4.2637-13.3232.3857-14.3955,7.1748-.6601,5.1416,1.1182,9.8339,5.5484,12.5244A11.49,11.49,0,0,1,2.1185,52.102c1.8238-8.2558,9.9888-11.5166,15.6607-7.2519,2.0171,1.6826,4.2143,5.54,2.2925,8.0185-1.8467,2.3799-5.563,2.6602-5.7056-.247A3.01895,3.01895,0,0,0,19.1967,52.6694Z"/><path class="cls-7" d="M.2084,54.8198a14.31251,14.31251,0,0,1,1.0889-8.3867c-.1148.2861.1445.2597.9541-.7471,4.0073-5.3594,12.2959-7.1807,17.4736-2.4375,2.9756,2.6699,4.4697,6.7754,2.4678,10.6348a7.07882,7.07882,0,0,1-5.2076,3.7138,3.22592,3.22592,0,0,1-3.5698-1.9013,2.3438,2.3438,0,0,1,.9507-3.0742,2.5605,2.5605,0,0,0,.8267,4.0761c1.352.5772,4.8823.1866,6.767-3.4345,1.066-2.044,1.1753-6.292-2.8227-9.8711-5.2329-4.6826-13.2275-1.6612-16.7192,2.6963C1.6098,47.0952-.1427,51.1186.3617,54.0512c.9072,4.3877,3.228,8.7901,7.4697,11.0879A14.71128,14.71128,0,0,1,.2084,54.8198Z"/></g><path class="cls-7" d="M27.2055,59.0093c-.1138.2177-.23.4306-.3516.6377-.3706.6357-.48.289-1.1231.9853-5.2783,5.667-16.0561,4.8272-19.0522-2.8975-1.0239-3.1269-.4785-7.0078,2.3706-9.1035,2.1626-1.5224,5.1792-1.7685,6.5078.4864a2.16252,2.16252,0,0,1-1.2632,3.2734,2.70271,2.70271,0,0,0-3.6992,1.2861c-1.4326,2.6992.4282,6.0655,4.0127,6.9942a9.30383,9.30383,0,0,0,9.479-3.3584,11.95445,11.95445,0,0,0,1.4434-12.0332A12.24965,12.24965,0,0,0,18.33,38.6264c-.2774-.0966-.002-.038.3047.0479a15.09737,15.09737,0,0,1,8.2573,6.4316A14.77287,14.77287,0,0,1,27.2055,59.0093Z"/><path class="cls-5" d="M19.1532,64.1958c.6831-.2822,1.3081-.3418,1.3955-.1328L28.035,82.1997c.0855.208-.4013.6064-1.0854.8887-.6846.2832-1.3091.3427-1.3955.1357L18.0678,65.0864C17.9818,64.8784,18.4667,64.4809,19.1532,64.1958Z"/><path class="cls-9" d="M19.1532,64.1958c.6831-.2822,1.3081-.3418,1.3955-.1328l1.6499,3.998a4.14055,4.14055,0,0,1-2.8491.1299l-1.2817-3.1045C17.9818,64.8784,18.4667,64.4809,19.1532,64.1958Z"/><g class="cls-8"><path class="cls-7" d="M6.6786,57.7348c-1.0239-3.1269-.4785-7.0078,2.3706-9.1035,2.1626-1.5224,5.1792-1.7685,6.5078.4864a2.16252,2.16252,0,0,1-1.2632,3.2734c1.0249-.6397.6075-2.0801-.0796-2.7959-.6635-.3916-2.5732-2.0635-5.6811.9551-1.0415,1.0107-1.9434,3.5263-.9209,6.6513,2.9966,7.7237,12.3784,8.083,17.6572,2.4151a13.78809,13.78809,0,0,0,1.4883-2.0635c2.0732-4.4375.9565-8.9814-.4678-12.1982a13.941,13.941,0,0,0-7.6552-6.6807,15.09737,15.09737,0,0,1,8.2573,6.4316,14.77287,14.77287,0,0,1,.3135,13.9034c-.1138.2177-.23.4306-.3516.6377-.3706.6357-.48.289-1.1231.9853C20.4525,66.2993,9.6747,65.4595,6.6786,57.7348Z"/><path class="cls-7" d="M10.5946,53.6772c-1.4326,2.6992.4282,6.0655,4.0127,6.9942a9.30383,9.30383,0,0,0,9.479-3.3584,11.95445,11.95445,0,0,0,1.4434-12.0332A12.24965,12.24965,0,0,0,18.33,38.6264a13.79023,13.79023,0,0,1,7.8017,6.4053,12.09184,12.09184,0,0,1-1.104,13.0059,11.11722,11.11722,0,0,1-11.3091,3.9316c-5.6757-1.7871-6.102-6.6592-4.8398-9.4433,1.1064-2.4463,4.8022-3.0049,5.415-.1348A2.70271,2.70271,0,0,0,10.5946,53.6772Z"/></g><path class="cls-3" d="M26.6049,60.0151c-3.8501,5.8457-12.0132,9.041-18.2876,5.1309-4.4312-2.6905-6.21-7.3838-5.5484-12.5264,1.0713-6.7891,8.7237-11.4375,14.3965-7.1728,2.0161,1.6826,3.6275,4.5244,2.0313,7.2226a2.99844,2.99844,0,0,1-4.9541-.2685,2.15669,2.15669,0,0,0,1.3115-3.2852c-1.3257-2.2559-4.3428-2.0088-6.5049-.4844-2.8501,2.0957-3.3945,5.9766-2.3706,9.1035,2.9951,7.7227,13.7729,8.5645,19.0518,2.8965C26.3734,59.9341,26.7738,59.7583,26.6049,60.0151Z"/><g class="cls-8"><path class="cls-3" d="M15.5541,49.1157c-1.3257-2.2559-4.3428-2.0088-6.5049-.4844-2.8501,2.0957-3.3945,5.9766-2.3706,9.1035,2.9951,7.7227,13.7729,8.5645,19.0518,2.8965.5913-.6426.976-.8408.9023-.6679-.0845.081-.3848.3955-.8188.8662-5.6817,6.1338-17.0098,5.6562-20.565-2.959-1.0234-3.126-1.248-7.7608,3.2193-10.6455,2.2216-1.4365,6.8081-2.126,8.1752,1.6767.6748,1.8828-.6611,4.3135-2.4008,3.4991A2.15669,2.15669,0,0,0,15.5541,49.1157Z"/><path class="cls-3" d="M2.7689,52.6196c1.0713-6.7891,8.7237-11.4375,14.3965-7.1728,2.0161,1.6826,3.6275,4.5244,2.0313,7.2226a2.99844,2.99844,0,0,1-4.9541-.2685c.8491,1.7636,3.6635.4902,4.1723-1.0528a4.77441,4.77441,0,0,0-1.4023-5.1328c-4.4028-4.0127-12.4512-.917-13.5235,5.8731C2.8285,57.228,5.0116,62.1528,8.4877,64.1928c6.3764,3.7403,13.7358,1.1436,18.1172-4.1777-3.8501,5.8457-12.0132,9.041-18.2876,5.1309C3.8861,62.4555,2.1073,57.7622,2.7689,52.6196Z"/></g><path class="cls-3" d="M1.2982,46.4282a11.82945,11.82945,0,0,1,1.0752-1.9141,16.10094,16.10094,0,0,1,8.0899-5.9726,12.2855,12.2855,0,0,1,15.0654,6.7383A11.95241,11.95241,0,0,1,24.0863,57.312a9.3072,9.3072,0,0,1-9.4805,3.3584c-3.583-.9277-5.4458-4.294-4.0112-6.9951a2.78433,2.78433,0,0,1,3.9385-1.1709,2.38284,2.38284,0,0,0-1.1167,3.1904,3.22022,3.22022,0,0,0,3.5688,1.8994,7.06893,7.06893,0,0,0,5.2066-3.7139c2.0029-3.8574.5078-7.9638-2.4673-10.6318C14.5463,38.5053,6.2577,40.3247,2.2518,45.686,1.4374,46.6977,1.1801,46.7182,1.2982,46.4282Z"/><g class="cls-8"><path class="cls-3" d="M10.5946,53.6753a2.70347,2.70347,0,0,1,3.7002-1.2852c-.6147-.2568-1.9307-.3848-3.0498,1.7236-1.4326,2.7012,1.5132,5.9327,4.4824,5.8575a9.77825,9.77825,0,0,0,7.8594-3.8643c2.6772-3.459,2.4268-6.3183.7349-10.3301-2.5376-5.7734-7.6368-8.7851-13.6914-6.834-3.1675,1.1534-6.3975,2.7159-8.2569,5.5713a16.10094,16.10094,0,0,1,8.0899-5.9726,12.2855,12.2855,0,0,1,15.0654,6.7383A11.95241,11.95241,0,0,1,24.0863,57.312a9.3072,9.3072,0,0,1-9.4805,3.3584C11.0228,59.7427,9.16,56.3764,10.5946,53.6753Z"/><path class="cls-3" d="M1.2714,46.5415c.0259.0732.2016-.417.8144-1.2578,4.9741-6.8428,13.4649-7.1934,18.645-2.4502,2.9737,2.6679,4.7154,6.1963,2.9849,10.1826a9.59806,9.59806,0,0,1-6.3149,5.583c-2.2007.4072-4.6006-.4141-5.1905-2.4082-.7338-2.4785,1.3135-4.0332,2.3228-3.6865a2.38284,2.38284,0,0,0-1.1167,3.1904,3.22022,3.22022,0,0,0,3.5688,1.8994,7.06893,7.06893,0,0,0,5.2066-3.7139c2.0029-3.8574.5078-7.9638-2.4673-10.6318C14.5463,38.5053,6.2577,40.3247,2.2518,45.686,1.5726,46.5307,1.2802,46.6831,1.2714,46.5415Z"/></g></g></g></g></svg>