<svg xmlns="http://www.w3.org/2000/svg" viewBox="0 0 76.8819 66.72019"><defs><style>.cls-1{isolation:isolate;}.cls-2,.cls-6{fill:#3c3c3c;}.cls-3,.cls-7{fill:#323333;}.cls-4{fill:#f37721;}.cls-5{fill:#c36224;}.cls-6{opacity:0.6;}.cls-6,.cls-7{mix-blend-mode:screen;}.cls-7{opacity:0.5;}.cls-8{fill:#f9b332;}.cls-9{fill:#f18b22;}</style></defs><title>pumpkin</title><g class="cls-1"><g id="Layer_2" data-name="Layer 2"><g id="Layer_1-2" data-name="Layer 1"><path class="cls-2" d="M51.3936,34.77589c0,14.8633-3.7725,24.9014-12.9541,24.9014-9.1777,0-12.9531-10.0381-12.9531-24.9014,0-14.8643,5.8008-26.9131,12.9531-26.9131C45.5938,7.86279,51.3936,19.91159,51.3936,34.77589Z"/><path class="cls-3" d="M13.0791,34.72409c0,14.0938,6.5967,21.5996,15.2999,21.5996,8.706,0,12.2832-7.5058,12.2832-21.5996s-5.5-25.5185-12.2832-25.5185S13.0791,20.63039,13.0791,34.72409Z"/><path class="cls-2" d="M11.0674,34.72409c0,14.0938,6.5967,21.5996,15.2998,21.5996,8.7051,0,12.2832-7.5058,12.2832-21.5996s-5.5-25.5185-12.2832-25.5185C19.5831,9.20559,11.0674,20.63039,11.0674,34.72409Z"/><path class="cls-3" d="M63.8028,34.72409c0,14.0938-6.5967,21.5996-15.3018,21.5996-8.7031,0-12.2812-7.5058-12.2812-21.5996s5.499-25.5185,12.2812-25.5185C55.2852,9.20559,63.8028,20.63039,63.8028,34.72409Z"/><path class="cls-2" d="M65.8145,34.72409c0,14.0938-6.5967,21.5996-15.3008,21.5996s-12.2822-7.5058-12.2822-21.5996,5.498-25.5185,12.2822-25.5185C57.2969,9.20559,65.8145,20.63039,65.8145,34.72409Z"/><path class="cls-3" d="M74.8702,38.74859c0,14.0937-8.6094,19.5859-17.3135,19.5859s-13.2881-5.4922-13.2881-19.5859c0-14.0948,6.5039-25.5186,13.2881-25.5186C70.5948,13.23,74.8702,24.65379,74.8702,38.74859Z"/><path class="cls-2" d="M76.8819,38.74859c0,14.0937-8.6084,19.5859-17.3135,19.5859-8.7031,0-12.2812-5.4922-12.2812-19.5859,0-14.0948,5.498-25.5186,12.2812-25.5186C72.6065,13.23,76.8819,24.65379,76.8819,38.74859Z"/><path class="cls-3" d="M60.7325,13.26119c10.5898,1.1485,14.1377,11.3379,14.1377,23.7452,0,13.1748-8.0498,18.3115-16.1866,18.3115-7.2968,0-10.7314-4.1514-11.3642-14.5049.3496,12.5557,3.9853,17.5215,12.249,17.5215,8.7051,0,17.3135-5.4922,17.3135-19.5859C76.8819,25.08349,72.8614,13.92729,60.7325,13.26119Z"/><path class="cls-4" d="M30.8916,17.61379c-1.7939-1.5576,5.5254-2.7246,5.2217-9.2442-.1982-4.2792-5.9756-3.6689-6.457-5.3857-.4834-1.7197,1.9805-3.2812,4.4023-2.9355,2.42.3466,8.2373,4.8095,8.5508,12.2607.0635,2.7676,5.2197,3.0518,3.2071,5.0635C43.8047,19.38529,34.834,21.03079,30.8916,17.61379Z"/><path class="cls-5" d="M42.6094,12.30909a14.20228,14.20228,0,0,0-1.3515-5.4805c1.6562,5.3311-.2276,4.5713,1.2734,7.8262,1.5088,3.2686-6.666,3.6475-8.5732,2.4736-.8721-.538-.6123-1.8623-.0762-3.1416-1.8692,1.8907-4.0664,2.6934-2.9903,3.627,3.9424,3.417,12.9131,1.7715,14.9249-.2412C47.8291,15.36089,42.6729,15.07669,42.6094,12.30909Z"/><path class="cls-2" d="M65.8145,41.76609c0,14.0928-6.5967,21.5987-15.3008,21.5987s-12.2822-7.5059-12.2822-21.5987c0-14.0937,5.498-25.5175,12.2822-25.5175C57.2969,16.24859,65.8145,27.67239,65.8145,41.76609Z"/><path class="cls-3" d="M55.4825,18.05709c4.5263,3.9405,8.4453,11.9336,8.4453,21.1622,0,13.1298-6.1455,20.1211-14.2539,20.1211-7.8653,0-11.2276-6.5938-11.4248-18.9688-.0108.4619-.0176.9258-.0176,1.3945,0,14.0928,3.5781,21.5987,12.2822,21.5987s15.3008-7.5059,15.3008-21.5987C65.8145,31.00729,60.8506,21.81009,55.4825,18.05709Z"/><path class="cls-3" d="M2.0118,38.74859c0,14.0937,8.6093,19.5859,17.3134,19.5859s12.2823-5.4922,12.2823-19.5859c0-14.0948-5.5-25.5186-12.2823-25.5186C6.2852,13.23,2.0118,24.65379,2.0118,38.74859Z"/><path class="cls-2" d="M0,38.74859c0,14.0937,8.6084,19.5859,17.3116,19.5859,8.706,0,12.2832-5.4922,12.2832-19.5859,0-14.0948-5.499-25.5186-12.2832-25.5186C4.2735,13.23,0,24.65379,0,38.74859Z"/><path class="cls-3" d="M22.7168,18.26029c-6.0556,0-13.6611,10.2041-13.6611,22.792,0,8.54,2.7158,14.3603,6.8858,17.2275.457.0322.913.0547,1.3701.0547,8.706,0,12.2832-5.4922,12.2832-19.5859,0-8.125-1.8282-15.3565-4.6758-20.0293A5.59406,5.59406,0,0,0,22.7168,18.26029Z"/><path class="cls-2" d="M11.0674,41.76609c0,14.0928,6.5967,21.5987,15.2998,21.5987,8.7051,0,12.2832-7.5059,12.2832-21.5987,0-14.0937-5.5-25.5175-12.2832-25.5175C19.5831,16.24859,11.0674,27.67239,11.0674,41.76609Z"/><path class="cls-3" d="M31.7188,18.79449c-4.7647,2.9209-8.2441,12.0742-8.2441,22.9238,0,10.4199,2.0996,18.1465,6.9892,20.9482,5.7393-2.1435,8.1865-9.2724,8.1865-20.9004C38.6504,31.66159,35.8213,22.92919,31.7188,18.79449Z"/><path class="cls-2" d="M51.3936,41.81889c0,14.8642-3.7725,24.9013-12.9541,24.9013-9.1777,0-12.9531-10.0371-12.9531-24.9013,0-14.8633,5.8008-26.9131,12.9531-26.9131C45.5938,14.90579,51.3936,26.95559,51.3936,41.81889Z"/><path class="cls-3" d="M42.4961,16.25929c3.5391,4.8027,5.8799,13.1025,5.8799,22.541,0,14.8633-3.7724,24.9014-12.9541,24.9014a9.92413,9.92413,0,0,1-5.6084-1.6113,10.00661,10.00661,0,0,0,8.626,4.6298c9.1816,0,12.9541-10.0371,12.9541-24.9013C51.3936,29.89889,47.6622,19.79539,42.4961,16.25929Z"/><path class="cls-6" d="M29.1905,28.65379c-.1367-2.2314,1.7978-10.7558,8.9121-12.3144C45.2178,14.78179,29.6622,36.39409,29.1905,28.65379Z"/><path class="cls-6" d="M17.1583,26.21539c.3779-1.919,3.9121-8.709,10.2841-8.4434C33.8125,18.03469,15.8321,32.87449,17.1583,26.21539Z"/><path class="cls-6" d="M6.0899,20.74069c.6797-1.6806,5.0771-7.25,10.833-5.9062C22.6797,16.18309,3.7256,26.57569,6.0899,20.74069Z"/><path class="cls-7" d="M35.0362,5.01219a5.12917,5.12917,0,0,1,1.6035,5.5655S38.8721,6.48879,35.0362,5.01219Z"/><path class="cls-7" d="M37.4161,6.647a6.11592,6.11592,0,0,1-.292,4.8838A3.35948,3.35948,0,0,0,37.4161,6.647Z"/><path class="cls-5" d="M34.2129.68209c.2032.4209-.5498,1.2051-1.6816,1.751-1.1309.544-2.2129.6426-2.417.2207-.2031-.4228.5488-1.206,1.6797-1.75C32.9258.357,34.0098.25829,34.2129.68209Z"/><path class="cls-3" d="M42.0723,38.82959c0-2.0039-2.4365-5.793-3.6328-5.793-1.1934,0-3.6289,3.7891-3.6289,5.793C34.8106,40.83249,42.0723,40.83249,42.0723,38.82959Z"/><path class="cls-3" d="M58.2735,38.30419c-.4824.0557-1.9658,3.6543-3.1758,7.0576-.8486-1.2929-1.832-2.29-2.4912-2.29-.958,0-2.5977,2.0957-3.5215,4.1572-.9248-2.0615-2.5635-4.1572-3.5234-4.1572-.9707,0-2.6426,2.1582-3.5596,4.25-.915-2.0918-2.5889-4.25-3.5625-4.25-.9707,0-2.6445,2.1582-3.5596,4.25-.916-2.0918-2.5898-4.25-3.5605-4.25-.958,0-2.5977,2.0957-3.5244,4.1572-.9229-2.0615-2.5616-4.1572-3.5205-4.1572-.6592,0-1.6416.9971-2.4922,2.29-1.2119-3.4033-2.6944-7.0019-3.1758-7.0576-.8818-.1045-3.1572,6.2764-1.2256,9.7285a8.37524,8.37524,0,0,0,4.5137,3.5205c.7051,1.2061,1.6201,2.2227,2.2012,2.2227.6201,0,1.6181-1.1553,2.3378-2.4707.1436-.0332.2862-.0684.418-.1074.7266,1.3584,1.7598,2.5781,2.3984,2.5781.585,0,1.5059-1.0293,2.2149-2.248.0166-.001.0332-.001.0478-.001.7081,1.2197,1.6299,2.249,2.2149,2.249.6269,0,1.6348-1.1748,2.3564-2.501.7227,1.3262,1.7285,2.501,2.3555,2.501s1.6357-1.1748,2.3574-2.501c.7207,1.3262,1.7285,2.501,2.3555,2.501.5859,0,1.5078-1.0293,2.2168-2.249.0146,0,.0312,0,.0459.001.708,1.2187,1.6299,2.248,2.2168,2.248.6387,0,1.6719-1.2197,2.3984-2.5781.1319.039.2735.0742.416.1074.7207,1.3154,1.7198,2.4707,2.3399,2.4707.581,0,1.4941-1.0166,2.1992-2.2227a8.38574,8.38574,0,0,0,4.5156-3.5205C61.4336,44.58059,59.1543,38.19969,58.2735,38.30419Z"/><path class="cls-3" d="M31.0723,30.82959c0-2.0039-3.3115-5.793-5.6328-5.793s-5.6289,3.7891-5.6289,5.793C19.8106,32.83249,31.0723,32.83249,31.0723,30.82959Z"/><path class="cls-3" d="M57.0684,30.82959c0-2.0039-3.3076-5.793-5.6289-5.793s-5.6328,3.7891-5.6328,5.793C45.8067,32.83249,57.0684,32.83249,57.0684,30.82959Z"/><path class="cls-8" d="M42.0723,37.82959c0-2.0039-2.4365-5.793-3.6328-5.793-1.1934,0-3.6289,3.7891-3.6289,5.793C34.8106,39.83249,42.0723,39.83249,42.0723,37.82959Z"/><path class="cls-9" d="M38.4395,34.03659c.9541,0,2.6924,2.4073,3.3594,4.3995a.87246.87246,0,0,0,.2734-.6065c0-2.0039-2.4365-5.793-3.6328-5.793-1.1934,0-3.6289,3.7891-3.6289,5.793a.87021.87021,0,0,0,.2734.6055C35.751,36.44389,37.4883,34.03659,38.4395,34.03659Z"/><path class="cls-8" d="M58.2735,37.30419c-.4824.0557-1.9658,3.6543-3.1758,7.0576-.8486-1.2929-1.832-2.29-2.4912-2.29-.958,0-2.5977,2.0957-3.5215,4.1572-.9248-2.0615-2.5635-4.1572-3.5234-4.1572-.9707,0-2.6426,2.1582-3.5596,4.25-.915-2.0918-2.5889-4.25-3.5625-4.25-.9707,0-2.6445,2.1582-3.5596,4.25-.916-2.0918-2.5898-4.25-3.5605-4.25-.958,0-2.5977,2.0957-3.5244,4.1572-.9229-2.0615-2.5616-4.1572-3.5205-4.1572-.6592,0-1.6416.9971-2.4922,2.29-1.2119-3.4033-2.6944-7.0019-3.1758-7.0576-.8818-.1045-3.1572,6.2764-1.2256,9.7285a8.37524,8.37524,0,0,0,4.5137,3.5205c.7051,1.2061,1.6201,2.2227,2.2012,2.2227.6201,0,1.6181-1.1553,2.3378-2.4707.1436-.0332.2862-.0684.418-.1074.7266,1.3584,1.7598,2.5781,2.3984,2.5781.585,0,1.5059-1.0293,2.2149-2.248.0166-.001.0332-.001.0478-.001.7081,1.2197,1.6299,2.249,2.2149,2.249.6269,0,1.6348-1.1748,2.3564-2.501.7227,1.3262,1.7285,2.501,2.3555,2.501s1.6357-1.1748,2.3574-2.501c.7207,1.3262,1.7285,2.501,2.3555,2.501.5859,0,1.5078-1.0293,2.2168-2.249.0146,0,.0312,0,.0459.001.708,1.2187,1.6299,2.248,2.2168,2.248.6387,0,1.6719-1.2197,2.3984-2.5781.1319.039.2735.0742.416.1074.7207,1.3154,1.7198,2.4707,2.3399,2.4707.581,0,1.4941-1.0166,2.1992-2.2227a8.38574,8.38574,0,0,0,4.5156-3.5205C61.4336,43.58059,59.1543,37.19969,58.2735,37.30419Z"/><path class="cls-8" d="M31.0723,29.82959c0-2.0039-3.3115-5.793-5.6328-5.793s-5.6289,3.7891-5.6289,5.793C19.8106,31.83249,31.0723,31.83249,31.0723,29.82959Z"/><path class="cls-8" d="M57.0684,29.82959c0-2.0039-3.3076-5.793-5.6289-5.793s-5.6328,3.7891-5.6328,5.793C45.8067,31.83249,57.0684,31.83249,57.0684,29.82959Z"/><path class="cls-9" d="M20.1973,30.41749c.9346-1.9883,3.3975-4.3809,5.2422-4.3809s4.3096,2.3926,5.2461,4.3809a.75452.75452,0,0,0,.3867-.5879c0-2.0039-3.3115-5.793-5.6328-5.793s-5.6289,3.7891-5.6289,5.793A.75452.75452,0,0,0,20.1973,30.41749Z"/><path class="cls-9" d="M46.1934,30.41749c.9365-1.9883,3.4014-4.3809,5.2461-4.3809s4.3076,2.3926,5.2422,4.3809a.75452.75452,0,0,0,.3867-.5879c0-2.0039-3.3076-5.793-5.6289-5.793s-5.6328,3.7891-5.6328,5.793A.75452.75452,0,0,0,46.1934,30.41749Z"/><path class="cls-9" d="M18.6065,40.30419c.4814.0557,1.9639,3.6543,3.1758,7.0576.8506-1.2929,1.833-2.29,2.4922-2.29.9589,0,2.5976,2.0957,3.5205,4.1572.9267-2.0615,2.5664-4.1572,3.5244-4.1572.9707,0,2.6445,2.1582,3.5605,4.25.9151-2.0918,2.5889-4.25,3.5596-4.25.9736,0,2.6475,2.1582,3.5625,4.25.917-2.0918,2.5889-4.25,3.5596-4.25.9599,0,2.5986,2.0957,3.5234,4.1572.9238-2.0615,2.5635-4.1572,3.5215-4.1572.6592,0,1.6426.9971,2.4912,2.29,1.21-3.4033,2.6934-7.0019,3.1758-7.0576.5254-.0625,1.541,2.1817,1.8721,4.7344.539-3.4629-1.1426-7.8213-1.8721-7.7344-.4824.0557-1.9658,3.6543-3.1758,7.0576-.8486-1.2929-1.832-2.29-2.4912-2.29-.958,0-2.5977,2.0957-3.5215,4.1572-.9248-2.0615-2.5635-4.1572-3.5234-4.1572-.9707,0-2.6426,2.1582-3.5596,4.25-.915-2.0918-2.5889-4.25-3.5625-4.25-.9707,0-2.6445,2.1582-3.5596,4.25-.916-2.0918-2.5898-4.25-3.5605-4.25-.958,0-2.5977,2.0957-3.5244,4.1572-.9229-2.0615-2.5616-4.1572-3.5205-4.1572-.6592,0-1.6416.9971-2.4922,2.29-1.2119-3.4033-2.6944-7.0019-3.1758-7.0576-.7305-.0869-2.4082,4.2705-1.8701,7.7324C17.0665,42.48489,18.0811,40.24169,18.6065,40.30419Z"/></g></g></g></svg>