<svg xmlns="http://www.w3.org/2000/svg" viewBox="0 0 77.74735 65.45267"><defs><style>.cls-1{isolation:isolate;}.cls-2,.cls-6{fill:#d2d3d5;}.cls-3,.cls-6{mix-blend-mode:multiply;}.cls-4{fill:#fff;mix-blend-mode:screen;}.cls-5{fill:#3c3c3c;}</style></defs><title>skull</title><g class="cls-1"><g id="Layer_2" data-name="Layer 2"><g id="Layer_1-2" data-name="Layer 1"><path class="cls-2" d="M25.577,55.58319v-.0025l14.2022-14.2021v.001a5.53516,5.53516,0,1,0,3.9414-9.4488,5.53471,5.53471,0,1,0-9.4483,3.9405l-14.205,14.2021a5.53481,5.53481,0,1,0-3.9385,9.4487,5.53435,5.53435,0,1,0,9.4482-3.9389Z"/><g class="cls-3"><path class="cls-2" d="M47.62676,33.57389a5.53444,5.53444,0,0,1-9.0205,6.0469v-.001l-14.2011,14.2036v.001a5.51008,5.51008,0,0,1,1.17771,1.7505l14.19629-14.1963v.001a5.53431,5.53431,0,0,0,7.8476-7.8057Z"/><path class="cls-2" d="M24.40516,61.65059a5.53784,5.53784,0,0,1-7.8301,0l-.0196-.0215a5.53431,5.53431,0,1,0,9.0411-6.0249A5.53465,5.53465,0,0,1,24.40516,61.65059Z"/></g><path class="cls-4" d="M40.45006,28.38589c0,.6821-1.1211,1.2368-2.5039,1.2368-1.3838,0-2.5039-.5547-2.5039-1.2368,0-.6831,1.1201-1.2358,2.5039-1.2358C39.329,27.15009,40.45006,27.70279,40.45006,28.38589Z"/><path class="cls-4" d="M18.61316,50.58949c0,.6817-1.1202,1.2354-2.5039,1.2354-1.3829,0-2.504-.5537-2.504-1.2354,0-.6831,1.1211-1.2363,2.504-1.2363C17.493,49.35319,18.61316,49.90639,18.61316,50.58949Z"/><path class="cls-2" d="M17.91487,39.93909l-.001-.0019L6.46466,36.31609h0a3.30871,3.30871,0,1,1-4.6943-3.9263,3.30843,3.30843,0,1,1,6.0976-.5151l11.4512,3.6221a3.31022,3.31022,0,1,1,4.6943,3.9272,3.30916,3.30916,0,1,1-6.09859.5151Z"/><g class="cls-3"><path class="cls-2" d="M.15116,34.33709a3.308,3.308,0,0,0,6.4512.7236v-.0024l11.4492,3.622.002.002a3.29608,3.29608,0,0,0-.1436,1.2534l-11.4453-3.6196h0a3.30821,3.30821,0,0,1-6.3135-1.979Z"/><path class="cls-2" d="M20.20976,42.83419a3.30975,3.30975,0,0,0,4.1524-2.1578.13765.13765,0,0,1,.0058-.0185,3.30894,3.30894,0,1,1-6.457-.7031A3.3119,3.3119,0,0,0,20.20976,42.83419Z"/></g><path class="cls-4" d="M2.52816,29.60809c.1875.3613.9355.3462,1.6689-.0347.7344-.3823,1.17581-.9834.9873-1.3467-.1884-.3613-.93349-.3471-1.6679.0362C2.78406,28.64229,2.33866,29.24479,2.52816,29.60809Z"/><path class="cls-4" d="M20.23226,35.36779c.1895.3628.9355.3482,1.6709-.0327.7324-.3808,1.1758-.9843.9873-1.3466-.1875-.3624-.93459-.3472-1.6699.0346C20.48816,34.404,20.04476,35.00749,20.23226,35.36779Z"/><path class="cls-2" d="M33.37976,53.464c-2.7871,6.104,19.3173,16.2007,22.1054,10.0967,2.7881-6.1054,5.13771-18.9756-2.9941-22.6909C44.35926,37.15639,36.16776,47.35859,33.37976,53.464Z"/><path class="cls-2" d="M74.71366,47.10029c-5.2343,11.4541-17.0312,12.7075-28.4834,7.476-11.458-5.2329-18.23039-14.9677-12.998-26.4238,5.2334-11.4546,17.7324-21.5493,31.9453-15.0571C79.39046,19.58809,79.94616,35.64569,74.71366,47.10029Z"/><path class="cls-5" d="M49.65606,50.51289c-.8935,1.9565-5.6045-.1934-4.7119-2.1504.8945-1.9566,4.1641-4.9361,4.9375-4.5825C50.661,44.134,50.54966,48.55729,49.65606,50.51289Z"/><path class="cls-5" d="M51.76646,51.47819c-.89459,1.9565-5.6035-.1948-4.709-2.1519.8935-1.9565,4.165-4.9345,4.94041-4.58C52.77226,45.10029,52.66,49.52019,51.76646,51.47819Z"/><path class="cls-5" d="M36.99106,35.37759c-.8799,3.4732,5.8301,10.8237,13.2099,1.4395C55.48226,30.10219,39.06136,27.22229,36.99106,35.37759Z"/><path class="cls-5" d="M66.79087,48.98939c-2.04981,2.937-12,2.6802-9.73931-9.042C58.67076,31.55929,71.59846,42.08459,66.79087,48.98939Z"/><path class="cls-6" d="M74.71366,47.10029c3.3467-7.3282,4.3174-16.5362.86721-23.9214,1.92389,6.7236.80569,14.4053-2.07031,20.6992-3.5019,7.6714-9.956,10.748-17.2734,10.3853a30.17526,30.17526,0,0,1-1.9541,6.0727c-.669,1.4629-2.4414,1.9902-4.711,1.8721a5.75342,5.75342,0,0,0,.3975-2.5025c-.1943-.0883-1.2051,1.2076-1.8848,2.3462a23.69709,23.69709,0,0,1-3.9414-.9956c.5254-1.251,1.02351-3.5454.794-3.6489-.2364-.1084-1.7246,1.8877-2.292,3.0957a32.04488,32.04488,0,0,1-3.56449-1.6733c.53909-1.2349,1.05859-3.6143.82519-3.7217-.2256-.103-1.5849,1.7002-2.2031,2.9199a17.773,17.773,0,0,1-4.5303-3.7773c-.7539,6.1347,19.6387,15.1596,22.3125,9.31a30.18667,30.18667,0,0,0,1.9532-6.0747C64.75566,57.84879,71.20887,54.77209,74.71366,47.10029Z"/><path class="cls-4" d="M52.97446,19.97139c-3.125,1.6645-6.34859,1.7231-7.1963.1338-.8486-1.5938.999-4.2349,4.126-5.9019,3.126-1.6641,6.3486-1.7251,7.1963-.1318C57.94906,15.66419,56.10136,18.30489,52.97446,19.97139Z"/><path class="cls-4" d="M44.60626,23.50159a2.43479,2.43479,0,1,1-1.167-3.2387A2.43365,2.43365,0,0,1,44.60626,23.50159Z"/><path class="cls-2" d="M17.62676,29.17249c1.3037,3.4956,13.9639-1.2251,12.6602-4.7197-1.3027-3.4975-5.4385-9.4814-10.0967-7.7441C15.53306,18.445,16.32306,25.676,17.62676,29.17249Z"/><path class="cls-2" d="M31.37587,10.42159c2.44429,6.56-1.70121,11.6909-8.25791,14.1347-6.5615,2.4488-13.0527,1.2847-15.499-5.2759-2.4443-6.5615-1.501-15.4438,6.6397-18.4785S28.92856,3.86249,31.37587,10.42159Z"/><path class="cls-5" d="M22.86606,21.61389c.417,1.1206-2.2803,2.1275-2.6973,1.0069-.41789-1.1197-.3047-3.5777.1387-3.7437C20.75376,18.71259,22.44806,20.49429,22.86606,21.61389Z"/><path class="cls-5" d="M24.07506,21.16519c.4179,1.1187-2.2783,2.1245-2.6973,1.0029-.418-1.1201-.3018-3.5747.1436-3.7436C21.96366,18.26039,23.65606,20.04359,24.07506,21.16519Z"/><path class="cls-5" d="M11.93636,20.64229c1.02051,1.7109,6.5479,1.9643,5.7598-4.626C17.13166,11.29949,9.54576,16.62269,11.93636,20.64229Z"/><path class="cls-5" d="M29.00176,14.27849c.3506,1.9624-3.6611,5.7715-7.3818.2749C18.95887,10.61879,28.17856,9.676,29.00176,14.27849Z"/><path class="cls-6" d="M31.37587,10.42159c-1.56551-4.1963-4.80471-8.1983-9.06451-9.7447a17.13285,17.13285,0,0,1,7.3242,8.9497,9.4221,9.4221,0,0,1-2.707,10.8755,16.70066,16.70066,0,0,1,1.6191,3.1563c.3106.8369-.1787,1.7412-1.1172,2.5869-.3222-.5913-.7285-1.1763-.8261-1.1397a3.91388,3.91388,0,0,0,.1797,1.6612,13.42746,13.42746,0,0,1-1.9395,1.1606,4.97489,4.97489,0,0,0-1.123-1.748,5.0202,5.0202,0,0,0,.3164,2.1181,17.90827,17.90827,0,0,1-2.0596.7442,4.97571,4.97571,0,0,0-1.1397-1.7876,4.85553,4.85553,0,0,0,.2813,2.0117,9.823,9.823,0,0,1-3.2647.2974c2.1163,2.7099,13.6807-1.7598,12.4317-5.1104a16.78438,16.78438,0,0,0-1.62009-3.1562A9.42769,9.42769,0,0,0,31.37587,10.42159Z"/><path class="cls-4" d="M12.16487,8.30339c-.57521,1.8823-1.81831,3.1719-2.77731,2.8813-.959-.2924-1.2715-2.0581-.6983-3.9433.5752-1.8819,1.8174-3.1724,2.7774-2.8794C12.42466,4.654,12.73906,6.41669,12.16487,8.30339Z"/><path class="cls-4" d="M10.26256,12.97969a1.35348,1.35348,0,1,1-1.7324-.813A1.35753,1.35753,0,0,1,10.26256,12.97969Z"/></g></g></g></svg>