<svg xmlns="http://www.w3.org/2000/svg" viewBox="0 0 139.04468 151.40648"><defs><style>.cls-1{fill:#6fc1ef;}.cls-1,.cls-2,.cls-3,.cls-4,.cls-5,.cls-6,.cls-7{fill-rule:evenodd;}.cls-2{fill:#7bc5f8;}.cls-3{fill:#c2ecff;}.cls-4{fill:#9cdcff;}.cls-5{fill:#e1f7ff;}.cls-6{fill:#60a7c6;}.cls-7{fill:#afe5f9;}.cls-8{fill:#fff;}</style></defs><title>twitter color</title><g id="Layer_2" data-name="Layer 2"><g id="OBJECTS"><path class="cls-1" d="M50.08219,149.12766c-8.627-12.2368-29.6221-7.4404-34.4248-24.9678-1.9805-2.9736-5.2432-4.7719-7.1094-7.8965-2.8506-4.8183-3.9199-10.1547,1.3438-13.1782,7.4082-4.2597,11.7822-.5947,13.1298,7.1358,1.6827-7.0127-1.1093-13.648-3.2138-20.3941-6.7471-21.6831,7.0693-52.9282,27.9004-62.7895,1.8867-.8946,4.1845-.0308,6.1005,1.0161,8.0987,10.9961-1.11519,20.0703-3.3886,29.9155-2.5225,10.8799-8.3174,22.5772,6.6523,29.3433,14.5127,6.5522,31.7715.747,38.5235-12.9908,7.0449-14.3256-1.9708-22.664-11.9561-30.3535-9.0059-6.9399-22.1201-6.3579-29.7109-16.0107,2.0048-13.313,11.7304-12.3355,21.09761-10.9302,29.17579,4.3814,50.585,33.0342,47.89849,63.7051-1.8213,20.9038-30.1749,39.6997-61.2403,40.1108,8.7363,6.3477,15.9297,13.0288,10.55281,24.7193C65.131,148.554,58.53039,154.57106,50.08219,149.12766Z"/><path class="cls-2" d="M71.61929,144.49336c-1.4766-16.6924-12.25879-22.7251-27.6221-22.5234.8506-9.5171,7.1641-7.6538,11.1104-6.2481,10.9941,3.9351,22.6904,1.2535,30.8506-3.185,14.6621-7.9883,34.8974-14.9947,31.6416-37.8013-5.0938-35.5434-22.7911-53.8662-49.503-54.2085-6.5078-.0806-10.875,2.6519-13.5967,8.4058h0c-25.0908,12.917-35.8369,37.8213-27.121,62.6523a21.69139,21.69139,0,0,1,1.2187,6.1861c.1904,4.2001.0606,8.4111.0606,12.3183-8.045,4.0786-11.0547-9.8765-16.6026-4.8286-7.0547,6.4106,3.4629,12.2397,3.6074,18.8931-17.7763-4.7564-17.9218-16.7119-12.622-30.9019,6.8564-11.9697,10.1445-24.7519,8.7461-38.5923,1.07521-1.5317,2.1406-3.0727,3.2099-4.6113,10.3076-8.1773,10.6602-22.3071,18.9209-31.731,15.1299-8.9565,32.711-10.479,49.0108-10.8896,17.9804-.4512,29.3945,14.8232,39.7168,28.6074,9.3593,22.2017,16.7529,44.5684,5.0761,68.3521-15.2656,13.831-32.1904,25.5976-48.1269,38.6181C77.18669,144.80146,74.72959,146.47576,71.61929,144.49336Z"/><path class="cls-3" d="M123.1925,101.87176c13.90139-9.6591,4.31349-22.8779,4.11139-34.0698-.1905-10.1372-5.48339-20.1894-8.5245-30.2812-2.5947-9.7173-8.958-18.8911-4.25289-29.6499,2.85549-.1114,5.71679-.211,8.58789-.3238,10.1094,14.107,5.4678,32.2642,12.9356,47.1035,8.1679,21.3536-3.1504,42.3472-1.4239,63.6929.4092,5.1714-7.51659,5.44-11.915,7.1392-8.458,3.2636-16.4492,5.1889-20.0449,16.1645-2.7471,8.4019-42.1553,12.711-52.5791,7.4805q10.7622-2.3115,21.5322-4.6343,2.19435-1.9782,4.3789-3.9653C94.30679,133.11986,106.16809,123.40256,123.1925,101.87176Z"/><path class="cls-4" d="M114.5265,7.87086c6.16989,9.1933,3.92379,19.6103,4.25289,29.6499C100.66519,16.846,81.57529.47536,51.8585,17.81276c-5.041,2.9462-12.43351,1.8291-18.73731,2.5952q-.8877-.9222-1.7724-1.8379c-.8701-2.6216-.5654-4.938,1.7881-6.6992,8.0244-8.5757,16.7158-14.2222,28.68161-7.0948,6.39259,3.814,12.09469-.102,18.30859-1.3486C91.78039,1.10666,104.56659-4.83624,114.5265,7.87086Z"/><path class="cls-5" d="M136.05,54.65056c-12.56249-13.4384-11.6973-30.562-12.9356-47.1035,13.2832-.6299,16.5137,6.0972,14.5957,18.2666C136.21889,35.27366,136.53729,45.02316,136.05,54.65056Z"/><path class="cls-4" d="M11.78729,54.65986c6.9248,19.6944,3.53221,34.6719-8.7461,38.5923C-3.71081,78.20046,10.1515,67.81466,11.78729,54.65986Z"/><path class="cls-4" d="M33.12119,20.408c-1.4375,12.686-3.7519,24.8462-18.1201,29.6406.23441-9.5576,5.543-17.2344,9.4239-25.4468,2.4228-2.2368,3.6513-6.7705,8.4628-4.3906Z"/><path class="cls-3" d="M32.88779,20.21116c-2.8261,1.4663-5.6464,2.9214-8.4628,4.3906.0449-6.2051-.2588-12.6445,8.7119-12.7309C33.05679,14.655,32.96689,17.43286,32.88779,20.21116Z"/><path class="cls-6" d="M54.50009,28.93286c10.2549-.1421,19.542,3.6426,28.3936,8.0097,19.1953,9.4888,26.4297,26.729,17.8516,40.8321C89.33709,96.54906,63.008,103.59636,47.3,90.65056c-10.2823-8.4697-6.3477-20.8388-3.2081-31.6972,2.9405-10.1616,6.8995-20.0303,10.4082-30.0205Z"/><path class="cls-7" d="M123.1925,101.87176c-10.57611,19.1675-21.88471,37.4634-47.19431,38.6563Q99.60416,121.20536,123.1925,101.87176Z"/><polygon class="cls-8" points="112.748 45.171 112.748 45.171 112.748 45.171 112.748 45.171"/><path class="cls-8" d="M109.34,54.013a11.605,11.605,0,0,1-3.3682.4404l.0606-.3574c1.7539-1.4048,6.1767-5.712,6.7597-7.7261.2549-.8706-.0439-1.1714-.0459-1.1992l-5.6494,2.3984-4.7265,2.1323h0a18.85715,18.85715,0,0,0-13.7246-5.6548c-9.82619,0-17.794,6.961-17.794,15.5503a23.13516,23.13516,0,0,0,.7266,5.8677c0,.4492.0176-.4521,0,0-6.3282-.1743-14.4375-2.769-21.6602-6.4287C35.671,51.81666,34.7785,46.82006,34.7785,46.82006c-2.23831,2.376-3.39261,10.2427-1.125,16.4136,1.45409,3.9472,6.44529,7.4926,6.44529,7.4926h0a15.18635,15.18635,0,0,1-4.57129-.749,10.12872,10.12872,0,0,1-3.22271-1.5742c-1.3886,3.3901,1.4004,9.4453,6.22171,13.7891,2.80859,2.5332,7.94039,4.1206,7.94039,4.1206l-8.0166.2265c-.4521,7.793,16.3418,12.4224,16.3418,12.4224h0a27.443,27.443,0,0,1-16.7539,6.0908,31.96521,31.96521,0,0,1-9.1494-1.3418c8.0879,6.6646,18.4844,11.2651,29.7862,10.6714,29.9882-1.5757,46.9169-27.353,47.7216-52.6685l.0381.0528a21.10253,21.10253,0,0,0,4.4102-3.7061,31.006,31.006,0,0,0,4.8711-6.5195S111.22479,53.49386,109.34,54.013Z"/><path class="cls-8" d="M112.74819,45.17066c.0195.4785,0,.0473,0,0Z"/></g></g></svg>