<svg xmlns="http://www.w3.org/2000/svg" viewBox="0 0 64.38774 65.21202"><defs><style>.cls-1{isolation:isolate;}.cls-2{fill:#323333;}.cls-3,.cls-6{fill:#d2d3d5;}.cls-4,.cls-6{mix-blend-mode:multiply;}.cls-5{fill:#fff;mix-blend-mode:screen;}.cls-7{fill:#e8503c;}.cls-8{fill:#3c3c3c;}</style></defs><title>vampire</title><g class="cls-1"><g id="Layer_2" data-name="Layer 2"><g id="Layer_1-2" data-name="Layer 1"><path class="cls-2" d="M64.30906,37.12022c-1.7276-4.3633-17.2627-8.0747-32.1104-8.0747H32.189c-14.8467,0-30.3828,3.7114-32.1104,8.0747-1.2861,3.252,13.6231,5.5464,15.0996,12.5093,1.4766,6.9639-4.2861,9.563-1.9189,11.252,2.3662,1.687,11.9209,3.4536,18.9297,3.4545h.0097c7.0088-.0009,16.5635-1.7675,18.9297-3.4545,2.3672-1.689-3.39548-4.2881-1.9189-11.252C50.686,42.66662,65.59616,40.37222,64.30906,37.12022Z"/><path class="cls-3" d="M7.25146,21.46352c-.3399.9878,4.333,15.5391,5.3857,15.6943s3.9922-7.3833,1.8076-11.5752C12.72406,22.28142,7.74656,20.00942,7.25146,21.46352Z"/><path class="cls-3" d="M57.145,21.46352c.3408.9878-4.333,15.5391-5.3857,15.6943-1.0537.1553-3.9922-7.3833-1.8086-11.5752C51.67326,22.28142,56.65188,20.00942,57.145,21.46352Z"/><path class="cls-3" d="M43.94676,46.45132c0-6.4903-23.50288-6.4903-23.50288,0,0,10.958.956,18.7607,11.75,18.7607S43.94676,57.19932,43.94676,46.45132Z"/><path class="cls-3" d="M52.00826,35.89422c0,12.1801-11.1299,18.0234-19.8105,18.0234s-19.8135-5.8433-19.8135-18.0234c0-12.1797,4.7012-29.4458,19.8135-29.4458C47.311,6.44842,52.00826,23.71452,52.00826,35.89422Z"/><g class="cls-4"><path class="cls-3" d="M57.145,21.46352c-.291-.8574-2.1367-.4155-3.95508.7641-1.14552,4.1919-1.31442,9.6045-2.29982,10.7837-.3535,6.2671-6.0068,12.4864-10.375,15.2574-.3505,8.6435-2.2998,14.7016-11.6836,14.7016a14.41705,14.41705,0,0,1-5.09858-.8164c1.75,1.9541,4.41018,3.0581,8.461,3.0581,9.38368,0,11.333-6.0576,11.68258-14.7011a16.74992,16.74992,0,0,0,8.0996-13.523C53.33636,35.36192,57.46436,22.39322,57.145,21.46352Z"/></g><path class="cls-5" d="M20.93206,21.73252c-1.2304,1.6104-2.8945,2.4068-3.7129,1.7813-.8212-.6299-.4882-2.4409.7432-4.0513,1.2324-1.6108,2.89652-2.4082,3.7149-1.7808C22.49846,18.30922,22.16356,20.12322,20.93206,21.73252Z"/><path class="cls-5" d="M17.41546,25.56112a1.39314,1.39314,0,1,1-1.3769-1.4096A1.39311,1.39311,0,0,1,17.41546,25.56112Z"/><path class="cls-6" d="M28.729,37.692c0-2.394,1.1387-2.394,1.1387,0s-.1983,8.043-.5684,8.043C28.93016,45.735,28.729,40.086,28.729,37.692Z"/><path class="cls-7" d="M29.58056,36.10262c-.3262-.8481-11.55468-7.9179-12.3418-7.4321-.7862.4849,1.4668,7.1392,5.2597,8.7066C25.48488,38.61242,30.063,37.34292,29.58056,36.10262Z"/><path class="cls-6" d="M35.67326,37.692c0-2.394-1.1396-2.394-1.1396,0s.20022,8.043.5703,8.043S35.67326,40.086,35.67326,37.692Z"/><path class="cls-7" d="M34.82276,36.10262c.32612-.8481,11.5537-7.9179,12.3408-7.4321.7861.4849-1.4668,7.1392-5.2588,8.7066C38.91846,38.61242,34.34026,37.34292,34.82276,36.10262Z"/><path class="cls-8" d="M32.20066,49.74132a4.856,4.856,0,0,1-2.6846-1.4673c.8965,1.4424,1.9756,2.5879,2.6836,2.5879.709,0,1.78522-1.1421,2.6817-2.5815A4.85229,4.85229,0,0,1,32.20066,49.74132Z"/><path class="cls-8" d="M32.20646,54.64372a29.31243,29.31243,0,0,1-7.8271-1.4663c2.6172,1.4433,5.7568,2.5874,7.8242,2.5874,2.0625,0,5.2022-1.1421,7.8145-2.5816A29.27392,29.27392,0,0,1,32.20646,54.64372Z"/><path class="cls-8" d="M35.72506,54.46932a7.96164,7.96164,0,0,0,.5996,3.0914,7.927,7.927,0,0,0,.6026-3.0914Z"/><path class="cls-8" d="M27.47406,54.46932a7.95125,7.95125,0,0,0,.6016,3.0914,7.95125,7.95125,0,0,0,.6016-3.0914Z"/><path class="cls-8" d="M21.17816,16.45232c4.7393,0,8.7803,7.4301,11.0225,7.4301,2.2441,0,6.2851-7.4301,11.0254-7.4301,7.3935,0,7.5596,10.4941,7.664,16.559,2.5372-5.1059,2.9375-14.667,2.9375-24.0498,0-11.9487-43.2646-11.9487-43.2646,0,0,9.5796.4004,19.1538,2.9473,24.2207C13.57076,27.10362,13.71526,16.45232,21.17816,16.45232Z"/></g></g></g></svg>