<svg xmlns="http://www.w3.org/2000/svg" viewBox="0 0 68.85912 68.54254"><defs><style>.cls-1{isolation:isolate;}.cls-2,.cls-5,.cls-6{fill:#3c3c3c;}.cls-3{fill:#fff;}.cls-4{fill:#323232;}.cls-5{opacity:0.2;mix-blend-mode:multiply;}.cls-6{opacity:0.4;mix-blend-mode:screen;}.cls-7{fill:#e8503c;}</style></defs><title>web</title><g class="cls-1"><g id="Layer_2" data-name="Layer 2"><g id="Layer_1-2" data-name="Layer 1"><path class="cls-2" d="M57.97794,60.40928c1.41111-1.3604,2.4726-3.6563,1.664-5.7188-.1797-.4629-.3017-.7676-2.4678-3.1494,1.8907-4.6289,4.8252-12.292,6.2715-16.6094,2.9082-.7246,3.4707-1.0439,4.0303-1.5849a2.57859,2.57859,0,0,0,.1865-.1993,5.45447,5.45447,0,0,0,.8965-5.2656,5.16185,5.16185,0,0,0-3.456-3.6641c-.4864-.125-.8614-.1777-2.9493.1114-2.4238-3.7852-6.8994-10.5371-10.0068-14.8828,1.4824-3.7207,1.53421-4.4121,1.3203-5.3086a5.44438,5.44438,0,0,0-3.7529-3.7989,5.16328,5.16328,0,0,0-4.99119.668c-.04891.0391-.10161.0879-.14751.1309-.3672.3535-.64349.6884-1.8769,3.166-6.4571,1.4922-19.6377,4.8594-25.585,6.6396-1.9297-1.7275-2.5928-2.0791-3.5742-2.1318a5.145,5.145,0,0,0-3.7949,1.5547c-1.5274,1.4687-2.6622,3.9902-1.5518,6.0576.1748.3281.2637.4951,2.23731,2.623-1.42871,4.1094-3.86131,11.7862-5.07321,16.2706-2.9873.7421-3.5303,1.0488-4.087,1.5878a3.08244,3.08244,0,0,0-.2714.295,5.64378,5.64378,0,0,0-.48439,5.6132,4.67632,4.67632,0,0,0,3.582,3.1534c.39159.0517.59569.0771,3.31739-.3584,2.7061,4.0976,7.6973,11.2646,10.3623,14.6523-1.1191,2.918-1.1621,3.544-.9014,4.4375a5.5336,5.5336,0,0,0,4.0801,3.6113,4.82512,4.82512,0,0,0,4.7041-.8828s.10351-.1035.1387-.1425a7.54035,7.54035,0,0,0,1.25-2.1739c4.8164-1.1103,16.5762-4.2715,22.4453-6.082,2.77151,2.5644,3.4072,2.8398,4.3613,2.9326A5.21068,5.21068,0,0,0,57.97794,60.40928Z"/><path class="cls-3" d="M23.71524,65.35258c.0937-.0996.58781-1.084,1.38081-2.7266,3.417-.6562,19.52049-4.9511,25.125-6.8125,2.15329,2.044,3.583,3.2862,3.90429,3.3184,1.7744.1699,3.3203-2.2568,2.8701-3.4043a36.67468,36.67468,0,0,0-3.1435-3.5996c2.001-4.7275,6.16011-15.5605,7.3789-19.5869a18.60692,18.60692,0,0,0,4.28321-1.2529c1.17089-1.3438.09179-4.0157-1.10351-4.3145a23.96035,23.96035,0,0,0-3.666.4395c-2.2061-3.543-8.48049-13.0323-11.8233-17.5752,1.1777-2.8741,1.8555-4.7315,1.7822-5.042-.4091-1.7344-3.206-2.416-4.14839-1.6192a28.1797,28.1797,0,0,0-1.90531,3.5977c-6.1748,1.3691-23.2392,5.7187-28.248,7.3662a15.865,15.865,0,0,0-3.0088-2.4902c-1.62789-.0762-3.2246,2.4443-2.6983,3.4267.085.1563,1.1905,1.3692,2.9942,3.2988-1.38379,3.6895-4.9766,14.9874-6.0059,19.3038a20.86,20.86,0,0,0-4.4541,1.2841c-1.00579,1.2784.11721,4.045,1.2237,4.1836.1728.0235,1.76751-.2168,4.332-.6484,2.7441,4.3232,10.2998,15.1328,12.248,17.2393a20.26189,20.26189,0,0,0-1.4287,4.1669C20.05405,65.46878,22.95544,66.169,23.71524,65.35258Zm-11.5254-23.4297c1.2871-.2226,2.70021-.4707,4.2099-.7383a103.07709,103.07709,0,0,0,7.5576,11.5166c-.6005,1.4131-1.1572,2.7334-1.6572,3.9366C20.10094,53.24128,15.16834,45.94048,12.18984,41.92288Zm17.8613-3.2031c-.4795,1.0742-.9473,2.1416-1.41209,3.1953-.52251-.8418-1.11721-1.7637-1.70221-2.623Q28.47359,39.00633,30.05114,38.71978Zm-5.1836-4.6729c.3701-.8974.748-1.8974,1.06051-2.8134q1.04308,1.08105,2.10939,2.1875Q26.432,33.73733,24.86754,34.04688Zm5.93751-5.746c1.44039-.3467,2.98539-.7383,4.40429-1.1221q-.85693,1.9014-1.7246,3.832Q32.13714,29.64413,30.80505,28.30088Zm10.23439-.336c.7002.8838,1.4385,1.7803,2.1152,2.5567-1.168.2177-2.3613.4443-3.5664.6699Q40.32354,29.564,41.03944,27.96488Zm1.4785,8.4092c-.3555.958-.707,1.9561-.9883,2.8574-.7217-.7422-1.4541-1.4951-2.1894-2.251C40.40754,36.77638,41.46914,36.57328,42.51794,36.37408Zm-5.5215,6.2637c-.9453.2373-1.9873.5166-2.9726.8105q.5961-1.3008,1.2001-2.626C35.81674,41.43068,36.41244,42.03618,36.99644,42.63778Zm-11.6768,6.8945c-1.3789-2.374-3.8505-6.4297-5.5878-8.9385q1.7856-.31785,3.6826-.664a52.257,52.257,0,0,0,3.7539,5.3388C26.52674,46.73638,25.90754,48.16508,25.31964,49.53228Zm-6.9267-14.1719c.91411-2.4521,2.2109-6.1426,3.0176-8.8369.664.6943,1.3486,1.4072,2.0439,2.1358a40.24512,40.24512,0,0,0-2.1611,6.1074Q19.8079,35.06833,18.39294,35.36038Zm6.7334-12.75c3.9414-.8594,9.8799-2.2344,13.6465-3.2715-.6006,1.3067-1.21579,2.6573-1.84279,4.0411-2.38281.5312-5.99511,1.4648-8.74321,2.2861Q26.61366,24.09138,25.12634,22.61038Zm18.8642-1.2832c1.7999,2.4121,4.31651,5.6846,6.18751,7.9043-1.12011.2041-2.28121.4131-3.47461.6328-.8701-1.2383-2.6406-3.455-4.18939-5.205Q43.27274,22.95408,43.99054,21.32718Zm6.4942,13.4863c-1.1094,2.8018-2.624,6.795-3.6836,9.875-.8965-.9335-1.832-1.9042-2.793-2.8994a54.01542,54.01542,0,0,0,2.1778-6.1259Q48.40654,35.22953,50.48474,34.81348Zm-7.8838,13.501c-3.3184.7979-8.8691,2.2354-12.3438,3.3164q.9639-2.0829,2.004-4.3408a53.00467,53.00467,0,0,0,7.2246-2.1211C40.55305,46.251,41.59605,47.30378,42.60094,48.31448Zm-26.4971-27.372c.8711.9218,1.8233,1.9238,2.8418,2.9921a119.71767,119.71767,0,0,0-3.9287,12.127c-1.4375.3037-2.7822.5918-4.0146.8613C12.42805,32.80478,14.91344,25.251,16.10384,20.94248Zm26.7989-10.5137c-.751,1.5937-1.5879,3.3906-2.4893,5.3418-3.1836.5644-13.1436,2.9375-17.81839,4.3379-1.35741-1.335-2.61231-2.5625-3.73821-3.6426C24.31384,15.20418,36.17714,12.30088,42.90274,10.42878Zm14.4511,17.541c-1.1172.1914-2.3437.4023-3.6484.6309-1.5879-2.4356-5.5527-8.0332-8.0283-11.126.5693-1.3057,1.1045-2.5459,1.5967-3.7022C50.03254,17.81348,54.55305,24.31158,57.35384,27.96978Zm-5.8886,21.6084q-1.02255-1.08105-2.1807-2.2979c1.4316-3.5742,3.7139-9.871,4.6836-13.1718,1.3721-.2842,2.664-.5528,3.8467-.8076C56.12144,37.38968,53.12924,44.89268,51.46524,49.57818Zm-24.6661,9.4687c.5362-1.1435,1.12991-2.413,1.7696-3.7832a164.552,164.552,0,0,0,16.4355-4.5459q1.4619,1.456,2.7539,2.7178C42.38705,54.755,32.05605,57.43558,26.79914,59.04688Z"/><path class="cls-4" d="M54.08044,59.60258c-.2559-.0244-.6055-.0576-3.9805-3.251-5.584,1.8223-20.7597,5.8936-24.6806,6.6924a13.56982,13.56982,0,0,1-1.40429,2.6778h0a2.711,2.711,0,0,1-2.44931.2988,3.322,3.322,0,0,1-2.4169-1.9824c-.0635-.2168-.1407-.4825,1.3369-4.2032-2.1924-2.5215-9.0889-12.375-11.93269-16.8154a27.0298,27.0298,0,0,1-4.16011.5967c-.6533-.082-1.2832-.7188-1.6885-1.7012a3.339,3.339,0,0,1,.21-3.3057c.1465-.1435.3935-.3818,4.376-1.3251,1.1025-4.4776,4.4599-15.0098,5.8535-18.7989a31.99745,31.99745,0,0,1-2.8653-3.1836c-.4795-.8906.1866-2.3427,1.1075-3.2304a2.81773,2.81773,0,0,1,2.0283-.8936c.2363.0117.5.0244,3.1035,2.4287,5.2578-1.6894,21.46-5.8222,27.8066-7.2441,1.56551-3.2041,1.8116-3.4121,1.9258-3.5469a2.944,2.944,0,0,1,2.72271-.2285,3.11892,3.11892,0,0,1,2.19139,2.0996c.0547.2305.1377.5732-1.7041,5.0859,3.3154,4.5293,9.26171,13.5274,11.5195,17.125,3.1494-.4863,3.3867-.4248,3.5459-.3828a2.94356,2.94356,0,0,1,1.7754,2.0762,3.135,3.135,0,0,1-.4688,3.0508c-.1552.1494-.413.3984-4.2304,1.2988-1.3057,4.2051-5.2227,14.3945-7.1924,19.0908,2.8584,3.0879,2.9678,3.3701,3.0283,3.5244a3.26059,3.26059,0,0,1-1.1045,3.1485A2.87241,2.87241,0,0,1,54.08044,59.60258Zm7.042-27.5234a25.03647,25.03647,0,0,0,4.0361-1.1016,2.2044,2.2044,0,0,0,.2363-2.1035,2.13778,2.13778,0,0,0-1.0742-1.4365,25.31665,25.31665,0,0,0-3.5039.4443l-.3096.0479-.1669-.2647c-2.1416-3.4433-8.45119-12.9971-11.7998-17.5449l-.1563-.2139.0996-.2451a31.77374,31.77374,0,0,0,1.7588-4.7559,2.19815,2.19815,0,0,0-1.5664-1.4199,2.15411,2.15411,0,0,0-1.791.0293,28.432,28.432,0,0,0-1.8086,3.4678l-.1006.2051-.2227.0498c-6.2734,1.3916-23.2158,5.7129-28.205,7.3535l-.2647.0879-.2051-.1904a33.50971,33.50971,0,0,0-2.7089-2.3643,1.89753,1.89753,0,0,0-1.3262.6289c-.751.7246-1.1231,1.7422-.9424,2.0801.0596.0879.4629.5762,2.9336,3.2207l.2002.2129-.1035.2744c-1.3428,3.582-4.9444,14.8701-5.9883,19.2461l-.0664.2861-.2842.0664a36.65983,36.65983,0,0,0-4.1904,1.1172,2.49982,2.49982,0,0,0-.0215,2.2988c.2851.6875.6914,1.0938.9023,1.1192.0889,0,.65431-.044,4.2227-.6416l.3115-.0518.167.2647c2.7324,4.3056,10.292,15.1123,12.1963,17.1689l.2061.2207-.11329.2774a35.24711,35.24711,0,0,0-1.41311,3.8613,2.37506,2.37506,0,0,0,1.751,1.331,1.95294,1.95294,0,0,0,1.5332-.0498c.0488-.0703.2793-.4668,1.3252-2.6357l.1045-.2158.2343-.0449c3.543-.6778,19.626-4.9903,25.0625-6.7959l.2725-.0889.2051.1963a28.37594,28.37594,0,0,0,3.622,3.1885,2.02612,2.02612,0,0,0,1.5069-.6368,2.47648,2.47648,0,0,0,.8857-2.1035,34.932,34.932,0,0,0-3.0576-3.4678l-.207-.2236.1191-.2832c1.96-4.6328,6.1231-15.4551,7.3584-19.54l.0801-.2637Zm-13.252,21.8174c-5.3759,1.3193-15.749,4.0156-20.9336,5.6025l-1.0224.3144.4541-.9667c.5371-1.1446,1.1318-2.4131,1.76851-3.7833l.10749-.2255.2451-.042a163.29091,163.29091,0,0,0,16.3506-4.5215l.2851-.1045.2139.2129c.9726.9678,1.8926,1.876,2.75,2.7158l.6094.5957Zm-18.9785,1.79c-.4267.916-.833,1.7861-1.21389,2.6016,5.16219-1.5313,13.93459-3.8164,19.14159-5.1075q-.92565-.9111-1.9375-1.916C41.15854,52.59188,31.76205,55.14748,28.89194,55.68658Zm22.2276-5.7832c-.6788-.7207-1.4102-1.4873-2.1797-2.2949l-.209-.2207.1133-.2842c1.4355-3.5811,3.707-9.8545,4.66891-13.1299l.08109-.2734.2773-.0567c1.3701-.2812,2.6621-.5527,3.8428-.8066l.88281-.1885-.34571.833c-1.5332,3.7012-4.6104,11.3867-6.3399,16.2559l-.2617.7304Zm3.2207-15.3906c-.9844,3.2783-3.0967,9.1211-4.5049,12.6611.501.5264.9814,1.0313,1.4433,1.5205,1.6416-4.5371,4.2217-11.0088,5.7559-14.7422C56.18105,34.13388,55.28064,34.31938,54.34024,34.51278Zm-7.8809,10.5029c-.8945-.9346-1.8311-1.9033-2.792-2.8975l-.2227-.2304.1319-.293a53.78308,53.78308,0,0,0,2.1533-6.0605l.083-.2793.28321-.0567c1.47849-.2881,2.91409-.5713,4.29689-.8496l.8545-.1728-.3223.8115c-1.0058,2.5429-2.5742,6.6484-3.6748,9.8545l-.2519.7324Zm.1016-8.9424a56.78323,56.78323,0,0,1-1.9922,5.6133q1.0458,1.08405,2.039,2.1152c.9659-2.7578,2.19931-6.0097,3.1192-8.3554Q48.18149,35.75388,46.56094,36.07328Zm-3.8487,12.7031c-2.9648.711-8.6894,2.1797-12.3134,3.3067l-1.0196.3164.4492-.9688c.64161-1.3847,1.30961-2.8369,2.002-4.3398l.1025-.2188.2364-.0478a52.15261,52.15261,0,0,0,7.1425-2.0967l.2911-.1133.2177.2207c1.06941,1.084,2.1133,2.1368,3.1172,3.1446l.5928.5996Zm-10.122-1.0703q-.74865,1.6245-1.459,3.166c3.29-.9814,7.7207-2.1269,10.5429-2.8203-.7519-.7558-1.5244-1.5351-2.3086-2.33A55.47811,55.47811,0,0,1,32.59024,47.70608Zm24.8427-19.2695c-1.1152.1904-2.3398.4023-3.6484.6328l-.3076.0537-.16989-.2617c-1.51761-2.3311-5.47861-7.9424-7.99911-11.0918l-.1787-.2236.1143-.2617c.5703-1.3047,1.10151-2.543,1.5947-3.6973l.3389-.7969.4902.7158c3.1231,4.5782,7.4063,10.7071,10.0615,14.1758l.4766.624Zm-11.207-11.0361c2.4482,3.0918,6.1074,8.2607,7.70311,10.6806q1.35494-.2358,2.57619-.4453c-2.5381-3.3652-6.2451-8.6601-9.1348-12.8838C47.00714,15.59678,46.62634,16.48348,46.22594,17.40048Zm-5.0371,22.1591q-1.08255-1.11315-2.1885-2.2461l-.6172-.6318,4.8711-.9307-.2929.7872c-.3838,1.0293-.7217,2.0097-.9825,2.8339l-.2363.7598Zm-.8965-2.2773c.3438.3516.6875.7051,1.0293,1.0547.1416-.4258.2959-.875.4639-1.3418Zm-3.1797,5.8145c-1.0478.2617-2.0693.541-2.9541.8046l-1.0029.3008,1.9238-4.206,2.833,2.8994Zm-2.2305-.3907c.3897-.1084.792-.2177,1.2042-.3242l-.7178-.7353Zm-12.9794,14.1905c-2.2471-3.4698-7.1338-10.6983-10.09569-14.6924l-.45711-.6172.7578-.1309c1.2881-.2226,2.69931-.4707,4.208-.7363l.334-.0605.1641.2988a104.2696,104.2696,0,0,0,7.49121,11.4228l.208.2256-.11821.2793c-.6005,1.4141-1.1572,2.7305-1.6572,3.9356l-.3457.83ZM16.14974,41.71c-1.0976.1953-2.1435.378-3.125.5489,2.78231,3.8086,6.8965,9.8759,9.1826,13.3701q.5625-1.3404,1.1993-2.8389A109.97834,109.97834,0,0,1,16.14974,41.71Zm30.3418-11.3232-.1748-.25c-.9092-1.293-2.6963-3.5127-4.1592-5.1631l-.2021-.2285.126-.2774c.5049-1.1376.997-2.2519,1.47361-3.3339l.33009-.7422.4834.6523c.8603,1.1524,3.8486,5.1279,6.1709,7.8838l.5273.624Zm-3.4219-5.8115c1.3487,1.539,2.9258,3.4931,3.8448,4.7715l2.3789-.4366c-1.9004-2.3017-4.0889-5.1767-5.19729-6.6533Q43.59219,23.39808,43.06964,24.57528Zm-18.1611,25.1933c-1.248-2.1504-3.7597-6.2978-5.5654-8.9062l-.4209-.6055.7275-.1289c1.1875-.2129,2.417-.4355,3.6807-.6621l.3174-.0606.1689.2764a52.30055,52.30055,0,0,0,3.7129,5.2822l.1895.2237-.1162.2685c-.6397,1.4688-1.2608,2.8965-1.8506,4.2627l-.3702.8643Zm-1.72649-9.3154q-1.34926.24465-2.64561.4775c1.5567,2.3086,3.4844,5.461,4.7178,7.5547.4414-1.0176.8965-2.0683,1.3643-3.1386A54.44126,54.44126,0,0,1,23.18205,40.45318Zm15.60149-8.6299,2.1426-4.7637.4824.6114c.7803.9804,1.4883,1.8349,2.10351,2.54l.54689.626Zm1.6084-1.2656,1.8692-.3486c-.3467-.4112-.7188-.8604-1.1075-1.3428Zm-12.1543,11.6055c-.55559-.8926-1.14159-1.794-1.6943-2.6055l-.4092-.6016,4.7148-.8662-.3662.8223q-.66645,1.5015-1.3154,2.9785l-.456,1.0361Zm-.5049-2.5372c.2754.4161.5547.8458.8321,1.2803.2295-.5166.457-1.0361.6875-1.5586Zm2.1446-11.5878.8173-.1973c1.4346-.3477,2.9747-.7383,4.3907-1.1191l.9668-.2618-.4112.9141q-.8583,1.8984-1.7246,3.8311l-.2812.6318Zm1.8525.5244,1.6055,1.624q.51707-1.1514,1.0332-2.293C33.49844,28.12118,32.60294,28.34768,31.72984,28.56258Zm-7.63479,6.1201.335-.8164c.37889-.9248.752-1.9121,1.05079-2.7852l.248-.7353,3.253,3.3701Zm1.53909-1.2715,1.459-.2871-.9707-1.0098C25.96714,32.53818,25.80305,32.97658,25.63414,33.41118Zm11.3965-9.5703c-2.5108.5605-6.0928,1.4961-8.708,2.2793l-.2715.082-.2002-.2021c-1.04689-1.0498-2.0713-2.0703-3.0596-3.0528l-.6152-.6142.8496-.1856c3.9004-.8506,9.8086-2.2158,13.6211-3.2656l.9785-.2695-.4238.9238c-.5977,1.3057-1.2139,2.6563-1.8418,4.0391l-.09769.2158Zm-10.9541-.9531c.73051.7285,1.4814,1.4795,2.2461,2.2441,2.5263-.7461,5.8447-1.6152,8.27341-2.1621q.67094-1.484,1.32419-2.9102C34.40364,20.99318,29.61754,22.10548,26.07654,22.88778Zm-4.68849,12.3437q-1.48531.3018-2.89941.5918l-.8398.1729.2988-.8028c.8691-2.334,2.1806-6.041,3.0097-8.8066l.2325-.7783,2.832,2.955-.1367.294a40.44087,40.44087,0,0,0-2.1319,6.0195l-.0693.293Zm.23929-7.7969c-.7344,2.3575-1.7256,5.1895-2.4952,7.2911.5821-.1211,1.17491-.2403,1.7735-.3653a42.31233,42.31233,0,0,1,1.9863-5.6054Zm18.8691-11.1972c-3.3066.5869-13.23139,2.9648-17.7637,4.3252l-.2705.081-.20019-.1972c-1.35351-1.336-2.60741-2.5586-3.73141-3.6387l-.6318-.6055.8525-.1972c5.6973-1.3184,17.5332-4.2247,24.0254-6.0332l.9971-.2774-.4405.9356c-.7519,1.5927-1.5898,3.3886-2.4912,5.3398l-.1016.2236Zm-20.6816.4922c.9023.8711,1.8789,1.8242,2.914,2.8447,4.5606-1.3447,13.8809-3.5811,17.3565-4.2256.6933-1.4961,1.34571-2.9023,1.9502-4.1885C35.65174,12.90338,25.57554,15.38288,19.81484,16.72958Zm-4.7012,19.7949c-1.43359.3027-2.7793.5928-4.0107.8633l-.8262.1816.27731-.7998c1.30859-3.7803,3.84869-11.4551,5.09479-15.9541l.2226-.8086.5781.6094c.8692.9228,1.8203,1.9238,2.8369,2.9922l.21.2187-.1133.2813a120.80086,120.80086,0,0,0-3.9052,12.0605l-.0684.293Zm1.2207-14.6485c-1.2207,4.2608-3.3252,10.6563-4.6094,14.4063.91411-.1992,1.8828-.4063,2.8994-.6211.7188-2.9551,2.6934-8.8516,3.7686-11.6172C17.67024,23.28428,16.98084,22.55958,16.33434,21.876Z"/><path class="cls-5" d="M46.34705,33.96978a.677.677,0,0,0-.85061-.0791,24.87994,24.87994,0,0,0-4.5351-.834c1.09271-1.2656,4.288-5.4092,3.7158-5.9814-.0948-.0948-.295-.0772-.5557.0078-.5312-.5078-5.5488-5.0332-5.8506-4.7315-.2656.2657,3.209,4.1846,4.3946,5.4854a39.70428,39.70428,0,0,0-3.7872,2.7969,3.248,3.248,0,0,0,.1573-.9541,3.295,3.295,0,1,0-6.5899,0,3.24834,3.24834,0,0,0,.1573.9541,39.70428,39.70428,0,0,0-3.7872-2.7969c1.1856-1.3008,4.6602-5.2197,4.3946-5.4854-.3018-.3017-5.3194,4.2237-5.8506,4.7315-.2608-.085-.4609-.1026-.55569-.0078-.57221.5722,2.62309,4.7158,3.71579,5.9814a24.87994,24.87994,0,0,0-4.5351.834.677.677,0,0,0-.8506.0791c-.2676.2676-4.3965,4.8301-4.1289,5.0977s4.8311-3.8604,5.0986-4.128c.0069-.0068.0088-.0166.0157-.0234a23.31894,23.31894,0,0,0,3.6474.6992,26.266,26.266,0,0,0-2.9941,4.2109.64012.64012,0,0,0-.5176.6231c0,.3584.29,6.1807.6494,6.1807.35841.0009.64941-5.8223.64941-6.1807,0-.0088-.00491-.0166-.00491-.0264a17.78533,17.78533,0,0,0,2.1827-1.4238,1.32272,1.32272,0,0,0-.1094.5254,26.13172,26.13172,0,0,0,.8681,5.2851.64057.64057,0,0,0,.0743.8067c.2539.2539,3.8818,3.4707,4.1347,3.2168.2549-.2529-2.9629-3.8819-3.2168-4.1358-.0068-.0068-.0146-.0078-.0214-.0146a19.01941,19.01941,0,0,0,.5751-2.8164,5.61652,5.61652,0,0,0,1.5069,1.126c.4209,1.413,1.2471,2.9619,2.1972,2.9619s1.7764-1.5489,2.1973-2.9619a5.6145,5.6145,0,0,0,1.5068-1.126,19.03137,19.03137,0,0,0,.5752,2.8164c-.00679.0068-.0146.0078-.0214.0146-.2539.2539-3.4717,3.8829-3.2168,4.1358.2529.2539,3.8808-2.9629,4.1347-3.2168a.64041.64041,0,0,0,.0742-.8067,26.126,26.126,0,0,0,.8682-5.2851,1.32272,1.32272,0,0,0-.1094-.5254,17.78461,17.78461,0,0,0,2.18271,1.4238c0,.0098-.00491.0176-.00491.0264,0,.3584.291,6.1816.6494,6.1807.3594,0,.6494-5.8223.6494-6.1807a.63913.63913,0,0,0-.5176-.6231,26.266,26.266,0,0,0-2.9941-4.2109,23.31871,23.31871,0,0,0,3.6474-.6992c.0069.0068.0088.0166.0157.0234.2675.2676,4.831,4.3955,5.0986,4.128S46.61464,34.23738,46.34705,33.96978Z"/><path class="cls-2" d="M38.03554,28.67978a3.295,3.295,0,1,1-3.295-3.295A3.29418,3.29418,0,0,1,38.03554,28.67978Z"/><path class="cls-2" d="M37.23474,40.32138c0,1.3779-1.1162,4.6328-2.4942,4.6328s-2.4941-3.2549-2.4941-4.6328a2.49415,2.49415,0,1,1,4.9883,0Z"/><path class="cls-2" d="M32.09605,30.06938a1.62416,1.62416,0,0,1-2.29691,2.2969c-.6347-.6338-4.6289-5.6572-3.99509-6.291C26.43784,25.44048,31.46134,29.43558,32.09605,30.06938Z"/><path class="cls-2" d="M27.43684,27.24618a.79274.79274,0,0,1-1.1211-1.1211c.3096-.3096,5.585-5.083,5.8946-4.7735S27.74644,26.93658,27.43684,27.24618Z"/><path class="cls-2" d="M30.56484,31.97468a1.4048,1.4048,0,0,1,0,2.8096c-.7764,0-6.291-.629-6.291-1.4053C24.27384,32.60358,29.78744,31.97468,30.56484,31.97468Z"/><path class="cls-2" d="M24.13414,32.96978a.68568.68568,0,0,1,.9697.9697c-.2675.2676-4.831,4.3955-5.0986,4.128S23.86654,33.23738,24.13414,32.96978Z"/><path class="cls-2" d="M28.89684,34.47468a1.331,1.331,0,0,1,1.8818,1.8828c-.5205.5195-4.6357,3.792-5.1552,3.2725S28.37734,34.99518,28.89684,34.47468Z"/><path class="cls-2" d="M25.25524,39.44928a.64941.64941,0,0,1,1.29881,0c0,.3584-.291,6.1816-.64941,6.1807C25.54524,45.63,25.25524,39.80768,25.25524,39.44928Z"/><path class="cls-2" d="M28.62244,38.52448a1.33055,1.33055,0,1,1,2.6611-.001c0,.7354-.5957,5.9609-1.3301,5.96C29.21814,44.48348,28.62244,39.25888,28.62244,38.52448Z"/><path class="cls-2" d="M29.56484,44.61628a.64944.64944,0,1,1,.9179-.919c.2539.2539,3.4717,3.8829,3.2168,4.1358C33.44664,48.087,29.81874,44.87018,29.56484,44.61628Z"/><path class="cls-2" d="M38.91634,31.97468a1.4048,1.4048,0,0,0,0,2.8096c.7764,0,6.291-.629,6.291-1.4053C45.20734,32.60358,39.69374,31.97468,38.91634,31.97468Z"/><path class="cls-2" d="M45.34705,32.96978a.68568.68568,0,0,0-.96971.9697c.2675.2676,4.831,4.3955,5.0986,4.128S45.61464,33.23738,45.34705,32.96978Z"/><path class="cls-2" d="M40.58434,34.47468a1.331,1.331,0,1,0-1.8818,1.8828c.52051.5195,4.6357,3.792,5.1552,3.2725S41.10384,34.99518,40.58434,34.47468Z"/><path class="cls-2" d="M44.22594,39.44928a.6494.6494,0,0,0-1.2988,0c0,.3584.291,6.1816.6494,6.1807C43.93594,45.63,44.22594,39.80768,44.22594,39.44928Z"/><path class="cls-2" d="M40.85874,38.52448a1.33055,1.33055,0,1,0-2.6611-.001c0,.7354.5957,5.9609,1.3301,5.96C40.26305,44.48348,40.85874,39.25888,40.85874,38.52448Z"/><path class="cls-2" d="M39.91634,44.61628a.64944.64944,0,1,0-.9179-.919c-.2539.2539-3.4717,3.8829-3.2168,4.1358C36.03454,48.087,39.66244,44.87018,39.91634,44.61628Z"/><path class="cls-2" d="M37.38514,30.06938a1.62416,1.62416,0,0,0,2.29691,2.2969c.63469-.6338,4.62889-5.6572,3.99509-6.291C43.04334,25.44048,38.01984,29.43558,37.38514,30.06938Z"/><path class="cls-2" d="M42.04434,27.24618a.79274.79274,0,0,0,1.1211-1.1211c-.3096-.3096-5.585-5.083-5.8946-4.7735S41.73474,26.93658,42.04434,27.24618Z"/><path class="cls-2" d="M40.41054,35.74128c0,3.7441-2.5391,6.7793-5.67,6.7793s-5.6699-3.0352-5.6699-6.7793,2.5391-6.7793,5.6699-6.7793S40.41054,31.99708,40.41054,35.74128Z"/><path class="cls-5" d="M36.62144,30.00788a7.04006,7.04006,0,0,1,.7422,3.1865c0,3.4033-2.30659,6.1621-5.1533,6.1621a4.41085,4.41085,0,0,1-1.8448-.4082,5.0504,5.0504,0,0,0,4.4122,2.9756c2.8466,0,5.15331-2.7588,5.15331-6.1621A6.2296,6.2296,0,0,0,36.62144,30.00788Z"/><path class="cls-6" d="M34.11464,33.84768c-1.0342,1.0352-2.503,1.2442-3.2793.4668-.7764-.7763-.5674-2.2451.4668-3.2793,1.0351-1.0351,2.50291-1.2441,3.2802-.4668C35.35874,31.34478,35.14974,32.81348,34.11464,33.84768Z"/><path class="cls-7" d="M34.11754,27.378a6.71741,6.71741,0,0,1-1.8359.5859c-.0879-.0859.4111-.8837.9531-.9707C33.66244,26.92488,34.21914,27.23048,34.11754,27.378Z"/><path class="cls-7" d="M35.36264,27.378a6.71308,6.71308,0,0,0,1.8369.5859c.0869-.0859-.4121-.8837-.9541-.9707C35.81874,26.92488,35.26205,27.23048,35.36264,27.378Z"/></g></g></g></svg>