<svg xmlns="http://www.w3.org/2000/svg" viewBox="0 0 457.76 284.72"><defs><style>.cls-1{fill:#302f2f;}.cls-2{fill:#fff;}</style></defs><title>bat</title><g id="Layer_2" data-name="Layer 2"><g id="Layer_1-2" data-name="Layer 1"><path class="cls-1" d="M213.61,0,161.83,42.92s-1-10.35-5.93-11.17l-1.72-15.08-6.26,9.49L146.67,26A22.94,22.94,0,0,0,128,31.15h0l-10-5.44,5.57,14.11c-4,3,0,12.66,0,12.66L57.68,38.92S1.69,89.19,0,132.73c0,0,56.66-55.08,75.53-27.58,0,0,63.5-23.46,86.22,19.45l-.95-4.35,1.21,4.29C161.9,76,229,66.85,229,66.85c3.74-33.14,79.64-11.15,79.64-11.15C286.66,18.06,213.61,0,213.61,0Z"/><polygon class="cls-2" points="126.26 43.39 137.84 46.29 132.6 47.89 126.26 43.39"/><polygon class="cls-2" points="152.05 36.95 143.19 44.95 148.57 43.9 152.05 36.95"/><path class="cls-1" d="M344.55,166.56l-68.33,30.58s2-11.41-3-13.76l2.65-16.67L266.3,175l-1.28-.6a25.49,25.49,0,0,0-21.61,0h0l-9.09-8.81,1.76,16.79c-5.14,2.08-3.76,13.58-3.76,13.58l-66.6-34.2S90.66,199,75.86,245.17c0,0,77.2-42.16,89.23-7,0,0,75.11-6.2,86.67,46.6l.28-5v5c14.37-52.1,89-41.88,89-41.88,13.89-34.43,88.73,11.81,88.73,11.81C417.51,207.73,344.55,166.56,344.55,166.56Z"/><polygon class="cls-2" points="237.93 187.03 249.49 193.59 243.39 193.75 237.93 187.03"/><polygon class="cls-2" points="267.51 187.82 255.62 193.76 261.7 194.24 267.51 187.82"/><path class="cls-1" d="M403.79,73.48,366.28,94.93s.5-6.67-2.52-7.73l.58-9.73-5,5.32-.77-.27a14.71,14.71,0,0,0-12.41,1.21h0l-5.72-4.54,2,9.55c-2.83,1.48-1.39,8-1.39,8L300.81,80.89s-41,25.64-46.86,53c0,0,41.94-28.6,50.85-9.11,0,0,42.77-7.83,52.41,21.83l-.12-2.86.29,2.85c5.29-30.74,48.75-29.12,48.75-29.12,6-20.55,51.63,1.74,51.63,1.74C448,93,403.79,73.48,403.79,73.48Z"/><polygon class="cls-2" points="343.72 91.29 350.73 94.41 347.23 94.84 343.72 91.29"/><polygon class="cls-2" points="360.75 90.07 354.26 94.15 357.78 94.08 360.75 90.07"/></g></g></svg>