<svg xmlns="http://www.w3.org/2000/svg" viewBox="0 0 637.16 250.16"><defs><style>.cls-1{isolation:isolate;}.cls-2{fill:#302f2f;}.cls-3{fill:#ffb700;}.cls-4{fill:#e5a10a;}.cls-5{fill:#fff;opacity:0.27;mix-blend-mode:overlay;}</style></defs><title>broom</title><g class="cls-1"><g id="Layer_2" data-name="Layer 2"><g id="Layer_1-2" data-name="Layer 1"><path class="cls-2" d="M632.89,93.88C629.69,90.68,500.54,95,500.54,95L488.8,112l-14.94-15L296.68,111v19.21l166.51-9.61,42.69,14.95,19.21-21.35,112.07,4.27Z"/><polygon class="cls-3" points="260.28 150.57 296.68 130.07 297.21 121 296.73 120.98 296.68 110.96 260.28 90.45 260.28 150.57"/><polygon class="cls-2" points="274.74 98.6 260.28 90.45 260.28 150.57 274.74 142.43 274.74 98.6"/><path class="cls-3" d="M260.28,90.45S166.9,2.33,2.84,0l-.1,35.07,22.75,4.82L2.7,47.71,2.54,99.49l68.1,15.66-68.18,12L2.33,172l23,10.83L0,195.22l.51,54.94s193.76-15.33,259.77-99.59Z"/><path class="cls-4" d="M1.61,224.12l-1.34,0,.24,26.06s193.76-15.33,259.77-99.59C260.28,150.57,122,227.33,1.61,224.12Z"/><path class="cls-5" d="M251.56,95.28S177.81,23,12.84,9.79V31.46s63.22-1.2,88.51,19.27c0,0-63.22-7.23-87.3-1.21v28.9S198.58,64,251.56,95.28Z"/></g></g></g></svg>