<svg xmlns="http://www.w3.org/2000/svg" viewBox="0 0 362.53 447.61"><defs><style>.cls-1{fill:#eaeaea;}.cls-2{fill:#070707;}.cls-3{fill:#dbdbdb;}</style></defs><title>ghost</title><g id="Layer_2" data-name="Layer 2"><g id="Layer_1-2" data-name="Layer 1"><path class="cls-1" d="M151.56,1.52c-5,.78-93.15,11.67-68.87,161.09,0,0-62.1-49.73-68.41-4.9s-28.71,135.18,0,90.35,18.91-24.51,22.41-13.31,16.11,10.51,21.72-.7,11.2-21.71,12.6-9.8,12.61,21.71,23.82,14-32.92,48.33,36.42,107.16-30.82,77.75-58.13,61.64,39.45,87.08,141.24,14.24,79.38-154.09,56-209.18c0,0,20.73,1.23,14.8-24.71,0,0,1.4-15.88,9.8-4.67s30.5,17.7,24.43-1.91-6.05-23.27,5.62-13.93,51.72,41.22,32.22-3.51C338.76,121,284.63,73,248.21,134.6,248.21,134.6,267.82-16.69,151.56,1.52Z"/><path class="cls-2" d="M91.3,92.86l57.43-5.14S123.51,135.35,91.3,92.86Z"/><path class="cls-2" d="M166,86.18,223.48,81S198.26,128.67,166,86.18Z"/><path class="cls-2" d="M109.89,131.79s19.43,13.14,38.69,12.79l7.36,15.58,4.37-16.63s37.83,1.22,57.79-19.79c0,0,11.55,30.82-16.11,44.12l-8.06-16.1-1.75,18.56s-17.86,10.5-44.47,6l-4.91-14.71-7,13S108.14,165.41,109.89,131.79Z"/><path class="cls-3" d="M248.21,134.6S267.83-16.69,151.56,1.52A69.86,69.86,0,0,0,135.39,6l-.63,1.44s109-17.06,97.62,145c0,0-3.16,27.17,19.58,1.9C274.55,129.21,300,92.77,361.61,185c1.88-2.73,1.06-9.23-4.35-21.65C338.76,121,284.63,73,248.21,134.6Z"/><path class="cls-3" d="M270.39,212.11c-4.53,5.69-8.95,13.91-5.79,28.44s27.17,102.35-54.34,163.64c0,0-75.68,63.07-143.24,3.3,1.77,12.71,62.35,74.62,147.34,13.8C316.15,348.45,293.74,267.2,270.39,212.11Z"/></g></g></svg>