<svg xmlns="http://www.w3.org/2000/svg" viewBox="0 0 426.34 409.17"><defs><style>.cls-1{fill:#302f2f;}.cls-2{fill:#070707;}.cls-3{fill:#f70;}.cls-4{fill:#e06203;}.cls-5{fill:#fff;}</style></defs><title>hat</title><g id="Layer_2" data-name="Layer 2"><g id="Layer_1-2" data-name="Layer 1"><path class="cls-1" d="M122.09,352c0-4.67,2.33-62.86-23.38-105.72L143.13,180S119.75,49.87,115.07,38.18L72.21,83.38l-.78,33.51L56.63,78.71,113.51,0,196.9,52.21l70.91,122.35-11.69,26.49s49.1,103.65,57.67,141.05c0,0,98.19-7.79,110.66-7.79S384.4,392.4,362.1,399c-39,11.53-250.92,10.13-250.92,10.13S4.16,400.29,0,352.49Z"/><path class="cls-2" d="M313.79,342.1c-8.57-37.4-57.67-141-57.67-141l11.69-26.49L196.9,52.21,113.51,0l72.61,60.85,63.5,107.5-30.5,57.5,30.5-15s27.91,73.83,39.49,138.25Z"/><path class="cls-3" d="M120.32,315.72A260.8,260.8,0,0,1,122.09,352c104.29,22.13,191.7-9.87,191.7-9.87-2-8.83-6.31-21.35-11.67-35.32C244.65,321.35,149.18,317.36,120.32,315.72Z"/><path class="cls-4" d="M122.08,340.87c.13,6,0,10,0,11.1,104.29,22.13,191.7-9.87,191.7-9.87-.73-3.19-1.76-6.88-3-10.93C282.11,341.53,215.3,359.56,122.08,340.87Z"/><path class="cls-5" d="M260.34,311.33a10.42,10.42,0,0,0-10.89-9.94L176,304.72a10.42,10.42,0,0,0-9.94,10.88l2,44.44A10.42,10.42,0,0,0,179,370l73.45-3.34a10.41,10.41,0,0,0,9.94-10.88ZM181.9,355.84l-1.69-37.3,66.31-3,1.69,37.3Z"/><path class="cls-4" d="M285.29,350a256.21,256.21,0,0,0,28.5-7.93c-2-8.83-6.31-21.35-11.67-35.32-6.57,1.66-13.65,3.08-21.06,4.3C283.36,321.08,285.82,335.53,285.29,350Z"/><path class="cls-2" d="M424.45,334.31c-3.26,0-12.39.53-24.08,1.32-10.36,19-35.92,51.32-91.25,56.22-53.66,4.76-158.08,10.9-236.78,10.9a301.46,301.46,0,0,0,38.84,6.37S323.12,410.52,362.1,399C384.4,392.4,436.92,334.31,424.45,334.31Z"/></g></g></svg>