<svg xmlns="http://www.w3.org/2000/svg" viewBox="0 0 323.76 385.65"><defs><style>.cls-1{fill:#3b857d;}.cls-2{fill:#dd640a;}.cls-3{fill:#f70;}.cls-4{fill:#302f2f;}</style></defs><title>pumpkin</title><g id="Layer_2" data-name="Layer 2"><g id="Layer_1-2" data-name="Layer 1"><path class="cls-1" d="M90.18,120.44s16.18-37.27,47.57-45.61c0,0,3.93-53.46,40.22-74.55,0,0,21.33-3.68,37.77,15.69,0,0-36.3,6.87-43.17,56.9,0,0,54.45,2,53,53.95l-53.95,28Z"/><path class="cls-2" d="M161.88,374.42V119.92c-9.11-8.85-49.74-35.18-90.76,4.68,0,0-39.81,113.18,14.49,243.08,0,0,31,24.32,62.2,16.38C150,378.7,155.77,374.29,161.88,374.42Z"/><path class="cls-3" d="M71.12,124.6S-1.36,118.38,0,241.25c0,0,9,135.4,85.59,126.43C31.31,237.78,71.12,124.6,71.12,124.6Z"/><path class="cls-3" d="M167.64,376c5.63,3.13,11.24,6.31,16.84,9.49,28.1,2.28,53.66-17.79,53.66-17.79l.68.06v-.06c54.3-129.9,14.5-243.08,14.5-243.08v0l-.67,0c-41-39.86-81.65-13.53-90.76-4.68v254.5A12.11,12.11,0,0,1,167.64,376Z"/><path class="cls-2" d="M253.31,124.56v0s39.8,113.18-14.5,243.08v.06c76,8.09,84.92-126.49,84.92-126.49C325,125.27,260.55,124.31,253.31,124.56Z"/><polygon class="cls-4" points="33.5 220.2 146.36 229.52 102.53 158.42 33.5 220.2"/><polygon class="cls-4" points="294.77 220.2 181.91 229.52 225.74 158.42 294.77 220.2"/><path class="cls-4" d="M32.69,264.18s31.2,10,47.59,12.69l1.59,24.85,13.74,2.64,12.69-27.49,30.14,5.29,3.71,25.38h7.93l5.81-24.86,33.84-.52,5.29,22.2,12.69-1.05,5.29-23.8,23.26-4.76,5.29,21.15,11.11-4.76,2.11-18.5s43.89-12.16,47.59-18c0,0,1.06,66.09-79.84,76.14l-4.76-19.56-8.46,1.05L208.24,335,169.11,334,167,316h-9.52l-5.82,19-32.25-2.64-1.59-22.74-9.52,1.06-9,17.45S48,319.17,32.69,264.18Z"/></g></g></svg>