<svg xmlns="http://www.w3.org/2000/svg" viewBox="0 0 394.42 360"><defs><style>.cls-1{fill:#eaeaea;}.cls-2{fill:#dbdbdb;}.cls-3,.cls-5{fill:#302f2f;}.cls-3,.cls-4{opacity:0.15;}.cls-6{fill:#021321;}.cls-7{fill:#3b857d;}</style></defs><title>rip</title><g id="Layer_2" data-name="Layer 2"><g id="Layer_1-2" data-name="Layer 1"><path class="cls-1" d="M300,76.08C299.15,33.94,258.07,0,207.51,0S115.86,33.94,115,76.08H91.14l25.29,283H301.35l25.28-283Z"/><path class="cls-2" d="M137,336.06l-21.18-237h21.28l.45-22.54C138.11,47,169.28,23,207,23s68.89,24,69.48,53.54l.45,22.54H301l-21.18,237Z"/><path class="cls-3" d="M277.44,99.08,277,76.54C276.4,47,245.23,23,207.51,23c-23.21,0-43.92,9.09-56.57,23,12.57-9.65,29.75-15.63,48.57-15.63,37.72,0,68.89,24,69.48,53.54l.45,22.54h24.05L273,336.06h7.35l21.18-237Z"/><g class="cls-4"><path class="cls-5" d="M184.7,177.71h-9.57l-12.44-14.27h-7.75v14.27h-8.05V135c6.77,0,13.54.06,20.31.06,10.06.06,15.37,6.77,15.37,14.15,0,5.85-2.69,11.77-10.8,13.41l12.93,14.58Zm-29.76-35.19v13.66H167.2c5.12,0,7.32-3.41,7.32-6.83s-2.26-6.83-7.32-6.83Z"/><path class="cls-5" d="M196,173.87c0,5.79-8.78,5.79-8.78,0S196,168.07,196,173.87Z"/><path class="cls-5" d="M202.81,177.71V135h8v42.69Z"/><path class="cls-5" d="M226.41,173.87c0,5.79-8.78,5.79-8.78,0S226.41,168.07,226.41,173.87Z"/><path class="cls-5" d="M253.24,165.15H241.16v12.56h-8V135c6.71,0,13.42-.06,20.13-.06C274.09,135,274.15,165.15,253.24,165.15Zm-12.08-7.38h12.08c10.3,0,10.24-15.12,0-15.12H241.16Z"/></g><polygon class="cls-3" points="230.56 67.31 216.61 67.31 216.61 56 198.4 56 198.4 67.31 184.46 67.31 184.46 84.45 198.4 84.45 198.4 113.5 216.61 113.5 216.61 84.45 230.56 84.45 230.56 67.31"/><polygon class="cls-3" points="230.56 67.31 216.61 67.31 216.61 56 198.4 56 198.4 67.31 184.46 67.31 184.46 84.45 198.4 84.45 198.4 113.5 216.61 113.5 216.61 84.45 230.56 84.45 230.56 67.31"/><polygon class="cls-3" points="214.78 57.67 214.78 68.98 230.56 68.98 230.56 67.31 216.61 67.31 216.61 56 198.4 56 198.4 57.67 214.78 57.67"/><rect class="cls-3" x="214.78" y="85.33" width="1.83" height="28.17"/><path class="cls-6" d="M304.42,360c.69-13.44,22.8-75.94,22.8-75.94-15.63,13.36-31.79,69.22-34.73,72.78l1,3.16Z"/><path class="cls-6" d="M82.43,360l11.29-5.73c-2.23.86-32.82-49.2-42.84-56.43,0,0,20.6,45.58,22.09,62.16Z"/><path class="cls-7" d="M297.69,360c.62-43.19,4.67-96,16.52-111.47,0,0-30.82,30.5-38.76,111.47Z"/><path class="cls-6" d="M213.69,360c.62-43.19,4.67-96,16.52-111.47,0,0-30.82,30.5-38.76,111.47Z"/><path class="cls-6" d="M102.89,360c.36-25.13,2.72-55.84,9.62-64.87,0,0-17.94,17.75-22.56,64.87Z"/><path class="cls-6" d="M333.2,360c.51-35.45,3.84-78.77,13.57-91.5,0,0-25.3,25-31.82,91.5Z"/><path class="cls-6" d="M134.33,360c.46-31.82,3.45-70.7,12.18-82.12,0,0-22.71,22.47-28.56,82.12Z"/><path class="cls-6" d="M41.1,360c.36-24.58,2.66-54.61,9.41-63.43,0,0-17.54,17.35-22.06,63.43Z"/><path class="cls-6" d="M342.63,356.18c13.6-28.77,32.43-62.91,45.11-69.69,0,0-30,11-60,62.9Z"/><path class="cls-7" d="M227.34,360c.48-33.45,3.62-74.32,12.8-86.33,0,0-23.87,23.62-30,86.33Z"/><path class="cls-7" d="M311.84,360c.48-33.45,3.62-74.32,12.8-86.33,0,0-23.87,23.62-30,86.33Z"/><path class="cls-7" d="M68.23,360c.52-36.47,4-81,14-94.14,0,0-26,25.76-32.73,94.14Z"/><path class="cls-6" d="M280.69,360l8.65-4.39c-1.71.66-25.16-37.72-32.83-43.26,0,0,15.78,34.94,16.92,47.65Z"/><path class="cls-6" d="M135.19,360l8.65-4.39c-1.71.66-25.16-37.72-32.83-43.26,0,0,15.78,34.94,16.92,47.65Z"/><path class="cls-7" d="M355.64,360c7-18.07,26.57-59.59,26.57-59.59-6.78,6-44.89,50.38-51.54,59.59Z"/><path class="cls-7" d="M265.14,360c7-18.07,26.57-59.59,26.57-59.59-6.78,6-44.89,50.38-51.54,59.59Z"/><path class="cls-7" d="M244.14,360c7-18.07,26.57-59.59,26.57-59.59-6.78,6-44.89,50.38-51.54,59.59Z"/><path class="cls-7" d="M201.17,360c6.14-15.92,23.41-52.5,23.41-52.5-6,5.27-39.55,44.39-45.41,52.5Z"/><path class="cls-7" d="M183.31,360c7-18.07,26.57-59.59,26.57-59.59-6.78,6-44.89,50.38-51.54,59.59Z"/><path class="cls-7" d="M89.34,360c6.69-17.37,25.54-57.28,25.54-57.28-6.52,5.75-43.15,48.43-49.54,57.28Z"/><path class="cls-7" d="M291,360c-7.25-25.39-24.95-74.78-29.67-82.33,0,0,12.6,50.29,17.5,82.33Z"/><path class="cls-7" d="M268.67,360c-8.47-19.4-29.15-57.14-34.66-62.91,0,0,14.72,38.43,20.45,62.91Z"/><path class="cls-6" d="M110.34,360c-7.25-25.39-25-74.78-29.67-82.33,0,0,12.6,50.29,17.51,82.33Z"/><path class="cls-6" d="M150.92,360c.69-13.44,22.8-75.94,22.8-75.94-15.63,13.36-31.79,69.22-34.73,72.78l1,3.16Z"/><path class="cls-7" d="M42.85,360c-.75-14.46-24.53-81.67-24.53-81.67,16.82,14.37,34.2,74.44,37.36,78.27L54.62,360Z"/><path class="cls-7" d="M368.46,360l23-40.84s-34.75,34.2-38.81,40.84Z"/><path class="cls-7" d="M29.65,360,0,307.38S44.77,351.45,50,360Z"/><path class="cls-7" d="M107.87,360h22.22C111.16,305.25,57,307.89,57,307.89,76.7,308.38,97.81,341.81,107.87,360Z"/><path class="cls-7" d="M115.21,360s10.83-56.17,42-67c0,0-16.92,29.78-16.92,65.65Z"/><path class="cls-7" d="M115.21,360s10.83-56.17,42-67c0,0-16.92,29.78-16.92,65.65Z"/><path class="cls-7" d="M258.17,360s-10.83-56.17-42-67c0,0,16.92,29.78,16.92,65.65Z"/><path class="cls-7" d="M331.83,360c16.82-37,50.57-106.44,62.59-121.32-13.3,13-71.51,71.22-99,121.32Z"/><path class="cls-7" d="M165.11,360c12.47-27.42,37.51-79,46.42-90-9.86,9.64-53.05,52.83-73.42,90Z"/></g></g></svg>