<svg xmlns="http://www.w3.org/2000/svg" viewBox="0 0 365.17 271.8"><defs><style>.cls-1{fill:#1c1b1b;}.cls-2{fill:#070707;}.cls-3{fill:#302f2f;}.cls-4{fill:#fff;}</style></defs><title>spider</title><g id="Layer_2" data-name="Layer 2"><g id="Layer_1-2" data-name="Layer 1"><rect class="cls-1" x="173.2" width="12.35" height="138"/><path class="cls-2" d="M7,166.78A7,7,0,0,1,3.13,154l59.57-39.5a7,7,0,0,1,7.94.14L125,153.44a7,7,0,1,1-8.14,11.39L66.42,128.78,10.87,165.61A7,7,0,0,1,7,166.78Z"/><path class="cls-2" d="M28.37,206.28a7,7,0,0,1-4.47-12.39l38.2-31.73A7,7,0,0,1,69.15,161l31.08,12.3a7,7,0,0,1-5.15,13L67.85,175.59l-35,29.07A7,7,0,0,1,28.37,206.28Z"/><path class="cls-2" d="M55.56,253.55a7,7,0,0,1-6.34-10l14.25-30.43a7,7,0,0,1,4.28-3.73l33.67-10.36a7,7,0,1,1,4.12,13.38l-30.71,9.45L61.9,249.51A7,7,0,0,1,55.56,253.55Z"/><path class="cls-2" d="M358.16,166.78a7,7,0,0,1-3.86-1.17l-55.56-36.83-50.47,36.05a7,7,0,0,1-8.13-11.39l54.39-38.85a7,7,0,0,1,7.93-.14L362,154a7,7,0,0,1-3.88,12.83Z"/><path class="cls-2" d="M336.8,206.28a6.93,6.93,0,0,1-4.47-1.62l-35-29.07-27.23,10.77a7,7,0,0,1-5.15-13L296,161a7,7,0,0,1,7.05,1.12l38.2,31.73a7,7,0,0,1-4.47,12.39Z"/><path class="cls-2" d="M309.61,253.55a7,7,0,0,1-6.35-4l-12.93-27.62-30.7-9.45a7,7,0,0,1,4.12-13.38l33.67,10.36a7,7,0,0,1,4.28,3.73l14.24,30.43a7,7,0,0,1-6.33,10Z"/><ellipse class="cls-3" cx="180.53" cy="192.8" rx="91.3" ry="79"/><path class="cls-2" d="M180.53,113.81c-27.64,0-52.41,10.63-69.15,27.42a97.19,97.19,0,0,1,47.14-11.77c44.87,0,81.25,28.36,81.25,63.34s-36.38,63.35-81.25,63.35a97.19,97.19,0,0,1-47.14-11.77c16.74,16.79,41.51,27.42,69.15,27.42,50.43,0,91.3-35.37,91.3-79S231,113.81,180.53,113.81Z"/><circle class="cls-4" cx="138.45" cy="185.36" r="18.78"/><circle class="cls-2" cx="138.45" cy="185.36" r="5.95"/><circle class="cls-4" cx="211.94" cy="185.36" r="18.78"/><circle class="cls-2" cx="211.94" cy="185.36" r="5.95"/></g></g></svg>