<svg xmlns="http://www.w3.org/2000/svg" viewBox="0 0 352.08 142.91"><defs><style>.cls-1{fill:#f70;}.cls-2{fill:#e06203;}.cls-3{fill:#fff;opacity:0.27;}.cls-4{fill:#302f2f;}</style></defs><title>toffe</title><g id="Layer_2" data-name="Layer 2"><g id="Layer_1-2" data-name="Layer 1"><path class="cls-1" d="M83.56,73.89l0-.22h-.09l-4-20.3S56.77,14.47,27.76,17.59,21.21,34.18,16.84,48.7,1.16,58.14,0,73.67H0a1.64,1.64,0,0,0,0,.22,1.5,1.5,0,0,0,0,.22H0c1.12,15.53,12.48,10.59,16.8,25s-18.09,28,10.92,31.11S79.54,94.41,79.54,94.41l4-20.3h.09Z"/><path class="cls-2" d="M79.54,94.41l4-20.3h.09l0-.22,0-.22h-.09l-.25-1.28A55.34,55.34,0,0,0,76,79.93c-23.24,28.53-47.73,31.75-60.17,31.17-3.27,9.38-8.76,16.87,11.93,19.09C56.77,133.3,79.54,94.41,79.54,94.41Z"/><path class="cls-3" d="M77.5,55.43S48,12.12,22.58,23.9a6.68,6.68,0,0,0-3.35,8.9c1.32,2.75,4,5.38,9.52,5.38,11.5,0,41.75,12.25,49,22.25S77.5,55.43,77.5,55.43Z"/><path class="cls-1" d="M268.53,73.89l0-.22h.08l4-20.3s22.77-38.9,51.78-35.78,6.55,16.59,10.92,31.11,15.69,9.44,16.81,25h0c0,.08,0,.14,0,.22s0,.14,0,.22h0c-1.12,15.53-12.48,10.59-16.81,25s18.09,28-10.92,31.11-51.78-35.78-51.78-35.78l-4-20.3h-.08Z"/><path class="cls-2" d="M272.54,94.41l-4-20.3h-.08l0-.22,0-.22h.08l.25-1.28a55.34,55.34,0,0,1,7.26,7.54c23.25,28.53,47.73,31.75,60.18,31.17,3.26,9.38,8.75,16.87-11.94,19.09C295.31,133.3,272.54,94.41,272.54,94.41Z"/><path class="cls-3" d="M274.58,55.43S304.13,12.12,329.5,23.9a6.66,6.66,0,0,1,3.35,8.9c-1.31,2.75-4,5.38-9.52,5.38-11.5,0-41.75,12.25-49,22.25S274.58,55.43,274.58,55.43Z"/><ellipse class="cls-1" cx="176.98" cy="71.45" rx="105.57" ry="71.45"/><path class="cls-2" d="M271.34,39.39c0,.78.05,1.56.05,2.35,0,43.4-42.27,78.59-94.41,78.59S82.57,85.14,82.57,41.74c0-.79,0-1.57.05-2.35C75.45,49,71.41,59.92,71.41,71.45c0,39.47,47.26,71.46,105.57,71.46s105.57-32,105.57-71.46C282.55,59.92,278.51,49,271.34,39.39Z"/><path class="cls-4" d="M128.25,8.06,82,102.74a80,80,0,0,0,19.93,19L161,.82A141.91,141.91,0,0,0,128.25,8.06Z"/><path class="cls-4" d="M194.37,1,128.92,135.09a140.57,140.57,0,0,0,26.13,6.27L220.88,6.46A143.08,143.08,0,0,0,194.37,1Z"/><path class="cls-4" d="M248.34,18.8,188,142.52a146,146,0,0,0,32-5.79L269,36.36A85.57,85.57,0,0,0,248.34,18.8Z"/><ellipse class="cls-3" cx="176.98" cy="34.5" rx="63.13" ry="25.97"/></g></g></svg>