<svg xmlns="http://www.w3.org/2000/svg" viewBox="0 0 103.08 78.38"><defs><style>.cls-1{fill:#2c2926;fill-rule:evenodd;}</style></defs><title>bat_large</title><g id="Layer_2" data-name="Layer 2"><g id="OBJECTS"><path class="cls-1" d="M32.14,73.06a21.53,21.53,0,0,0-1.69-5.71c-1.41-3.23-3.51-9.52.17-13,0,0-4.83-.92-4.5-4.81s.89-12.65-10-15c0,0-.45-17.92-16.12-18.34,0,0,14.14-22.37,36-14.62,0,0-13.5,18,6.57,37.15,0,0,1.17,1.68,2.75-.79s3-5.43,4.11-5.45a5.36,5.36,0,0,1,2.27-6s2.19,1.9,1.24,5.86l3.19,3.19,4.23,1.56c3.2-2.52,5.85-1.34,5.85-1.34a5.34,5.34,0,0,1-4.47,4.57c.42,1-1.65,3.55-3.23,6s.43,2.83.43,2.83c25.84,10.17,36.48-9.63,36.48-9.63,16.19,16.54,1.83,38.76,1.83,38.76-7-14-23.42-6.93-23.42-6.93C67.1,62.54,59.39,66.74,56,68.67s-6.25-2.07-6.25-2.07c-1.59,4.79-8.18,5.53-11.7,5.59A21.56,21.56,0,0,0,32.14,73.06Z"/></g></g></svg>