<svg id="OBJECTS" xmlns="http://www.w3.org/2000/svg" viewBox="0 0 750 500"><defs><style>.cls-1{fill:#2c2926;fill-rule:evenodd;}</style></defs><title>bats_five</title><path class="cls-1" d="M206,116.14a9.09,9.09,0,0,0-1.06-2.27c-.8-1.25-2.07-3.73-.76-5.4,0,0-2.06-.07-2.18-1.71s-.43-5.31-5.11-5.58c0,0-1.33-7.42-7.86-6.6,0,0,4.45-10.19,14-8.36,0,0-4.46,8.33,5.1,15,0,0,.59.63,1.09-.5s.92-2.45,1.36-2.53a2.23,2.23,0,0,1,.56-2.62,2.47,2.47,0,0,1,.89,2.35l1.53,1.12,1.85.38a2.5,2.5,0,0,1,2.35-.93,2.25,2.25,0,0,1-1.57,2.18c.24.38-.46,1.58-1,2.71s.37,1.15.37,1.15c11.37,2.57,14.53-6.33,14.53-6.33,7.78,5.83,3.24,16,3.24,16-3.79-5.39-10.17-1.38-10.17-1.38-3.35-3.28-6.28-1-7.57,0s-2.73-.46-2.73-.46c-.36,2.09-3,2.81-4.5,3.07A8.93,8.93,0,0,0,206,116.14Z"/><path class="cls-1" d="M230.76,152.28a6.58,6.58,0,0,0-1.12-1.43c-.77-.76-2.07-2.32-1.41-3.71,0,0-1.48.28-1.83-.87s-1.17-3.7-4.53-3.13c0,0-2.14-5-6.65-3.41,0,0,1.51-8,8.59-8.2,0,0-1.82,6.63,6.05,9.83,0,0,.52.35.69-.54s.26-1.88.56-2a1.63,1.63,0,0,1,0-1.95,1.78,1.78,0,0,1,1,1.52l1.27.55,1.38,0a1.79,1.79,0,0,1,1.51-1,1.65,1.65,0,0,1-.76,1.81c.23.22-.07,1.19-.24,2.07s.44.76.44.76c8.5,0,9.3-6.84,9.3-6.84,6.47,2.88,4.88,10.82,4.88,10.82-3.56-3.21-7.44.66-7.44.66-2.91-1.78-4.63.28-5.38,1.21s-2,.11-2,.11c.08,1.54-1.71,2.5-2.7,2.91A6.63,6.63,0,0,0,230.76,152.28Z"/><path class="cls-1" d="M189,137.42a5.07,5.07,0,0,0,.23-1.33c0-.8.26-2.29,1.35-2.62,0,0-.89-.68-.42-1.44s1.46-2.48-.52-4.06c0,0,1.73-3.69-1.41-5.36,0,0,5.14-3.12,8.79.67,0,0-4.57,2.29-2.43,8.23,0,0,.06.45.64.11s1.17-.79,1.39-.69a1.19,1.19,0,0,1,1.06-1,1.33,1.33,0,0,1-.34,1.31l.32,1,.71.74a1.34,1.34,0,0,1,1.32.32,1.21,1.21,0,0,1-1.37.48c0,.24-.7.55-1.27.9s-.2.61-.2.61c4.22,4.7,8.4,1.75,8.4,1.75,1.61,5-3.56,8.07-3.56,8.07,0-3.57-4.06-3.79-4.06-3.79-.46-2.49-2.45-2.42-3.34-2.37s-1.06-1.06-1.06-1.06c-.81.82-2.22.3-2.95,0A5,5,0,0,0,189,137.42Z"/><path class="cls-1" d="M190.14,160.31a3.37,3.37,0,0,0-.25-.79c-.21-.44-.53-1.3,0-1.79,0,0-.67-.11-.64-.65a1.69,1.69,0,0,0-1.44-2s-.13-2.48-2.3-2.48c0,0,1.87-3.15,4.91-2.16,0,0-1.8,2.54,1.05,5.12,0,0,.17.22.38-.12s.4-.77.55-.77a.75.75,0,0,1,.29-.84.82.82,0,0,1,.2.81l.45.43.59.19a.8.8,0,0,1,.8-.2.74.74,0,0,1-.6.65c.07.13-.21.49-.42.84s.07.39.07.39c3.61,1.31,5-1.47,5-1.47,2.3,2.22.4,5.35.4,5.35-1-1.91-3.26-.86-3.26-.86a1.7,1.7,0,0,0-2.48-.32c-.46.28-.87-.26-.87-.26-.2.67-1.11.79-1.6.82A2.86,2.86,0,0,0,190.14,160.31Z"/><path class="cls-1" d="M262.44,135.31a12.13,12.13,0,0,0-1-3.25c-.81-1.84-2-5.43.1-7.4,0,0-2.75-.52-2.57-2.74s.51-7.21-5.7-8.54c0,0-.26-10.22-9.19-10.46,0,0,8.06-12.75,20.5-8.33,0,0-7.7,10.25,3.74,21.18,0,0,.67,1,1.57-.45s1.74-3.1,2.34-3.11a3,3,0,0,1,1.3-3.41,3.38,3.38,0,0,1,.7,3.35l1.82,1.81,2.41.89a3.37,3.37,0,0,1,3.34-.76,3,3,0,0,1-2.55,2.6c.24.55-.94,2-1.84,3.43s.25,1.62.25,1.62c14.72,5.79,20.79-5.49,20.79-5.49,9.23,9.42,1.05,22.09,1.05,22.09-4-8-13.36-3.94-13.36-3.94-3.8-5.08-8.2-2.69-10.14-1.59s-3.57-1.18-3.57-1.18c-.9,2.73-4.66,3.15-6.67,3.19A12.54,12.54,0,0,0,262.44,135.31Z"/></svg>