<svg id="OBJECTS" xmlns="http://www.w3.org/2000/svg" viewBox="0 0 750 500"><defs><style>.cls-1{fill:#2c2926;}.cls-1,.cls-2{fill-rule:evenodd;}.cls-2{fill:#eb6800;}</style></defs><title>castle</title><path class="cls-1" d="M125,446.18V339.41l175.45-7.57a38.38,38.38,0,0,1,13.94,3.75,59.15,59.15,0,0,0,12.86,5.1c3.89,1.21,8.74.24,10.44,1.7s6.79,3.64,10.92,5.34,17.71,1.94,24.26,4.12,5.83.49,12.87,5.1,14.55,5.34,17.22,6.31,11.41.48,14.32,1.94S434,371,434,371s4.86,2.91,6.07,6.31,3.4,3.88,5.58,8,2.43,6.31,2.43,7.76,1-3.15,1.21,6.31,2.43,10.68,3.4,12.13,3.25,1.67,4.12,4.37,9.71,1.71,9.71,1.71l1.94,10.91Z"/><path class="cls-1" d="M266.62,307.37h-.28l-3.64,22.74h-9.21v-15.2l.15-.05-3.86-27.15h-.29l-3.86,27.15.15.05v3.18h-4.87v-4.52h2.61c.39,0,.72-.23.72-.52V277.53c0-.28-.33-.52-.72-.52h-2.61v-5h1.64c.38,0,.69-.22.69-.5h0c0-.27-.31-.49-.69-.49h-1.64v-9.61h2.19c.75,0,1.37-.45,1.37-1s-.62-1-1.37-1h-2L230,215.36h.19c.6,0,1.09-.36,1.09-.79s-.49-.78-1.09-.78h-.41v-7.65c1,1.14,3.13.92,5,1s2,.79,2,.79a3.54,3.54,0,0,0-2.56-4.5c-3.61-1-4.53-2.95-4.53-2.95v-.43c0-.17-.19-.3-.43-.3s-.42.13-.42.3v13.72h-.41c-.6,0-1.09.35-1.09.78s.49.79,1.09.79h.18l-11.06,44.07h-2c-.76,0-1.38.44-1.38,1s.62,1,1.38,1h2.18V271h-1.64c-.38,0-.69.22-.69.49h0c0,.28.31.5.69.5h1.64v5h-2.6c-.4,0-.72.24-.72.52v35.52c0,.29.32.52.72.52h2.6v2.26H212.7V310l.08,0-2.22-7.82h-.16L208.18,310l.08,0V311h-3v-7.83h3c.46,0,.83-.27.83-.6V261.68c0-.33-.37-.6-.83-.6h-3v-5.76h1.88c.44,0,.79-.25.79-.57h0c0-.31-.35-.57-.79-.57h-1.88V243.12h2.51c.87,0,1.58-.51,1.58-1.14h0c0-.62-.71-1.13-1.58-1.13h-2.32l-12.73-50.72h.22c.69,0,1.25-.4,1.25-.9s-.56-.9-1.25-.9h-.47v-8.8c1.15,1.32,3.6,1.06,5.81,1.18s2.35.9,2.35.9a4.07,4.07,0,0,0-2.95-5.18c-4.15-1.19-5.21-3.39-5.21-3.39v-.49c0-.2-.22-.35-.49-.35s-.49.15-.49.35v15.78H191c-.69,0-1.26.41-1.26.9s.57.9,1.26.9h.21L178.5,240.85h-2.31c-.88,0-1.59.51-1.59,1.13h0c0,.63.71,1.14,1.59,1.14h2.51v11.06h-1.89c-.43,0-.79.26-.79.57h0c0,.32.36.57.79.57h1.89v5.76h-3c-.46,0-.83.27-.83.6v40.87c0,.33.37.6.83.6h3v2.74h-7.22v-8.18l.1,0-2.69-14.56h-.2L166,297.69l.1,0v8.18H161v-25.8h6c.95,0,1.72-.55,1.72-1.23v-84.7c0-.68-.77-1.23-1.72-1.23h-6V181h3.68c.9,0,1.64-.53,1.64-1.18h0c0-.64-.74-1.17-1.64-1.17H161V155.71h5c1.8,0,3.28-1.06,3.28-2.35h0c0-1.29-1.48-2.35-3.28-2.35h-4.81l-.17-.68v-7.86c-.66,0-1.31,0-2,0L134.78,45.91h.45c1.43,0,2.6-.84,2.6-1.87s-1.17-1.87-2.6-1.87h-1V29.69c2.39,2.73,7.46,2.2,12,2.44S151.16,34,151.16,34s2.49-8.25-6.11-10.73-10.8-7-10.8-7v-1c0-.41-.46-.74-1-.74h0c-.56,0-1,.33-1,.74V42.17h-1c-1.43,0-2.6.84-2.6,1.87s1.17,1.87,2.6,1.87h.45L109.5,134.32v16l-.17.68h-4.81c-1.8,0-3.28,1.06-3.28,2.35h0c0,1.29,1.48,2.35,3.28,2.35h5v22.93h-3.68c-.9,0-1.64.53-1.64,1.17h0c0,.65.74,1.18,1.64,1.18h3.68v11.94h-6c-1,0-1.72.55-1.72,1.23v84.7c0,.68.77,1.23,1.72,1.23h6v25.8h-5.12v-8.18l.1,0-2.69-14.56h-.2L98.9,297.69l.1,0v8.18H91.78v-2.74h3c.46,0,.83-.27.83-.6V261.68c0-.33-.37-.6-.83-.6h-3v-5.76h1.89c.43,0,.79-.25.79-.57h0c0-.31-.36-.57-.79-.57H91.78V243.12h2.51c.88,0,1.59-.51,1.59-1.14h0c0-.62-.71-1.13-1.59-1.13H92L79.25,190.13h.21c.7,0,1.26-.4,1.26-.9s-.56-.9-1.26-.9H79V172.55c0-.2-.22-.35-.49-.35s-.49.15-.49.35V173s-1.06,2.2-5.21,3.39a4.07,4.07,0,0,0-3,5.18s.14-.78,2.35-.9,4.66.14,5.81-1.18v8.8h-.47c-.69,0-1.25.41-1.25.9s.56.9,1.25.9h.22L65,240.85H62.71c-.87,0-1.58.51-1.58,1.13h0c0,.63.71,1.14,1.58,1.14h2.51v11.06H63.34c-.44,0-.79.26-.79.57h0c0,.32.35.57.79.57h1.88v5.76h-3c-.46,0-.83.27-.83.6v40.87c0,.33.37.6.83.6h3V311h-3V310l.08,0-2.22-7.82h-.16L57.7,310l.08,0v5.79H52.65v-2.26h2.6c.4,0,.72-.23.72-.52V277.53c0-.28-.32-.52-.72-.52h-2.6v-5h1.64c.38,0,.69-.22.69-.5h0c0-.27-.31-.49-.69-.49H52.65v-9.61h2.18c.76,0,1.38-.45,1.38-1s-.62-1-1.38-1h-2L41.76,215.36h.18c.6,0,1.1-.36,1.1-.79s-.5-.78-1.1-.78h-.4V200.07c0-.17-.2-.3-.43-.3s-.43.13-.43.3v.43s-.92,1.91-4.53,2.95a3.54,3.54,0,0,0-2.56,4.5s.12-.68,2-.79,4,.12,5-1v7.65h-.41c-.6,0-1.09.35-1.09.78s.49.79,1.09.79h.19L29.4,259.43h-2c-.75,0-1.37.44-1.37,1s.62,1,1.37,1h2.19V271H27.93c-.38,0-.69.22-.69.49h0c0,.28.31.5.69.5h1.64v5H27c-.39,0-.72.24-.72.52v35.52c0,.29.33.52.72.52h2.61v4.52H24.7v-3.18l.15-.05L21,287.71H20.7l-3.86,27.15.15.05v15.2H7.78L4.14,307.37H3.86L0,331.51l.14.05v50.22h270.2V331.56l.14-.05ZM240.91,278h1.89v34.5h-1.89Zm-35.65-15.77h2.17V302h-2.17Zm-113.48,0H94V302H91.78ZM52.65,278h1.89v34.5H52.65Zm-23.08,34.5H27.68V278h1.89ZM65.22,302H63.05V262.27h2.17Zm100-106.57v82.25H161V195.39Zm-60,82.25V195.39h4.27v82.25ZM178.7,302h-2.17V262.27h2.17Zm39.13,10.58h-1.89V278h1.89Z"/><path class="cls-2" d="M145.22,196a1.76,1.76,0,0,1-1.75,1.76h-8.2v-7.86h9.95V196Zm-11.13,1.76h-8.2a1.76,1.76,0,0,1-1.76-1.76v-6.1h10v7.86Zm-10-9V178.24h10v10.44Zm0-11.62v-.73a10.58,10.58,0,0,1,10-10.53v11.26Zm11.14-11.26a10.58,10.58,0,0,1,9.95,10.53v.73h-9.95V165.8Zm9.95,12.44v10.44h-9.95V178.24Z"/><path class="cls-2" d="M145.22,239.93a1.76,1.76,0,0,1-1.75,1.75h-8.2v-7.85h9.95v6.1Zm-11.13,1.75h-8.2a1.76,1.76,0,0,1-1.76-1.75v-6.1h10v7.85Zm-10-9V222.21h10v10.44Zm0-11.63v-.72a10.59,10.59,0,0,1,10-10.54V221Zm11.14-11.26a10.58,10.58,0,0,1,9.95,10.54V221h-9.95V209.76Zm9.95,12.45v10.44h-9.95V222.21Z"/><path class="cls-2" d="M145.22,283.31a1.76,1.76,0,0,1-1.75,1.76h-8.2v-7.86h9.95v6.1Zm-11.13,1.76h-8.2a1.76,1.76,0,0,1-1.76-1.76v-6.1h10v7.86Zm-10-9V265.59h10V276Zm0-11.62v-.73a10.59,10.59,0,0,1,10-10.53v11.26Zm11.14-11.26a10.58,10.58,0,0,1,9.95,10.53v.73h-9.95V253.15Zm9.95,12.44V276h-9.95V265.59Z"/><path class="cls-1" d="M750,361.17s-8.41-2.26-11.32-1.64-4.91,2.87-10.56,1-2.18-2.46-7.27-2.05-9.29.62-12.2.82-11.47-.61-13.47-.61-5.82-1-10.73-.82-11.65-2.67-14.74-.82-3.1.41-7.47,1.43-14.92-2.25-18.38-1.23-8.74.82-10.74,1.64-11.83,1-14,1.85S552,371.62,529.39,372.44s-32.76-.82-38.58,0-6.55.82-12.38,4.1S449.5,378.38,444,379s-3.28,1.43-7.65,2.66-2.36,1.23-9.46,1.23-8.19-1.23-10.92-.41-6.19-.2-8.74,1.23-7.27,1.85-7.27,1.85.36-.82-6-.41-11.47-1.64-13.83-.82-5.28.62-8.19.82-51.32-2.67-70.62,1-22.93-1.22-27.66,0-10.19-.41-14.92,0-10.19-1.63-15.65-1.63-14.93-4.11-21.84-2.46-29.12.81-33.49,1.23S167,378.38,167,378.38s-5.09-7.78-10.92-7-4.36,0-10.19.83-17.47-2.46-20.38-2.46-7.64-4.1-12.38-4.1-16-.82-20.74.41-10.19.41-13.47.41-5.1-2.46-13.1-2.05S56,362,52.75,363.22,32.37,357.07,24,357.07s-12.74-.82-16-.41a47,47,0,0,1-8,0V500H750Z"/></svg>