<svg id="OBJECTS" xmlns="http://www.w3.org/2000/svg" viewBox="0 0 750 500"><defs><style>.cls-1{fill:#e95e03;}.cls-1,.cls-2{fill-rule:evenodd;}.cls-2{fill:#d14e17;}</style></defs><title>cloud_back</title><path class="cls-1" d="M384.12,58.06a17.41,17.41,0,0,0-6.1,1.09A4.7,4.7,0,0,0,372.74,58a7.83,7.83,0,0,0-12.56-5.61,4.65,4.65,0,0,0-3.76-1.92,3.84,3.84,0,0,0-.76.07,10,10,0,0,0,.82-4,10.14,10.14,0,0,0-13.09-9.65,4.59,4.59,0,0,0-4.15-2.64h-.14c0-.36,0-.73,0-1.1a18.15,18.15,0,1,0-36.3,0v.42a11.15,11.15,0,0,0-7.94.95,14.54,14.54,0,0,0-25.55,13.11l-.44,0a7.17,7.17,0,0,0-7.16,7.16,6.75,6.75,0,0,0,.13,1.36h-.15a4.14,4.14,0,0,0-4.13,4,10.05,10.05,0,0,0-1.91-.18A9.78,9.78,0,0,0,249,62.47c-4.65,4.4.43,5.54,5.32,5.54H389.5c5.1,0,12.38.84,7.32-4.49A17.42,17.42,0,0,0,384.12,58.06Z"/><path class="cls-2" d="M381.34,292.07a16.66,16.66,0,0,0-5.84,1.05,4.49,4.49,0,0,0-3.34-1.48,4.35,4.35,0,0,0-1.73.35,7.5,7.5,0,0,0-12-5.38,4.45,4.45,0,0,0-4.33-1.78,9.68,9.68,0,0,0-11.76-13.06,4.41,4.41,0,0,0-4-2.53h-.13c0-.35,0-.7,0-1.06a17.41,17.41,0,0,0-34.81,0c0,.14,0,.27,0,.41a10.36,10.36,0,0,0-2.63-.33,10.7,10.7,0,0,0-5,1.23,13.94,13.94,0,0,0-24.5,12.57h-.42a6.83,6.83,0,0,0-6.74,8.16H264a4,4,0,0,0-3.95,3.83,9.71,9.71,0,0,0-8.3,2.26c-4.46,4.22.41,5.31,5.1,5.31H386.5c4.89,0,11.87.81,7-4.31A16.75,16.75,0,0,0,381.34,292.07Z"/></svg>