<svg id="OBJECTS" xmlns="http://www.w3.org/2000/svg" viewBox="0 0 750 500"><defs><style>.cls-1{fill:#dc580f;fill-rule:evenodd;}</style></defs><title>cloud_middle</title><path class="cls-1" d="M577.21,169.05a22.57,22.57,0,0,0-8.19,1.53,6.12,6.12,0,0,0-7.11-1.65,10.71,10.71,0,0,0-10.49-10.12,10.18,10.18,0,0,0-6.39,2.26,6.14,6.14,0,0,0-5-2.69,5.69,5.69,0,0,0-1,.09,14.65,14.65,0,0,0,1.09-5.56c0-7.82-6.08-14.15-13.58-14.15a13,13,0,0,0-4,.63,6.14,6.14,0,0,0-5.59-3.7h-.17c0-.51,0-1,0-1.54,0-14.05-10.92-25.43-24.39-25.43S468,120.1,468,134.15c0,.19,0,.39,0,.59a14.43,14.43,0,0,0-10.67,1.32,19.26,19.26,0,0,0-15.77-8.34c-10.79,0-19.54,9.12-19.54,20.37a21.38,21.38,0,0,0,1,6.34,5.72,5.72,0,0,0-.59,0,9.83,9.83,0,0,0-9.62,10,10.83,10.83,0,0,0,.17,1.9h-.2a5.66,5.66,0,0,0-5.55,5.59,13.17,13.17,0,0,0-11.62,3.31c-6.25,6.16.57,7.76,7.15,7.76H584.44c6.86,0,16.65,1.17,9.85-6.3A23.05,23.05,0,0,0,577.21,169.05Z"/></svg>