<svg id="OBJECTS" xmlns="http://www.w3.org/2000/svg" viewBox="0 0 750 500"><defs><style>.cls-1{fill:#191919;fill-rule:evenodd;}</style></defs><title>graveyard</title><path class="cls-1" d="M0,381s8.41-1.33,11.32-1,4.92,1.7,10.56.61,2.18-1.46,7.28-1.22,9.28.37,12.19.49,11.47-.37,13.47-.37,5.82-.6,10.74-.48,11.64-1.58,14.74-.48,3.09.24,7.46.84,14.92-1.33,18.38-.72,8.74.48,10.74,1,11.83.6,14,1.09,67.15,6.43,89.72,6.91,32.76-.48,38.58,0,6.56.49,12.38,2.43,28.94,1.09,34.4,1.46,3.27.85,7.64,1.57,2.37.73,9.46.73,8.19-.73,10.92-.24,6.19-.12,8.74.73a36.27,36.27,0,0,0,7.28,1.09s-.37-.49,6-.24,11.47-1,13.84-.49a55.65,55.65,0,0,0,8.19.49c2.91.12,51.32-1.58,70.61.6s22.93-.72,27.66,0,10.19-.24,14.92,0,10.2-1,15.66-1,14.92-2.42,21.83-1.45,29.12.48,33.49.72S583,391.19,583,391.19s5.09-4.61,10.92-4.12,4.37,0,10.19.48,17.47-1.45,20.38-1.45,7.65-2.43,12.38-2.43,16-.49,20.75.24,10.19.25,13.46.25,5.1-1.46,13.1-1.22,9.83-1.45,13.11-.73,20.38-3.64,28.75-3.64,12.74-.48,16-.24,8,0,8,0V500H0Z"/><path class="cls-1" d="M460.83,308.94a54.14,54.14,0,0,0-3.15-4.47l-2.52,15.94-.48-20c-3.53-4.71-7.26-9.63-7.26-9.63S434.94,308.69,435,309.19c0,.14.59,6.55,1.45,15.85l-40.9,9c3.12-15.7,5.5-27.74,5.53-27.94.07-.58-12.24-23.44-12.24-23.44s-17.69,18.45-17.77,19c0,.24-1.14,17.76-2.43,38.28l-.66.15-41.41-.68c.84-12,1.44-20.53,1.44-20.69,0-.56-15.15-20.19-15.15-20.19s-15.14,19.63-15.14,20.19c0,.16.58,8.51,1.41,20.24l-15.52-.26L284.67,353l15.39-.11c2,28,4.46,63,4.46,63h16.59s2.49-35.14,4.47-63.14l42.21-.28h0c-1.64,26.05-3.3,52.37-3.3,52.37l8.22,1.2,8.22,1.21s6.38-32,11.95-60l44.69-9.39C440,363.41,443.07,397,443.07,397l7.09-.07,7.09-.07s1.27-31,2.3-56.14L484.66,344l.83-11.2-25.44-4.39C460.5,317.2,460.83,309.09,460.83,308.94Z"/><path class="cls-1" d="M60.13,320.41a1.92,1.92,0,0,0-2.22-1.65l-2.9.43-.29-1.94a15.49,15.49,0,1,0-30.64,4.53l.29,1.93-2.9.43a1.94,1.94,0,0,0-1.66,2.23L34,396.78a2,2,0,0,0,2.23,1.65l29.18-4.31a2,2,0,0,0,1.65-2.23Z"/><path class="cls-1" d="M179.07,350.13l-2.58-.18.11-1.73a13.74,13.74,0,0,0-9.07-13.81l1.23-12,9.18.93a1,1,0,0,0,1.07-.87l.47-4.57a1,1,0,0,0-.88-1.08l-9.17-.94.8-7.78a1,1,0,0,0-.88-1.08l-4.57-.46a1,1,0,0,0-1.08.88l-.79,7.78-9.17-.94a1,1,0,0,0-1.08.88l-.47,4.57a1,1,0,0,0,.88,1.07l9.17.94-1.23,12a13.75,13.75,0,0,0-11.75,12.63l-.11,1.73-2.59-.18a1.72,1.72,0,0,0-1.85,1.62l-1,63.52a1.78,1.78,0,0,0,1.62,1.85l26,1.76a1.77,1.77,0,0,0,1.85-1.61L180.68,352A1.7,1.7,0,0,0,179.07,350.13Z"/><path class="cls-1" d="M276,365.05l-2.57.34-.23-1.71A13.7,13.7,0,0,0,246,367.29l.23,1.72-2.58.34a1.7,1.7,0,0,0-1.48,1.95l11.66,62.45a1.78,1.78,0,0,0,1.95,1.49l25.87-3.44a1.78,1.78,0,0,0,1.49-1.95l-5.24-63.31A1.7,1.7,0,0,0,276,365.05Z"/><path class="cls-1" d="M133.56,342.79l-18.24-4.51,3.83-15.48a2,2,0,0,0-1.46-2.43l-9.08-2.25a2,2,0,0,0-2.43,1.47l-3.83,15.47L84.1,330.55A2,2,0,0,0,81.68,332l-2.25,9.08a2,2,0,0,0,1.46,2.43L99.13,348l-10.59,42.8A2,2,0,0,0,90,393.26l9.08,2.25a2,2,0,0,0,2.43-1.46l10.6-42.8,18.24,4.52a2,2,0,0,0,2.43-1.47l2.25-9.08A2,2,0,0,0,133.56,342.79Z"/><path class="cls-1" d="M228.52,364.42l-12.2-.81.69-10.35a1.31,1.31,0,0,0-1.22-1.38l-6.07-.41a1.32,1.32,0,0,0-1.39,1.22L207.65,363l-12.2-.81a1.31,1.31,0,0,0-1.39,1.21l-.4,6.08a1.3,1.3,0,0,0,1.21,1.38l12.2.81-1.89,28.62a1.31,1.31,0,0,0,1.21,1.39l6.07.4a1.31,1.31,0,0,0,1.39-1.22l1.9-28.61,12.19.8a1.31,1.31,0,0,0,1.39-1.21l.4-6.07A1.31,1.31,0,0,0,228.52,364.42Z"/><path class="cls-1" d="M544.13,320.41a1.92,1.92,0,0,0-2.22-1.65l-2.9.43-.29-1.94a15.49,15.49,0,1,0-30.64,4.53l.29,1.93-2.9.43a1.94,1.94,0,0,0-1.66,2.23L518,396.78a2,2,0,0,0,2.23,1.65l29.18-4.31a2,2,0,0,0,1.65-2.23Z"/><path class="cls-1" d="M663.07,350.13l-2.58-.18.11-1.73a13.74,13.74,0,0,0-9.07-13.81l1.23-12,9.18.93a1,1,0,0,0,1.07-.87l.47-4.57a1,1,0,0,0-.88-1.08l-9.17-.94.8-7.78a1,1,0,0,0-.88-1.08l-4.57-.46a1,1,0,0,0-1.08.88l-.79,7.78-9.17-.94a1,1,0,0,0-1.08.88l-.47,4.57a1,1,0,0,0,.88,1.07l9.17.94-1.23,12a13.75,13.75,0,0,0-11.75,12.63l-.11,1.73-2.59-.18a1.72,1.72,0,0,0-1.85,1.62l-1,63.52a1.78,1.78,0,0,0,1.62,1.85l26,1.76a1.77,1.77,0,0,0,1.85-1.61L664.68,352A1.7,1.7,0,0,0,663.07,350.13Z"/><path class="cls-1" d="M617.56,342.79l-18.24-4.51,3.83-15.48a2,2,0,0,0-1.46-2.43l-9.08-2.25a2,2,0,0,0-2.43,1.47l-3.83,15.47-18.25-4.51a2,2,0,0,0-2.42,1.46l-2.25,9.08a2,2,0,0,0,1.46,2.43L583.13,348l-10.59,42.8a2,2,0,0,0,1.46,2.42l9.08,2.25a2,2,0,0,0,2.43-1.46l10.6-42.8,18.24,4.52a2,2,0,0,0,2.43-1.47l2.25-9.08A2,2,0,0,0,617.56,342.79Z"/><path class="cls-1" d="M712.52,364.42l-12.2-.81.69-10.35a1.31,1.31,0,0,0-1.22-1.38l-6.07-.41a1.32,1.32,0,0,0-1.39,1.22L691.65,363l-12.2-.81a1.31,1.31,0,0,0-1.39,1.21l-.4,6.08a1.3,1.3,0,0,0,1.21,1.38l12.2.81-1.89,28.62a1.31,1.31,0,0,0,1.21,1.39l6.07.4a1.31,1.31,0,0,0,1.39-1.22l1.9-28.61,12.19.8a1.31,1.31,0,0,0,1.39-1.21l.4-6.07A1.31,1.31,0,0,0,712.52,364.42Z"/></svg>