<svg id="OBJECTS" xmlns="http://www.w3.org/2000/svg" viewBox="0 0 750 500"><defs><style>.cls-1{fill:#fce4b3;}.cls-1,.cls-2{fill-rule:evenodd;}.cls-2{fill:#f3d6a2;}</style></defs><title>moon</title><path class="cls-1" d="M0,435V47.73a207.16,207.16,0,0,1,75.64-14.2c114.79,0,207.84,93.05,207.84,207.84S190.43,449.21,75.64,449.21A207.37,207.37,0,0,1,0,435Z"/><path class="cls-2" d="M210,390.44c.13-.56.26-1.14.37-1.76.79-4.1,2.16-8,4.11-8.8s6.65-2.74,8.22-2.74-1.18,6.07-1.18,6.07-6.24,5-5.83,6.76C213.77,390.11,211.86,390.27,210,390.44Z"/><path class="cls-2" d="M0,110.31V47.73a207.23,207.23,0,0,1,28.36-8.8c2.1-.1,4-.2,4.15,1,.2,2.35,4.31,5.67,4.31,5.67L38,51.1,27,59.31l-1,11s-2.54,3.91-6.26,3.91-7,1.76-7.63,3.32S7.09,84.74,6.5,88.06s3.71,1.38,2,4.5a35,35,0,0,1-4.11,5.68S5.91,102,5.72,104.1.44,109.78.44,109.78Z"/><path class="cls-2" d="M225.26,97.13A208,208,0,0,1,271,312.55c-.28-1.87.11-4.32,2.25-8.16L267,293s2.34-1.56,2.34-18S265,277,258,278.57s-.78-1.18-2-8.22-3.13.78-11.73,2.35-9,1.57-9.78-1.17-4.7-3.52-8.22-5.87-9.38-.39-9.38-.39a14.65,14.65,0,0,0-2.35,5.86c-.39,3.13.78,3.92,1.95,9s9,3.91,9,3.91l3.91-2.34s9,1.56,9,5.47-.78,4.7-.78,9-5.87,3.52-5.87,3.52l-7.82,2.74s-.79,10.95-2,16.43-11.34,4.69-20.34,5.87,0-5.09-.39-7.83-4.31-7.43-4.31-7.43a71.11,71.11,0,0,0-.39-7.82c-.39-2.35-5.87-3.13-5.47-5.87a5.47,5.47,0,0,1,2.73-3.91l-1.95-7-7,1.17c-2.35.39-3.52-7-3.52-7l-3.92-2-6.25,3.52s-2,4.7-1.57,7,3.91,5.87,5.48,9.39,0,7,.78,11.35,1.95.39,6.65,2.74,5.48,11.73,8.61,15.25,15.25,2,15.25,2l17.21,1.56,2,6.26s-10.17,6.26-13.3,8.61S207.09,356,207.09,356s-6.65,8.22-11.34,14.48-2,9.78-3.52,15.65c-.55,2-1,4.36-1.4,6.64a131.78,131.78,0,0,0-24,6c-19.77,7.35-37.37,17.38-53.88,25.08l-1.32-1.38-9-7.44-.19-5.86s-3.13-7.24-3.33-9.39,6.26-6.07,6.26-6.07.59-7-2.15-9.78-7.63-.78-9.39-1.56-1.76-4.89-3.32-6.06,7.23-5.29,7.23-5.29a47.21,47.21,0,0,0-.78-5.67c-.39-1.17-4.11-5.87-5.67-6.06s-6.85,2.74-6.85,2.74l-5.28-5.48L76.24,348s-8-.79-11.54-.79-6.27,6.26-6.27,6.26-3.91-1.76-5.28-2.54-8,1-10.75,1-7-.39-7-.39L32,344.29l-11.74-2-7.62-8.8,1.17-14.47S6.6,307.13,6.41,302.43s3.91-8.8,3.91-8.8l8.41-5.87L26,275.05l13.69-16.63L53,256.86s5.28-3.32,6.65-3.32,13.69.78,14.86.78,10.37-8.22,10.37-8.22L95,249.62s3.72,5.48,3.72,6.65-.59,6.65-.79,8,6.65-.39,6.65-.39l-.58,6.46s8.41,4.69,10.95,7.23,8.22,3.72,8.22,3.72,5.28-8.41,4.89-9.78-2.94-3.91-2.94-3.91l-1.95-6.46,5.67-3.52,6.06-.39,3.52,4.11,7.24.78,1.76,7.82s8.61,1.77,9.78,1.57,2.74-4.3,2.74-4.3,6.45-1,7.63-1,8.21-3.91,8.21-3.91l-.39-6.85-4.11-1.56s-.58-5.28-2.15-6.65-6.65-.79-6.65-.79l-5.87-2.93v-4.5l1.57-2.74s3.32-1.95,6.06-1.95,6.46,4.3,6.46,4.3l5.47-4.5,6.26-2,8.22-3.32.19-7.24-3.32-.58-6.65-3.13.58-7.44-4.69-5.28s-2.74,2.16-3.33,3.52-4.1,2.94-6.25,3.92-1.57-3.33-2-4.7-6.06-1.37-6.06-1.37-1.76,5.28-2.16,7.24S153.1,215,153.1,215s-3.52,4.5-3.52,6.07.79,4.3.79,6.26-4.11,5.08-5.29,5.28a12.34,12.34,0,0,1-3.52-.4s-4.3,4.11-4.89,5.48,4.89,2.74,5.48,4.31,0,2.93-1.76,6.25-2.74-1.56-5.09-2.15-8.8,1.57-8.8,1.57-5.28-1.57-5.47-2.74.58-6.06.58-6.06l-6.06-5.09,2-9.39-4.89-4.3L107.33,222s-.39,6.65-.19,7.83,3.32,3.32,3.32,3.32a36,36,0,0,0,0,6.65c.39,2,6.06,3.72,6.26,5.87s-2.34,4.7-6.45,6.65-6.65-2.35-6.65-2.35l1.56-4.89s-4.5-2.73-4.3-3.91-.78-4.11-1.17-5.28a4.37,4.37,0,0,0-3.92-2.34c-1.76,0-3.91,3.32-3.91,3.32l-5.28-.59s2.74-6.84,2.74-8-4.5-10.36-4.5-10.36l-8.41,2.54S69.58,223,66.84,224s-1.75,4.11-1,7-.78,5.48-3.72,5.28-4.3,1.18-6.45,3.72-1.57,5.67-3.33,5.67-4.11-1.76-7.24-1.17-9.19,3.71-10.75,2.93-.4-6.06-.4-6.06L31.44,234l1.76-6.26L36.72,225l5.68-1.76,8.21-1.76s4.69-4.89,4.69-6.07-2.73-4.69-2.73-4.69l1-6.65s4.5-1.57,5.68-2,7.62-2.74,9.78-3.52a11.81,11.81,0,0,0,4.1-3.13L76.23,189l9-7.43-4.5-6.07L78,169.63l3.72-3.72,5.08,1.37,3.33,9.78s2-1.37,3.32-.78,4.31,2.93,6.07,4.1,6.06-1,7.24-1.56,7-2,7.43-3.72,1.56-5.08,1.56-5.08,3.52-.78,5.28-2.55-.39-4.3-.39-4.3l1.57-6.26,3.32-2.34,4.11-1.77,6.45,1.57s5.48-1.57,7-2.15.58-3.32.58-3.32l-1.56-4.31-6.65.2s-5.67-2.94-6.85-3.91-5.08,2.93-5.08,2.93l-7.83-.78a44.47,44.47,0,0,1-.78-5.48c0-1.57,3.91-3.52,3.91-3.52l-.2-4.11a52.4,52.4,0,0,1,4.31-5.67c1.56-1.57-.78-4.3-.78-4.3l-4.11-2.16s-4.11.59-5.67,3.13.19,5.87.19,5.87l-1.56,9.88-5.18,2.44s-3.53,4.4-4.11,5.48,2,2.64,2,2.64,2.94,3.62,2.94,4.2a12.08,12.08,0,0,1-.69,3.72c-.49,1.08-1.76.69-4.6,2.25s.79,3.91.79,6.75-3.42,2.54-4,2.93-4,0-4,0a21.24,21.24,0,0,1-.88-2.44c-.1-.59-1.67-2.15-2-4.4a11.06,11.06,0,0,1,.59-4.6A10.85,10.85,0,0,0,87.09,153c-2.54-.39-4.69,1.95-6.45,3.13s-7.24,4.69-7.24,4.69l-4.89-1.76A48.45,48.45,0,0,0,72,153.78c.59-1.37-4.11-.78-4.11-2a21.35,21.35,0,0,1,.79-5.47c.58-2,2-3.13,4.3-6.46s4.5.2,5.67-1.17,1.37-5.09,2-6.46,6.25-1.17,10.75-3.52,1.18-2.93,2.16-5.67,4.89-2.93,4.89-2.93-1-4.89-1.37-6.65.19-6.46.39-10.17,3.13-4.5,4.89-7.83,4.5-.78,7.43-1.17,5.67-2.15,8.21-2.93,13.89-1,15.85-1S137,95.1,137,95.1,143.23,99,144.4,99s7.82.2,7.82.2,4.31,4.5,4.31,6.45-5.67,3.72-5.67,3.72l-2.74,5.48s-.79,5.08-.4,7.62,3.53.2,3.53.2a53.69,53.69,0,0,0,5.67,2.74c1.76.59,7-.39,8.8-1.76s.78-5.48,1.17-7.43,6.46-5.87,6.46-7v-4.1c0-2,10-1.37,10-1.37s7-2,8.81-2.94,4.1-.39,7.62.79,2.74,5.47,4.7,7,1-.79,1.76-2.94,1.17-1.37,2.93-1.56,3.52,2.74,5.48,3.71,3.52,0,5.47-.19,4.5-4.11,4.5-7.24a7.43,7.43,0,0,1,.67-3.25Zm1.22,147.6,8.61-.45s1.33-2.17-.62-7.52,1.84-5.45,1.84-5.45-1-.72-3.36-2.64-9.35-.22-10.31-1.22.55-2.57,1.66-6-1-1.43-2.34-2.9a9.57,9.57,0,0,1-2.45-5.71c-.09-2.11,2.57-6.45,2-7.95s-7.75-6.7-7.75-6.7a16.18,16.18,0,0,0-1.95,4.32c-.66,2.41-.83,5.19-.74,10s-.47,7.35,0,13.3a43.27,43.27,0,0,0,3.11,13.94,29.69,29.69,0,0,1,2,7Z"/><path class="cls-2" d="M78.09,34.27s-6.84,2-6.84,5.68A6.16,6.16,0,0,0,74,45.23s-.79,5.08-1.18,7.24S74,54,74.38,57.35s1,10,1,10,4.11-2.15,5.48-.19-.59,6.06,2.54,6.06,4.11-1.76,4.5-3.33,6.26-3.32,6.26-3.32S91,62.83,92,61.66s3.72-1.37,3.72-1.37,2.15,3.91,2.15,5.09,6.06.58,6.06.58,4.5,3.91,4.7-2.15,2-5.28.19-8.21-2.74-8.22-2.74-8.22l-3.52-3.91S97.46,40,97.26,38.38s-2.93-3.91-4.3-2.15-1,4.5-3.52,3.72a6.66,6.66,0,0,1-4.11-5.28C85.33,33.3,78.09,34.27,78.09,34.27Z"/><path class="cls-2" d="M129.46,40.58a205.25,205.25,0,0,1,22.13,7.27,8.39,8.39,0,0,0-2.89,3.63c.33,3.33-2.16,0-4.24-.19s-3.32-.39-4.78.39-3.32,2.54-6.23,2-5.41-1.76-4.78-3.33-1.87-6.06-1.87-6.06Z"/><path class="cls-2" d="M176.51,59.62q8.24,4.58,16,9.86c-1.18.4-2.93,2.74-2.93,2.74l-.39,4.69s1.37,2.74,2.35,4.31-3.13,2.73-4.3,5.08,1.36,2.54,1.95,3.72-1.76,1.76-4.3,4.3-3.33,1.37-3.33,1.37-3.13-1.37-4.3-3.72-5.67.59-6.85.59-4.3-5.87-4.3-5.87-1-3.52-.39-5.28-1.17-3.71-1.17-3.71a21.09,21.09,0,0,1-1-4.11c0-1.17,2.74-4.3,3.13-5.87s1-4.3,1-4.3l6.06-1.37Z"/><path class="cls-2" d="M205.71,79.27q7.33,5.9,14.12,12.43A6.89,6.89,0,0,1,218.25,94a31.82,31.82,0,0,1-3.72,2.15c-1.86.88-4.3,2.25-5.09,1.95s-5.18-1.56-5.38-4.1S202.3,89.72,202.3,88s1.08-1.76,1.08-2.74a12.34,12.34,0,0,1,.2-3.22,7.22,7.22,0,0,1,1-2.25S205.07,79.55,205.71,79.27Z"/><path class="cls-2" d="M0,138.38V123.85l1.15-1.59,6.65-.53s3.45,2.65,5.57,2.92,1.86-3.18,1.86-5.84,3.71-1.32,3.71-1.32l8-.8s3.45-2.92,6.89-2.92,4,4,4,4,1.33,5.57,1.6,8-2.92,3.45-2.92,3.45-8.49,4.24-9.82,8.75c.45,4.51-2.93,0-5.75-.26s-4.51-.53-6.48.53-4.51,3.45-8.46,2.65C3.4,140.32,1.1,139.48,0,138.38Z"/><path class="cls-2" d="M36.45,164.53l-12.52.4L19.24,169l-6.07,1.37s-.58,2.74-1,4.31-3.13,4.69-3.13,5.86a21.07,21.07,0,0,0,1,4.11s1.76,2,1.18,3.72.39,5.28.39,5.28,3.13,5.87,4.3,5.87,5.67-2.94,6.85-.59,4.3,3.72,4.3,3.72.78,1.17,3.32-1.37,4.9-3.13,4.31-4.31-3.13-1.37-2-3.71S38,189.77,37,188.2s-2.35-4.3-2.35-4.3l.39-4.7s1.76-2.34,2.93-2.74,3.91,1,4.11-1.56.59-7.63.59-7.63Z"/><path class="cls-2" d="M56.5,167.76S54,167,53.07,168s.69,3,0,3.71a14.17,14.17,0,0,1-3.22,1.67,7,7,0,0,0-1,2.25,12.79,12.79,0,0,0-.2,3.22c0,1-1.07,1-1.07,2.74s1.56,3.52,1.76,6.07,4.59,3.81,5.38,4.1,3.22-1.07,5.08-1.95a31.82,31.82,0,0,0,3.72-2.15s3.42-3,1.17-6.66-5.67-3.22-4.59-5.37,2.05-3.43,2.15-4-2-3.72-2-3.72Z"/></svg>