<svg id="OBJECTS" xmlns="http://www.w3.org/2000/svg" viewBox="0 0 750 500"><defs><style>.cls-1{fill:#c1481e;}.cls-1,.cls-2{fill-rule:evenodd;}.cls-2{fill:#a53724;}</style></defs><title>sky_1</title><path class="cls-1" d="M0,476.64V500H750V265.59c-80.46,6.75-173.71,8.44-271.5-2-180.6-19.22-337.19-47-478.5-41Z"/><path class="cls-2" d="M373.44,359.59s19.46-4.15,22.43-4,7.07-1.46,10.41-2.79,8.36-1,11.34-.61,9.48-2.06,13-3.4.18-4.12,5.94-2.79,24.54,2.92,33.08-2.66,16.73-11.41,26-10.2,13-1.45,21.19-3.88c8.51-2.52,7.76-3.47,10.73-3.12a42,42,0,0,0,8,.26c3.39-.25,5.19.59,9.51-.54,3.72-1,9.3-4.12,12.64-4.12s13-2.19,13-2.19,6,1,11.89,2.19,7.81-1.7,14.87-2.91,9.29-3.4,14.12-2.92,8.55-.72,13.39.73A61.15,61.15,0,0,0,636.91,319c4.09.48,17.84-3.4,23-3.16s1.12-2.42,10.78.25,31.59-.49,31.59-.49,1.12-2.18,9.3-1.21,7-3.39,15.78-.72,17.3.48,20.27,1.45,2.23,7,2.23,7l.1,178.56H2.62l24.71-14.12,26.43-5.34,21.64-4.74,20.13-11.16,24.36-15.48,18.74-1.81,39.68-10,16.15-10.4,11.79-4.49,18-6.84,21.49-5.4,25.35-7.2,24.87-13.92,23.44-4.32,13.84-10.65,22.69-8.64Z"/></svg>