<svg id="OBJECTS" xmlns="http://www.w3.org/2000/svg" viewBox="0 0 750 500"><defs><style>.cls-1{fill:#fff;}.cls-1,.cls-2{fill-rule:evenodd;}.cls-2{fill:#191919;}</style></defs><title>spider_web</title><path class="cls-1" d="M635,0a139.88,139.88,0,0,0,21.29,19.7c1.07,2.56,11.53,27.85,18,49.05,3.78,12.32,9.54,21.24,15.83,26a18.18,18.18,0,0,0,10.64,4.11,14.21,14.21,0,0,0,6.76-1.6v48.07a.68.68,0,0,0,.68.69.69.69,0,0,0,.69-.69V96.5A19.1,19.1,0,0,0,711,94.9c4.58-4,8.51-11.09,11-21.64A95.25,95.25,0,0,0,750,88V86.59a100.05,100.05,0,0,1-15.44-6.8c13.57-2.2,11.2-30.61,10.7-35.44,1.56-.16,3.14-.35,4.74-.56V42.4c-1.87.25-3.71.47-5.54.64h-.06q-4.35.41-8.54.54C724.77,36.71,725.15,15.27,725.23,13c3-4.23,5.68-8.46,8-12.48.49,7.62,3.12,31.34,16.77,40.05V38.87C737.28,30,735,6.85,734.57,0h-2.64c-2.29,4-4.9,8.09-7.86,12.23,0,0,0,0,0,0s-15.94,19.52-34.53,1A120.68,120.68,0,0,1,688,0h-2.56C682.57,6.14,673.92,20.55,657,18.54A138.69,138.69,0,0,1,636.77,0ZM750,13.45v4.28A112.32,112.32,0,0,1,745.59,0H747a119.07,119.07,0,0,0,3,13.45ZM728.75,0h3c-7.1,3.78-28.62,13.38-43.09,0h2.1c12.43,10.13,29.74,3.94,38,0ZM708.81,58.27a.75.75,0,0,0-.21-.26c-.78-1-1.53-2-2.26-3,3-4,1.67-9.86.91-12.34q2.91.57,5.91,1c.4,2.36,1.83,12.54-2.08,17.3-.78-.9-1.54-1.81-2.27-2.73Zm-1.31.59V69.52a9.88,9.88,0,0,1-2.44.58,14.61,14.61,0,0,1-7.87-1.49l0,0a24.41,24.41,0,0,1-6-4.14c-7.5-6.87-16.78-28.35-19.47-34.81,3.22,1.77,6.6,3.46,10.15,5,.62,1.32,3.4,7.25,6.31,12.68a22.89,22.89,0,0,0,6.17,7.27,11.21,11.21,0,0,0,4.13,2,6,6,0,0,0,4.24-.52,6.81,6.81,0,0,0,1.77-1.39c1,1.4,2,2.78,3.09,4.15Zm0,12.12V95.73a12.91,12.91,0,0,1-6.74,1.8,16.85,16.85,0,0,1-9.83-3.83c-6.07-4.64-11.65-13.32-15.35-25.35-5.68-18.53-14.35-40.12-17.21-47.1a132.11,132.11,0,0,0,11.35,7.31c1.16,2.88,11.87,29,20.47,36.9a25.59,25.59,0,0,0,6.38,4.37l0,0a16.05,16.05,0,0,0,8.6,1.62A12.26,12.26,0,0,0,707.5,71Zm1.37,23.85V70.42A10.5,10.5,0,0,0,712.13,68a12.08,12.08,0,0,0,1.55-2.14,84.76,84.76,0,0,0,7.17,6.46C718.4,82.91,714.57,90,710.09,93.86a15.23,15.23,0,0,1-1.22,1Zm0-26V60.56c1.21,1.44,2.48,2.87,3.81,4.27a10.76,10.76,0,0,1-1.56,2.24,9.19,9.19,0,0,1-2.25,1.8Zm-2.4-27.76a.75.75,0,0,0-.26,0q-3.72-.78-7.27-1.76A88.79,88.79,0,0,0,713,27.59c-.09,3.44.4,10.76,5.65,15.41-1.59-.17-3.16-.36-4.71-.58a.62.62,0,0,0-.23,0c-2.48-.35-4.9-.78-7.26-1.27Zm-.76,1.25c.54,1.52,2.38,7.45-.21,11.47l-.36-.52a.75.75,0,0,0-.2-.3,90.13,90.13,0,0,1-7.13-12.59q3.84,1.08,7.9,1.94ZM712,62c4.22-4.92,3.07-15,2.58-18.14,2.63.35,5.31.63,8.06.83.26,3.66,1.23,22.81-6.58,21.51-.67-.64-1.31-1.29-1.95-1.94a.66.66,0,0,0-.2-.21c-.65-.68-1.29-1.36-1.91-2.05ZM723.42,43.4a.65.65,0,0,0-.2,0l-2-.14c-7.75-4.9-7-15.5-6.79-17.16a122.82,122.82,0,0,0,9.36-11.22c0,5.81,1,21.74,9.73,28.79h-.39c-3.33,0-6.59,0-9.76-.25Zm-5.88,24.24c7.48-1,6.74-18.82,6.48-22.83,2.82.17,5.69.25,8.63.22.54,4.28,3.29,29.85-7.88,28.54-.9-.65-1.78-1.32-2.63-2a.7.7,0,0,0-.19-.15c-1.54-1.23-3-2.49-4.41-3.78Zm9.13,7.28C737,73.43,734.6,49.64,734,45c3.22-.06,6.5-.24,9.86-.54.51,4.86,3,34.7-11.54,34.06q-3-1.73-5.68-3.62ZM682.73,33.57a.68.68,0,0,0-.36-.15c-2.31-1-4.54-2.08-6.69-3.18,8.51.66,11.92-7.78,13.2-12.84a108.14,108.14,0,0,0,6.44,20.85,121.15,121.15,0,0,1-12.59-4.68Zm20.88,20A5.4,5.4,0,0,1,702,54.89a4.68,4.68,0,0,1-3.29.39,10.07,10.07,0,0,1-3.62-1.78,21.34,21.34,0,0,1-5.77-6.81c-2.28-4.26-4.49-8.83-5.62-11.21a123.78,123.78,0,0,0,12.36,4.42,91.42,91.42,0,0,0,7.56,13.64Zm9.76-28.29,0,0c-.47.43-12.29,10.86-20.79,1.25a110.36,110.36,0,0,1-2.65-11c12.39,11.26,23.52,6.89,29.8,2.43-2,2.48-4.1,4.91-6.34,7.26Zm-20,4c5.1,4.13,10.85,2.87,15,.88a83.09,83.09,0,0,1-11.25,8.7l-.13,0c-1.42-3.21-2.62-6.41-3.65-9.54Zm-5.21-15.49c-.24,1.94-3,20.27-17.66,13.68l-.13-.05a129.64,129.64,0,0,1-11.31-7.28c16.27.63,24.69-13.32,27.6-19.47A122.06,122.06,0,0,0,688.19,13.74Z"/><path class="cls-2" d="M720.18,153.22s-3.29-1.86-4.71-1.89a3.83,3.83,0,0,0-1.47.4,8.1,8.1,0,0,0-.18-1.65,2,2,0,0,1,.66-.32c1.09-.23,4.25.7,4.26.7a.42.42,0,0,0,.52-.29.41.41,0,0,0-.29-.51s-3.37-1-4.66-.72a2.6,2.6,0,0,0-.7.31,7.82,7.82,0,0,0-.36-.93,16.65,16.65,0,0,1,3.57-.31.41.41,0,0,0,.42-.41.41.41,0,0,0-.41-.42,16.54,16.54,0,0,0-4,.39,5.19,5.19,0,0,0-9.25,0,16.47,16.47,0,0,0-4-.39.42.42,0,0,0-.42.42.41.41,0,0,0,.42.41,16.77,16.77,0,0,1,3.58.31,6.41,6.41,0,0,0-.36.93,2.64,2.64,0,0,0-.71-.31c-1.29-.27-4.65.71-4.66.72a.42.42,0,0,0-.29.51.42.42,0,0,0,.52.29s3.18-.93,4.26-.7a1.88,1.88,0,0,1,.66.32,8.1,8.1,0,0,0-.17,1.65,3.92,3.92,0,0,0-1.48-.4c-1.41,0-4.7,1.88-4.71,1.89a.42.42,0,0,0,.41.73s3.12-1.76,4.32-1.79a3.79,3.79,0,0,1,1.5.5,8.67,8.67,0,0,0,.47,2,4.18,4.18,0,0,0-1.75,0c-1.36.4-4.05,3.05-4.05,3.06a.41.41,0,0,0,0,.59.42.42,0,0,0,.59,0s2.55-2.51,3.71-2.85a4.59,4.59,0,0,1,1.93.16,5.26,5.26,0,0,0,9.7,0,4.58,4.58,0,0,1,1.93-.16c1.15.34,3.69,2.84,3.7,2.85a.42.42,0,0,0,.59,0,.41.41,0,0,0,0-.59s-2.7-2.66-4.06-3.06a4.18,4.18,0,0,0-1.75,0,7.76,7.76,0,0,0,.47-2,3.79,3.79,0,0,1,1.5-.5c1.2,0,4.31,1.78,4.32,1.79a.42.42,0,1,0,.41-.73Z"/></svg>