<svg id="OBJECTS" xmlns="http://www.w3.org/2000/svg" viewBox="0 0 750 500"><defs><style>.cls-1{fill:#191919;fill-rule:evenodd;}</style></defs><title>tree_right</title><path class="cls-1" d="M687.65,477.63s17.93-33.21,22-45.93S732.56,335,733,327.26s-11.47-26.08-12.43-27.44-20.06-6.13-23.41-5.93-5.86.91-7,.9-4.15-1.86-5.13-2.41-.23-5.83,0-6.35,2.18-1,3-3.44-2.59-9-4.3-12.38-19.69-15.39-23-17.3-6.89-2.34-9.31-.22-6.59,6.43-9.28,6.86-17.62-3.61-19.2-4.3a29.42,29.42,0,0,1-4.69-3c-1.15-.84-3.81.9-5.73,1.43s-4.91,4.47-5.94,4.88,4.5-5.14,4.94-5.56,3.65-2.32,3.92-2.62-9-8.27-10.48-8.94A59.5,59.5,0,0,0,596,239c-1.68-.23-6.09,2-7.94,2.54s6.62-4.39,7.8-4.77,5.86.88,6.63,1-1.76-4.55-2-5.66,3.15,5,3.6,5.47a9.1,9.1,0,0,0,2.28,1.1c.4.13,11.74,8.74,13.51,9.64s14.66,3.86,15.59,3.91,2.81-1.54,3.21-2.1a27.76,27.76,0,0,0,.94-2.91,9.5,9.5,0,0,1,2.7-1.16,31.49,31.49,0,0,1,4.6.87c1.28.3,7-7,8-8s4.2-.49,7.34-.49,22.38,15,24.14,17,8,19.07,9.95,21.49,17,7.2,18.64,7.58,2-1.77,2.19-2.45-9.77-36.78-10.39-41.15,0-27.47-.29-30.46-27.77-22.71-32.09-26-29.93-9.89-37.35-11.94-9.36-6.89-13.49-10.29-8-1.36-10.75-.46S597.18,181,595.76,182.5s-7.91,2.38-9.88,2.74-28.2-10.62-30.15-11.08-20.48,3-23.36,4-8.28,9.13-10.5,11.37,6.53-11.56,8.2-13.45,11.74-5.89,12.77-6.62a15.67,15.67,0,0,0,2.36-2.74,5,5,0,0,1,1.59-.61c.46-.14-11.15-7.47-12.6-8.78s-5.85-10.71-6.11-11.66,6.94,9.66,7.68,10.24a7.14,7.14,0,0,0,3.34,1.1c.46-.14-2.19-16.16-1.86-19.82s12.77-27.59,13.55-29-9.37,28.62-9.61,30.44,3.25,16.11,4,17.5,11.16,9.09,12.58,10.15,20.73,7.35,22,7.64,8.78.5,10.14,0,13.11-15.4,14.51-17.51,5.26-11.13,6.59-12.93,4.39-1,6-.63,5.3,8.14,6.23,8.93,10,2.81,11.62,3.35,4.36,2.72,7,5.29,12,3.59,16.82,4.72,8.48-2.09,9-2.53,1.7-9.27,2-11.39,8.72-10.09,10.05-11.89,2.18-5.67,2.25-7.44-16.1-20.65-20.29-24.55-10.72.11-14-.66-8.56-4.75-8.77-5.94S638.4,92,638.4,92s.06-1.37-2.42-3-11.88-6.09-13.7-7.16-11.09-.88-12.72-.81-13.8,6.14-15,6.51a5.43,5.43,0,0,1-2.94-.23,7,7,0,0,0-2.72.38c-1.22.37-1.16-1.37-.42-1.88s20.67-9.67,21.86-10.45,14.79.35,16.45-.4,1.92-4.31,2.05-4.89-.72-2.11-.53-3,.93-4.46,1.18-5.25,1.38-2.16,1.64-2.83-.67-5.4-1.83-8-6.78-5.72-11.93-8.06-7.17-5.73-9-7.61-.64-2.12-.46-2.22,6.95,5.91,8,6.47,15.48,6.2,16.56,7,2.38,7.13,3.17,10.73.3,4.38-.36,6.34,2.35,14.12,3.77,16.64,5.78,7,7.73,8.55,12,2.55,13.49,2.72a16.67,16.67,0,0,1,8.75,4.56c3.38,3.3,14.28,11.37,14.9,11.75s2.26-1.34,2.26-1.34a4.37,4.37,0,0,0,.17-1.67c-.13-.68-3.24-9.16-3.15-10.28s1.8-.88,2.57-1,3.2-2.79,4.36-4.14-2.43-27.15-1.74-31.05,2.79-14.95,3.44-16.51,5.82-8.32,6.49-10.28,3.8-21.79,4.47-24.88,2.2.75,2.53,2.46-2.92,25-3.9,29.48S696.59,52.3,696,54.13s-.21,32.78.66,35.26,2,2.57,3.94,2.86,23.56-10,26.36-12.72,6.3-9.43,7.89-11.66-2.73-18.51-3-20.85,2.85-14.54,3.25-15.66-1.43-7.49-1.34-8.28.92.13,1.27.5,1.75,8.21,1.86,9.33-.37,1.34-.75,2.18a69.14,69.14,0,0,0-1.64,11.12c.15,1.5,6.26,18.2,7,18.78s3.49,1,4.83,1.28c.5.12,2-.67,3.65-1.75V72c-2.11,1.25-4.41,1-5.54,1.6-1.35.74-12.43,15.88-15.17,19.8s-24.56,10.21-27.73,11.75-3.67,5.33-4.61,6.73,4.15,15.6,4,20.76-8.65,13.75-10.88,17.46-1.28,5.88.21,12.08,6.48,5.07,11.51,6.24,5.16,2.43,6.65,4.24,1.27,5,1.72,6.57,5.23.89,6.5,1.92,3.94,5.39,6.15,8.58,3.7,5.74,8,6.73,10.07-5,12.4-6.71,5.54,1.29,6.85,1.82v23.13c-1.85,2.4-6.3,5.4-8.37,8-2.61,3.3-2.76,9.76-4.24,16.57s4.9,22.27,5.73,23.52,3.36,1.92,5.83,2.49l1,.25V500h-2.61Z"/><path class="cls-1" d="M560.53,159.34c0,.24,0,.52,0,.76a15.92,15.92,0,0,0,2.1,7.45l0,.06,0,.06a13.93,13.93,0,0,0,1.57,2,36.09,36.09,0,0,0,3.6,3.28c.32.26,2.67,2.42,3.13,2.09.56-.49-1.95-2.88-2.2-3.13-1.13-1.1-2.31-2.11-3.34-3.3a14.42,14.42,0,0,1-1.36-1.85l0,0s0,0,0-.05A14.86,14.86,0,0,1,562,160s-.08-.71-.1-.82c-.07-.37-.57-3.39-1-3.45C560.2,155.73,560.5,159,560.53,159.34Z"/><path class="cls-1" d="M549.08,136.45c.38.88.89,1.62,1.31,2.48a4.85,4.85,0,0,1,.47,1.63,5.64,5.64,0,0,1-.29,2.19,15.54,15.54,0,0,1-1.89,3.64l-.06.1a.36.36,0,0,0-.07.1,45.32,45.32,0,0,1-3.18,4.13,6,6,0,0,0-1.16,2,5.08,5.08,0,0,0-.22,2.05,8,8,0,0,0,1.49,3.68,11.7,11.7,0,0,0,.71,1c.28.33,3.75,4.4,4.36,4.07.62-.52-2.91-4.47-3.25-4.91s-.42-.6-.62-.91a6.78,6.78,0,0,1-1.16-3,3.59,3.59,0,0,1,.18-1.42,4.59,4.59,0,0,1,.88-1.45,45.69,45.69,0,0,0,3.34-4.26l.07-.11a.86.86,0,0,0,.07-.1,16.17,16.17,0,0,0,2-4.08,6.92,6.92,0,0,0,.31-2.82,6.09,6.09,0,0,0-.67-2.13c-.43-.82-1-1.56-1.36-2.38a4.48,4.48,0,0,1-.27-.69,3.7,3.7,0,0,1-.06-1.75c.11-.55.94-2.71.71-2.91-.62-.28-1.73,2.3-1.85,2.64a4.6,4.6,0,0,0-.1,2.33A5.3,5.3,0,0,0,549.08,136.45Z"/><path class="cls-1" d="M537.33,184.76a14.29,14.29,0,0,1,1.62-4.94,0,0,0,0,0,0,0l0,0c.14-.25.29-.48.45-.72a30.26,30.26,0,0,1,2.72-3c.24-.27,2.2-2.31,1.69-2.76s-2.35,1.49-2.66,1.75a24.06,24.06,0,0,0-3.06,3.08,8.11,8.11,0,0,0-.57.83l0,0s0,0,0,0a14,14,0,0,0-1.57,5.59,18.21,18.21,0,0,0-.05,2.56s0-.1.05-.12-.33.78,0,1,.69-.3.83-.51a.77.77,0,0,0,.1-.29Z"/><path class="cls-1" d="M589.9,196.85a2.77,2.77,0,0,1,.42-.7,8,8,0,0,1,3.29-2.69,9.55,9.55,0,0,1,2.06-.29,1.77,1.77,0,0,0,.6-.2,1.7,1.7,0,0,0,.56-.47,3.59,3.59,0,0,0,.59-1.51s0-.24.05-.29v-.06s0,0,0-.06a51.92,51.92,0,0,0,.19-6.36c0-1.74.14-3.39.28-5.11,0-.46.57-4.3-.29-4.33s-1,3.74-1.09,4.17a40.6,40.6,0,0,0-.46,5.27,48.28,48.28,0,0,1-.27,6.13.43.43,0,0,0,0,.05.43.43,0,0,1,0,0,2,2,0,0,0,0,.24,2.48,2.48,0,0,1-.26.81s0,0,0,0-.11,0-.12,0a10.72,10.72,0,0,0-2.31.39,9.47,9.47,0,0,0-3.89,3.29,4.74,4.74,0,0,0-.58,1.07c-.08.24-.14.46-.2.7a10.76,10.76,0,0,0-.19,1.78c0,.5,0,1,0,1.49,0,.27-.13.91.07,1.1.41.32.76-.75.82-1a11,11,0,0,0,.29-1.53,11.7,11.7,0,0,1,.32-1.54A3.24,3.24,0,0,1,589.9,196.85Z"/><path class="cls-1" d="M619.3,179.79a8.47,8.47,0,0,1,1.75-.75,25.62,25.62,0,0,1,7.55-.76,17.51,17.51,0,0,0,2.17-.1l.11,0h.1a5,5,0,0,0,.77-.17,2.86,2.86,0,0,0,1-.45,1.62,1.62,0,0,0,.59-.8,1.79,1.79,0,0,0,.05-.86,3.27,3.27,0,0,0-.21-.7c-.14-.36-.32-.72-.44-1.09a2.38,2.38,0,0,1-.06-.37.43.43,0,0,1,0-.22.74.74,0,0,1,.23-.27,3,3,0,0,1,.67-.38,12.46,12.46,0,0,1,2.69-.67c.68-.1,6.7-.58,6.8-1-.17-.75-6.38-.4-7-.35a12.79,12.79,0,0,0-3.07.63,4.5,4.5,0,0,0-1.08.58,2.26,2.26,0,0,0-.67.8,2.07,2.07,0,0,0-.22.91,3.26,3.26,0,0,0,.13.82,10.32,10.32,0,0,0,.46,1.22c0,.14.07.24.11.38v.09s0,0,0,0a1.54,1.54,0,0,1-.42.17,3.27,3.27,0,0,1-.56.11l-.09,0h-.08a18.58,18.58,0,0,1-2,.11,25.53,25.53,0,0,0-8,1,9,9,0,0,0-2,1,6.32,6.32,0,0,0-1.34,1.19,5,5,0,0,0-1,1.78c-.13.25-.36,2.2.17,2.2.29,0,.67-1.46.83-1.83a4.66,4.66,0,0,1,.9-1.3A6,6,0,0,1,619.3,179.79Z"/><path class="cls-1" d="M626.13,183.26a10.15,10.15,0,0,0,.56-3.2v0s0,0,0,0a4.32,4.32,0,0,1,0-.51,2.6,2.6,0,0,1,.07-.56.45.45,0,0,1,.13-.22,1.63,1.63,0,0,1,.58-.27h0c.44-.15,1.38-.29,1.4-.79s-1.27-.58-1.65-.58h0a2.66,2.66,0,0,0-1.19.39,2,2,0,0,0-.73.9,3.88,3.88,0,0,0-.22,1c0,.07,0,.47,0,.58a0,0,0,0,0,0,0s0,0,0,0a12.53,12.53,0,0,1-.24,2.85c-.09.46-.56,1.79-.12,2.06C625.27,185.26,626,183.61,626.13,183.26Z"/><path class="cls-1" d="M642.62,115.59a35,35,0,0,0,11.66-4.13l.07,0a.2.2,0,0,0,.08,0c.68-.38,1.34-.77,2-1.16a14.32,14.32,0,0,1,6.1-2.34,9.64,9.64,0,0,1,2.21.1c1,.19,6.29,2.07,6.46,1.89.33-1-5.62-3.11-6.22-3.26a10.31,10.31,0,0,0-2.54-.22c-2.72.2-4.48,1.13-6.81,2.42l-2,1.13-.08,0-.08,0a36,36,0,0,1-11.1,4.21c-.72.13-8.23,1-8.31,1.38C634.29,116.56,642,115.68,642.62,115.59Z"/><path class="cls-1" d="M645.15,119.58a6.34,6.34,0,0,0,.69-.34,2.21,2.21,0,0,0,1-1.12,5.71,5.71,0,0,0,.32-2.09.14.14,0,0,0,0-.06v0s0,0,0,0l.06-.14c0-.08.29-.42.33-.5a9.91,9.91,0,0,1,1.28-1.23c.36-.29.73-.56,1.1-.84.55-.4,1.27-.71,1.07-1.36s-1.37,0-1.81.19a13.7,13.7,0,0,0-1.27.81,10,10,0,0,0-1.59,1.38,4.53,4.53,0,0,0-.58.8,2,2,0,0,0-.16.36s0,0,0,.06a.14.14,0,0,0,0,.06,1.73,1.73,0,0,0-.07.5,5.53,5.53,0,0,1-.14,1.52.83.83,0,0,1-.32.44l-.56.37c-.33.24-1.88,1.51-1.32,2C643.48,120.61,644.66,119.79,645.15,119.58Z"/><path class="cls-1" d="M594.33,104.5c.11-.27.24-.54.35-.8a11.34,11.34,0,0,1,4.65-5.27A44.41,44.41,0,0,0,604,95.22a6.51,6.51,0,0,0,.73-.67l.11-.12.12-.12a5.27,5.27,0,0,0,1-1.75c.53-1.69.55-5.9.83-8A3.59,3.59,0,0,1,608,82.5a8.36,8.36,0,0,1,1.6-1.24c.24-.15.48-.28.72-.41.58-.29,5.62-2.22,5.49-2.79-.38-.74-5.67,1.4-6.09,1.58a7.84,7.84,0,0,0-.82.41,9.63,9.63,0,0,0-2,1.42,5,5,0,0,0-1.53,2.87c-.26,1.76-.43,6.36-.86,7.67a3.72,3.72,0,0,1-.75,1.2l-.08.1-.1.09c-.19.2-.39.38-.61.57a41.16,41.16,0,0,1-4.48,3.12,12.45,12.45,0,0,0-5.12,6s-.3.76-.34.87a45.18,45.18,0,0,0-1.65,6.35c0,.18,0,.63.25.66.08,0,.32-.39.35-.45A61.26,61.26,0,0,0,594.33,104.5Z"/><path class="cls-1" d="M600,102.77a3.68,3.68,0,0,0,.17-2c-.09-.65-.18-1.3-.26-2a0,0,0,0,0,0,0,0,0,0,0,0,0,0c0-.14,0-.28-.07-.42s0-.23,0-.09a.59.59,0,0,1-.15.2.26.26,0,0,1-.11.07,12.51,12.51,0,0,0,1.11-.62c.29-.28,1.71-1.83,1.15-2.29-.38-.22-1.44.85-2,1.15a3.73,3.73,0,0,1-.91.3,1.2,1.2,0,0,0-.34.21,1,1,0,0,0-.29.41,1.88,1.88,0,0,0-.09.78,3.37,3.37,0,0,0,0,.52V99c.09.65.25,1.32.35,2a3.73,3.73,0,0,1,.06,1.33c-.06.37-.46,1.42.07,1.61S599.81,103.1,600,102.77Z"/><path class="cls-1" d="M609.2,54.21a16,16,0,0,0,2.85-.3,9.81,9.81,0,0,1,2.75-.32,3,3,0,0,1,1.44.38,2.21,2.21,0,0,1,.75.77,7.49,7.49,0,0,1,.56,1.18c.14.33.28.67.45,1l.06.1.06.12.1.16a3.19,3.19,0,0,0,1.28,1.19,3.89,3.89,0,0,0,2.1.36,11.71,11.71,0,0,0,3-.73,4.57,4.57,0,0,1,2.71-.2,4.15,4.15,0,0,1,1.79,1l.2.19a6,6,0,0,1,1.25,2c.15.48.39,2.26.65,2.35.78.09.49-2.37.44-2.66a6.2,6.2,0,0,0-1.32-2.65s-.2-.23-.23-.27a5.33,5.33,0,0,0-2.38-1.45,5.86,5.86,0,0,0-3.63.16,10.34,10.34,0,0,1-2.56.59,2.41,2.41,0,0,1-1.25-.2,1.59,1.59,0,0,1-.63-.63l-.07-.11,0-.07a.2.2,0,0,0,0-.08c-.14-.29-.27-.57-.39-.86a9.3,9.3,0,0,0-.71-1.41,3.74,3.74,0,0,0-1.31-1.28,4.52,4.52,0,0,0-2.18-.57,11.78,11.78,0,0,0-3.18.43,16,16,0,0,1-2.56.37c-.55,0-5.64.06-5.72.73S608.82,54.22,609.2,54.21Z"/><path class="cls-1" d="M632.58,33.85c-.17.35-.33.68-.47,1a8.37,8.37,0,0,0-.62,2.61,4.54,4.54,0,0,0,.1,1.27,3,3,0,0,0,.54,1.16,17.24,17.24,0,0,1,1.48,2.23l0,.05s0,0,0,.06a5.39,5.39,0,0,1,.36.86,2.66,2.66,0,0,1-.12,1.8c-.38,1-.77,1.89-1.06,3-.1.47-.81,4.72.07,4.85.36-.05,1.05-3.8,1.26-4.46.36-1,.79-1.86,1.2-2.83a4.19,4.19,0,0,0,.22-2.79,6.53,6.53,0,0,0-.45-1.18l0-.06,0-.07A17,17,0,0,0,633.4,39a1.69,1.69,0,0,1-.28-.57,2.82,2.82,0,0,1-.08-.82,7.22,7.22,0,0,1,.44-2.16,7.56,7.56,0,0,1,.36-.95c.25-.55,1.7-2.93,1.36-3.31C634.47,30.5,632.77,33.53,632.58,33.85Z"/><path class="cls-1" d="M637.15,36.23l-.15.08c-.54.25-1.12.53-1.63.83l-.41.24v0h0a5.32,5.32,0,0,0-1.24,1.22,3.42,3.42,0,0,0-.48,1c-.1.4-.19,1.47.47,1.45.47,0,.63-.61.84-1a2.79,2.79,0,0,1,.4-.57,4.44,4.44,0,0,1,1-.78s0,0,0,0h0a3.15,3.15,0,0,0,.33-.22c.52-.34,1.07-.64,1.56-1,.06,0,.12-.1.18-.15a2.28,2.28,0,0,0,.43-.5c.19-.33.37-.81-.12-.93a1,1,0,0,0-.73.12Z"/><path class="cls-1" d="M607.56,58.78a5.83,5.83,0,0,0,1.05-.55,15.07,15.07,0,0,0,2.1-1.71l0,0,0,0,.16-.17c.63-.63,1.22-1.24,1.91-1.81a4.54,4.54,0,0,1,.5-.36c.42-.28,1.27-.6,1.29-1.06,0-.82-1.58-.31-2-.17a7.62,7.62,0,0,0-.69.38,16.29,16.29,0,0,0-2.21,1.85l-.16.15s0,0,0,0l0,0A22,22,0,0,1,607.75,57a7.25,7.25,0,0,1-.79.53c-.43.26-1.37.61-1.35,1.1C605.68,59.36,607.21,58.91,607.56,58.78Z"/><path class="cls-1" d="M738.69,92.35a12.46,12.46,0,0,0-1.36.11,9.61,9.61,0,0,0-2.73.74A5.69,5.69,0,0,0,732.33,95a.74.74,0,0,1,.25-.22s0,0,0,0l-.32,0c-.24,0-.5,0-.75.07h-.16c-.13,0-.28,0-.41,0-1.37.09-2.75.14-4.13.19s-2.79.07-4.18.14c-.53,0-2.92,0-2.88.77s2.32.61,2.9.63c1.38,0,2.83,0,4.2,0s2.78,0,4.19-.1l.43,0h.17l.85-.09c.18,0,.34-.07.51-.1a1,1,0,0,0,.26-.1,1,1,0,0,0,.39-.31,4.22,4.22,0,0,1,1.61-1.35,8.36,8.36,0,0,1,2.28-.7c.42-.07.82-.13,1.24-.17s3.52-.08,3.57-.74S739.05,92.34,738.69,92.35Z"/><path class="cls-1" d="M736.5,99.16a14.88,14.88,0,0,1-1.24-2.41v0s0,0,0,0a2.59,2.59,0,0,0-.19-.33,2.19,2.19,0,0,0-.62-.7,2.44,2.44,0,0,0-1-.39,5.73,5.73,0,0,0-1.19-.07c-.37,0-2,.07-2,.65s1.5.67,1.9.74a6.14,6.14,0,0,1,.93.19.8.8,0,0,1,.35.16.73.73,0,0,1,.16.23l.11.24h0a11.17,11.17,0,0,0,1.63,2.55c.24.27,1.72,1.89,2.18,1.43S736.75,99.55,736.5,99.16Z"/><path class="cls-1" d="M717.68,172.87a7.84,7.84,0,0,1-.22,1.87,14.25,14.25,0,0,0,.21,5.63c.15.78.32,1.55.53,2.31l0,.08a.29.29,0,0,0,0,.09c.4,1.42.88,2.79,1.42,4.17a32.1,32.1,0,0,0,2.38,4.9c.15.25.3.48.47.72a7.8,7.8,0,0,0,1.51,1.73,2.23,2.23,0,0,0,.75.46c.17.09.71.19.73-.13s-.21-.39-.34-.51a5.49,5.49,0,0,1-.44-.52c-.4-.58-.73-1.12-1.1-1.73-.13-.21-.26-.48-.37-.7a46.47,46.47,0,0,1-2.12-4.79c-.49-1.35-.92-2.66-1.3-4,0,0,0-.06,0-.08a.29.29,0,0,1,0-.09c-.21-.73-.39-1.45-.55-2.19a14,14,0,0,1-.35-5,7.72,7.72,0,0,0,.17-2.25,5.36,5.36,0,0,0-.65-2.18c-.22-.38-.92-1.67-1.53-1.58s.34,1.7.49,2.05A6.32,6.32,0,0,1,717.68,172.87Z"/><path class="cls-1" d="M721.18,173.6a22.66,22.66,0,0,1-1.3,4v0l0,0-.35.87a11.76,11.76,0,0,0-.85,2.84,5.54,5.54,0,0,0,0,.71c0,.4.35,2.5,1.13,2.24.4-.2.21-1.62.27-2.19,0-.09.08-.5.08-.53a12.51,12.51,0,0,1,.89-2.44c.13-.29.27-.58.39-.87,0,0,0,0,0,0l0,0a16.14,16.14,0,0,0,1.13-4.47c0-.35.21-2.85-.49-2.85C721.52,171,721.28,173.13,721.18,173.6Z"/><path class="cls-1" d="M618.45,236.19c.27.19.52.36.77.57a1.3,1.3,0,0,1,.44.7,3.27,3.27,0,0,1,0,1.08c-.12,1.15-.35,2.17-.42,3.35a7.13,7.13,0,0,0,1.09,4.3l.06.09.05.07,0,.08a13.33,13.33,0,0,0,5.1,4c1.63.82,3.08,1.77,4.66,2.64l.26.14c.36.17,5,2.14,5.13.9,0-.14-3.82-1.74-4.45-2.1l-.24-.15c-1.57-1-3-1.93-4.66-2.83a11.82,11.82,0,0,1-4.44-3.51l0,0,0-.06s0-.07,0-.07a5.59,5.59,0,0,1-.88-3.36c-.08-.27.32-2.73.35-3.28a4.78,4.78,0,0,0-.13-1.6,2.74,2.74,0,0,0-1-1.42,7.89,7.89,0,0,0-.93-.61c-.6-.37-1.27-.74-1.84-1.15a13.28,13.28,0,0,1-1.4-1.07c-.23-.24-.82-1.06-1.07-1.05-.62.12.2,1.5.33,1.69a7.58,7.58,0,0,0,1.4,1.43C617.22,235.35,617.83,235.76,618.45,236.19Z"/><path class="cls-1" d="M619.09,229l.12.7c.14,1,.21,2,.26,3.05,0,0,0,0,0,0s0,0,0,0,0,.05,0,.08c.1,1.37.12,2.91.31,4.25.08.45.2,1.41.86,1.25s.51-.79.53-1.34c0-1.39,0-2.87,0-4.26v-.08a.06.06,0,0,1,0,0v0a20.89,20.89,0,0,0-.46-3.24,6.34,6.34,0,0,0-.23-.79c-.13-.35-.8-1.88-1.41-1.32C618.65,227.63,619,228.45,619.09,229Z"/><path class="cls-1" d="M622.54,266.92a31.87,31.87,0,0,1,8.78-2.42l.1,0h.12c1.68-.21,3.36-.36,5.06-.49a4,4,0,0,0,1.29-.44,16.66,16.66,0,0,0,1.45-.9,41.45,41.45,0,0,0,3.27-2.64c.23-.18.48-.43.7-.64a31,31,0,0,0,2.19-2.25c.14-.16,1.77-1.9,1.1-2.18-.48-.17-1.54,1.07-1.89,1.4,0,0-2.16,1.85-2.32,2s-.49.39-.72.59c-1,.87-2.08,1.68-3.21,2.45a12.91,12.91,0,0,1-1.29.77,2.38,2.38,0,0,1-.69.25c-1.71.12-3.45.24-5.15.45l-.11,0h-.11a29.81,29.81,0,0,0-9.1,2.77c-1.77.79-3.63,1.59-5.36,2.45-.13,0-.56.53-.5.74l.77,0C616.9,268.94,622.11,267.08,622.54,266.92Z"/><path class="cls-1" d="M624.85,272.18a6.39,6.39,0,0,0,.79-1,33.67,33.67,0,0,0,1.61-3l.15-.27v0l0,0a7.81,7.81,0,0,1,1.6-2.2,5.58,5.58,0,0,1,1.13-.8c.5-.26,2.07-.74,2.07-1.2-.12-.8-2.26-.19-2.64-.07a5.92,5.92,0,0,0-1.56.9,8.73,8.73,0,0,0-2.06,2.58l0,0a.05.05,0,0,1,0,0c0,.07-.12.26-.15.3-.49,1-.9,2-1.42,2.95a7.24,7.24,0,0,1-.57.87,8.27,8.27,0,0,1-1.11,1.17l-.18.18c-.1.07-.09.09-.13.18a.26.26,0,0,0,.18.24c.14.05.22,0,.28,0s0,.09-.05.1.18,0,.22,0A3.26,3.26,0,0,0,624.85,272.18Z"/><path class="cls-1" d="M669.56,226.9c.71.43,1.44.83,2.17,1.23a15.5,15.5,0,0,1,4.91,5.39,47.84,47.84,0,0,1,2.35,4.41l.07.13.06.13c.67,1.42,1.27,2.83,1.86,4.28,1.53,3.87,2.77,7.63,4,11.61.14.46,1.57,6,2.24,5.93s-.81-6-.9-6.31a114,114,0,0,0-3.82-11.83c-.58-1.47-1.19-2.94-1.86-4.38l-.07-.14-.06-.13a48.89,48.89,0,0,0-2.49-4.55,16.27,16.27,0,0,0-5.58-5.84c-.73-.37-1.45-.74-2.17-1.14s-1.52-.87-2.27-1.38a12.35,12.35,0,0,1-2-1.64,5.26,5.26,0,0,1-.64-.85c-.14-.17-.35-.88-.58-.88-.4,0-.19,1-.14,1.18a4.18,4.18,0,0,0,.57,1.16,9.48,9.48,0,0,0,2,2A23.1,23.1,0,0,0,669.56,226.9Z"/><path class="cls-1" d="M668.7,213.94c.3.52.58,1,.85,1.56a13.24,13.24,0,0,1,1.53,4.71c0,.58,0,1.17.07,1.75,0,0,0,.08,0,.13v.12c.14,2.84-.17,3.65,1.72,5.68.48.52,2.84,3.89,3.22,3.77.58-.47-1.82-4.2-2.14-4.66-1.43-1.89-1-2.25-1.14-4.86a.62.62,0,0,1,0-.13.49.49,0,0,0,0-.12c0-.59,0-1.17-.08-1.76a13.76,13.76,0,0,0-1.86-5.32,18.66,18.66,0,0,0-1-1.61c-.19-.28-2.19-3.06-2.79-2.41C666.75,211.21,668.43,213.49,668.7,213.94Z"/><path class="cls-1" d="M654.58,65.9a19.73,19.73,0,0,1,.83,6.8A24.29,24.29,0,0,0,657,81.1a1.17,1.17,0,0,0,0,.11c0,.05,0,.09,0,.13a37.81,37.81,0,0,0,2.41,5.06,45.61,45.61,0,0,0,4.74,6.79c.24.28,4,4.62,4.6,4,.32-.45-3.19-4.47-3.52-4.89a54.18,54.18,0,0,1-4.43-6.69,38.44,38.44,0,0,1-2.25-4.88l0-.11,0-.12a23.21,23.21,0,0,1-1.6-7.82c0-2.33-.09-5.22-1.1-7.38-.11-.18-2.14-3-2.54-3C652.39,62.66,654.38,65.51,654.58,65.9Z"/><path class="cls-1" d="M650.13,74.79c.21.16.44.34.65.48.5.35,1,.68,1.53,1a3.86,3.86,0,0,0,1.47.52,1,1,0,0,1,.32.16,3,3,0,0,1,.51.45l0,0,0,0,.05,0a13.11,13.11,0,0,1,1.48,2.06c.49.82.9,1.61,1.32,2.47.24.48.71,1.88,1.33,1.78s.08-2-.05-2.32a20.7,20.7,0,0,0-1.24-2.71A14,14,0,0,0,656,76.39l-.06-.07,0,0,0,0a4.26,4.26,0,0,0-.8-.66,2.27,2.27,0,0,0-1.15-.4,2.9,2.9,0,0,1-.82-.3c-.11,0-1.24-.71-1.44-.82s-.47-.28-.67-.41c-.41-.24-2-1.39-2.4-.75S649.73,74.47,650.13,74.79Z"/></svg>