<?xml version="1.0" encoding="UTF-8" standalone="no"?>
<svg
   xmlns:dc="http://purl.org/dc/elements/1.1/"
   xmlns:cc="http://creativecommons.org/ns#"
   xmlns:rdf="http://www.w3.org/1999/02/22-rdf-syntax-ns#"
   xmlns:svg="http://www.w3.org/2000/svg"
   xmlns="http://www.w3.org/2000/svg"
   xmlns:sodipodi="http://sodipodi.sourceforge.net/DTD/sodipodi-0.dtd"
   xmlns:inkscape="http://www.inkscape.org/namespaces/inkscape"
   viewBox="0 0 537.23 388.58"
   version="1.1"
   id="svg77"
   sodipodi:docname="witch.svg"
   inkscape:version="0.92.1 r15371">
  <metadata
     id="metadata81">
    <rdf:RDF>
      <cc:Work
         rdf:about="">
        <dc:format>image/svg+xml</dc:format>
        <dc:type
           rdf:resource="http://purl.org/dc/dcmitype/StillImage" />
      </cc:Work>
    </rdf:RDF>
  </metadata>
  <sodipodi:namedview
     pagecolor="#ffffff"
     bordercolor="#666666"
     borderopacity="1"
     objecttolerance="10"
     gridtolerance="10"
     guidetolerance="10"
     inkscape:pageopacity="0"
     inkscape:pageshadow="2"
     inkscape:window-width="1366"
     inkscape:window-height="728"
     id="namedview79"
     showgrid="false"
     inkscape:zoom="0.93814571"
     inkscape:cx="300.79527"
     inkscape:cy="267.38199"
     inkscape:window-x="0"
     inkscape:window-y="0"
     inkscape:window-maximized="1"
     inkscape:current-layer="Layer_2" />
  <defs
     id="defs7">
    <style
       id="style2">.cls-1{fill:none;}.cls-2{clip-path:url(#clip-path);}.cls-3{fill:#a44401;}.cls-4{fill:#b64927;}.cls-5{fill:#e77732;}.cls-6{fill:#edab7a;}.cls-7{fill:#ebf7ef;}.cls-8{fill:#dfeae3;}.cls-9{fill:#c9d3cd;}.cls-10{fill:#ba4721;}.cls-11{fill:#98290b;}.cls-12{fill:#64190f;}.cls-13{fill:#330700;}</style>
    <clipPath
       id="clip-path">
      <rect
         class="cls-1"
         x="62.56"
         y="97.41"
         width="383.4"
         height="170.1"
         transform="translate(508.52 364.91) rotate(180)"
         id="rect4" />
    </clipPath>
  </defs>
  <title
     id="title9">OBJECTS (2)</title>
  <g
     id="Layer_2"
     data-name="Layer 2"
     transform="translate(-6.395595,-6.395595)">
    <g
       id="OBJECTS">
      <g
         class="cls-2"
         clip-path="url(#clip-path)"
         id="g73">
        <rect
           class="cls-3"
           x="56.52"
           y="97.410004"
           width="389.44"
           height="174.60001"
           transform="rotate(180,251.24,184.71)"
           id="rect11"
           style="fill:#a44401" />
        <circle
           class="cls-4"
           cx="342.94"
           cy="194.28999"
           r="194.28999"
           id="circle13"
           style="fill:#b64927" />
        <circle
           class="cls-5"
           cx="342.94"
           cy="194.28999"
           r="140.72"
           transform="rotate(-45,342.93777,194.29052)"
           id="circle15"
           style="fill:#e77732" />
        <circle
           class="cls-6"
           cx="342.94"
           cy="194.28999"
           r="93.809998"
           id="circle17"
           style="fill:#edab7a" />
        <circle
           class="cls-7"
           cx="342.94"
           cy="194.28999"
           r="59.32"
           id="circle19"
           style="fill:#ebf7ef" />
        <path
           class="cls-8"
           d="m 298.77,164.43 a 12.5,12.5 0 0 1 1.54,-3.71 13.4,13.4 0 0 1 2.34,-2.42 152.63,152.63 0 0 1 18.76,-13.83 c 4.51,-2.82 9.71,-5.49 14.91,-4.38 -0.44,1.59 1.75,2.54 3.39,2.56 1.64,0.02 3.8,0.19 4.18,1.79 a 13.87,13.87 0 0 1 0,1.71 c 0.22,2.1 2.87,2.74 4.82,3.56 2.79,1.17 4.83,3.58 7,5.65 2.17,2.07 5,4 8,3.71 4.6,-0.42 8.4,-5.75 12.79,-4.32 4.74,1.54 4.33,9.07 8.51,11.78 0.87,0.57 2,0.95 2.42,1.88 a 8.06,8.06 0 0 1 0.32,2.47 c 0.27,1.85 1.92,3.2 2.5,5 0.58,1.8 -0.07,4 0.42,6 0.49,2 2,3.33 2.63,5.16 a 11.88,11.88 0 0 1 0.38,4.21 c -0.12,3.64 -0.23,7.28 -0.35,10.91 a 4.13,4.13 0 0 1 -0.44,2.12 4.2,4.2 0 0 1 -1.89,1.32 l -5.76,2.69 a 5,5 0 0 1 -2.43,0.67 c -1.55,-0.1 -2.63,-1.53 -4,-2.29 -2.7,-1.52 -6.05,-0.25 -8.87,1 -5.12,2.33 -10.74,5.19 -12.53,10.52 -1.31,3.88 -0.27,8.39 -2.15,12 -2,3.84 -6.59,5.48 -10.85,6.19 a 25.22,25.22 0 0 1 -9,0.11 c -3.36,-0.65 -6.44,-2.3 -9.76,-3.16 -3.12,-0.82 -6.4,-0.94 -9.51,-1.81 -8.71,-2.44 -14.64,-10.26 -19.87,-17.63 a 20.67,20.67 0 0 1 -3.3,-5.94 c -0.82,-2.73 -0.49,-5.64 -0.44,-8.49 0.08,-4.81 -0.67,-9.62 -0.43,-14.43 a 22.72,22.72 0 0 1 2,-8.75 c 0.86,-1.78 2.31,-3.25 3,-5.13 0.8,-2.15 1.05,-4.5 1.67,-6.72 z"
           id="path21"
           inkscape:connector-curvature="0"
           style="fill:#dfeae3" />
        <path
           class="cls-9"
           d="m 318.81,163.74 c 0,-0.06 -1,-5.57 -2.09,-3.74 a 1.45,1.45 0 0 0 -0.82,-2 2.46,2.46 0 0 0 -2.29,0.47 9.62,9.62 0 0 0 -1.61,1.83 9.08,9.08 0 0 1 -4.94,3.52 c -1.09,0.23 -2.38,0.2 -3.12,1.05 -1.47,1.68 0.13,5.53 -0.44,7.73 -0.79,3.07 -2.93,5.71 -4.48,8.41 -1.55,2.7 -2.72,5.9 -1.86,8.89 0.86,2.99 4.53,5.24 7.21,3.65 a 8.07,8.07 0 0 0 2.11,-2.13 l 4.17,-5.42 a 9.64,9.64 0 0 0 1.51,-2.42 c 0.85,-2.23 0,-4.79 0.57,-7.11 0.57,-2.32 2.37,-3.94 3.67,-5.86 a 14.47,14.47 0 0 0 2.41,-6.87 z"
           id="path23"
           inkscape:connector-curvature="0"
           style="fill:#c9d3cd" />
        <path
           class="cls-7"
           d="m 326.64,185.45 a 3.87,3.87 0 0 1 -2.19,2.55 5.8,5.8 0 0 1 -3.66,-0.31 l -1.53,-0.48 a 7.58,7.58 0 0 1 -1.95,-0.81 4,4 0 0 1 -1.49,-4.54 c 0.59,-1.84 2.72,-2.26 2.84,-4.5 0,-0.32 0,-0.7 0.27,-0.9 0.27,-0.2 0.71,-0.07 1.08,0 a 2.31,2.31 0 0 0 1.94,-1 20,20 0 0 0 1.17,-1.94 1.62,1.62 0 0 1 0.65,-0.67 1.75,1.75 0 0 1 0.64,-0.14 5.24,5.24 0 0 1 2.49,0.27 2.12,2.12 0 0 1 1.35,1.95 c -0.08,1.16 -1.38,1.94 -1.5,3.09 -0.12,1.15 0.27,2.3 0.25,3.42 a 14,14 0 0 1 -0.36,4.01 z"
           id="path25"
           inkscape:connector-curvature="0"
           style="fill:#ebf7ef" />
        <path
           class="cls-9"
           d="m 327.12,212.81 a 1.81,1.81 0 0 1 0.53,2 2.13,2.13 0 0 1 -0.93,0.77 A 12,12 0 0 1 315,215 a 11.24,11.24 0 0 0 -1.82,-1.09 c -1.77,-0.72 -3.92,-0.06 -5.6,-0.95 -1.68,-0.89 -2.25,-2.88 -2.7,-4.68 l -1,-4 a 4.44,4.44 0 0 1 -0.19,-1.94 1.52,1.52 0 0 1 1.31,-1.34 1.76,1.76 0 0 1 1.53,1.32 20.6,20.6 0 0 0 0.58,2.08 1.54,1.54 0 0 0 1.7,1 c 1.31,-0.45 0.67,-2.8 1.85,-3.52 1.18,-0.72 2.34,0.88 3,1.67 a 6.69,6.69 0 0 0 3.59,2.41 17,17 0 0 1 2.24,0.54 2.11,2.11 0 0 1 1.44,1.64 c 0.05,0.57 -0.19,1.27 0.27,1.61 a 1.29,1.29 0 0 0 0.65,0.17 8.19,8.19 0 0 1 2.2,0.33 3.87,3.87 0 0 1 1.55,1.15 c 0.4,0.49 1.03,0.91 1.52,1.41 z"
           id="path27"
           inkscape:connector-curvature="0"
           style="fill:#c9d3cd" />
        <path
           class="cls-7"
           d="m 363.82,170.81 a 1.39,1.39 0 0 1 -0.06,-1.6 1.61,1.61 0 0 1 0.84,-0.43 9.23,9.23 0 0 1 8.72,2.44 9,9 0 0 0 1.18,1.13 c 1.21,0.84 2.95,0.71 4.06,1.67 1.11,0.96 1.2,2.55 1.24,4 l 0.08,3.21 a 3.45,3.45 0 0 1 -0.19,1.5 1.16,1.16 0 0 1 -1.19,0.74 1.36,1.36 0 0 1 -0.93,-1.25 15.31,15.31 0 0 0 -0.08,-1.67 c -0.11,-0.55 -0.56,-1.1 -1.11,-1 -1.07,0.11 -1,2 -2,2.33 -1,0.33 -1.62,-1.05 -1.95,-1.76 a 5.24,5.24 0 0 0 -2.29,-2.43 14.79,14.79 0 0 1 -1.6,-0.78 1.66,1.66 0 0 1 -0.81,-1.49 c 0.07,-0.43 0.36,-0.92 0.08,-1.25 a 0.89,0.89 0 0 0 -0.46,-0.24 6.73,6.73 0 0 1 -1.61,-0.63 3.2,3.2 0 0 1 -1,-1.13 c -0.25,-0.48 -0.64,-0.9 -0.92,-1.36 z"
           id="path29"
           inkscape:connector-curvature="0"
           style="fill:#ebf7ef" />
        <path
           class="cls-9"
           d="m 346.43,191.2 c -1.63,-0.27 -4,-0.56 -4.59,1.54 -0.2,0.76 -0.11,1.56 -0.28,2.32 a 4.6,4.6 0 0 1 -1.09,2 2.59,2.59 0 0 1 -2,1 3.43,3.43 0 0 1 -1,-0.31 14.15,14.15 0 0 0 -2.68,-1.19 13.31,13.31 0 0 0 -2.58,0.23 1.05,1.05 0 0 0 -0.78,0.25 1,1 0 0 0 -0.17,0.57 14.31,14.31 0 0 0 4.89,11.84 5.39,5.39 0 0 0 1.55,1 c 1.83,0.68 3.85,-0.37 5.8,-0.24 2.35,0.16 4.58,2 6.82,1.32 1.47,-0.46 2.38,-1.89 3.64,-2.79 a 16.37,16.37 0 0 1 3.95,-1.7 18,18 0 0 0 11.6,-18.85 1.41,1.41 0 0 0 -0.29,-0.85 1.43,1.43 0 0 0 -1.31,-0.28 c -5.45,0.76 -9.26,6.06 -14.59,7.42 a 16.4,16.4 0 0 1 -3.82,0.43 1.88,1.88 0 0 1 -1.6,-0.51 c -0.61,-0.8 0.22,-2.21 -0.53,-2.89 a 1.67,1.67 0 0 0 -0.94,-0.31 z"
           id="path31"
           inkscape:connector-curvature="0"
           style="fill:#c9d3cd" />
        <path
           class="cls-9"
           d="m 332.62,148 c -1.2,0.45 -2.43,1.37 -2.46,2.65 a 2.72,2.72 0 0 0 2.14,2.48 7.93,7.93 0 0 0 3.49,-0.11 5.41,5.41 0 0 1 1.55,-0.15 6.45,6.45 0 0 1 1.76,0.51 5.94,5.94 0 0 0 3.25,0.52 2.42,2.42 0 0 0 2.06,-2.26 2.67,2.67 0 0 0 -1.09,-1.87 c -1.41,-1.18 -3.18,-1.26 -4.86,-1.78 a 8.8,8.8 0 0 0 -5.84,0.01 z"
           id="path33"
           inkscape:connector-curvature="0"
           style="fill:#c9d3cd" />
        <path
           class="cls-7"
           d="m 383.69,189.14 a 22.18,22.18 0 0 0 -1.36,3.67 c -0.21,1.12 -0.24,2.38 -1,3.28 -1.11,1.35 -3.75,0 -4.39,1.25 -0.76,1.42 1.9,3.17 2.86,3.6 a 5.74,5.74 0 0 0 2.18,0.58 6,6 0 0 0 4.32,-2.17 10.54,10.54 0 0 0 2.87,-9.1 4.86,4.86 0 0 0 -1.2,-2.48 2.53,2.53 0 0 0 -2.55,-0.69 3.26,3.26 0 0 0 -1.73,2.06 z"
           id="path35"
           inkscape:connector-curvature="0"
           style="fill:#ebf7ef" />
        <path
           class="cls-3"
           d="m 259.73,117.88 a 8.73,8.73 0 0 1 5,-1.07 c 2.6,0 5.44,0.15 7.36,1.9 a 3.69,3.69 0 0 1 2.48,-3.92 6.69,6.69 0 0 1 4.92,0.4 5.6,5.6 0 0 1 3,-4 4.36,4.36 0 0 1 4.79,0.69 c 1.58,1.53 1.57,4 1.44,6.21 a 8.6,8.6 0 0 1 11.94,4.79 5.29,5.29 0 0 1 5.07,-2.07 c 1.72,0.29 3.23,1.43 5,1.57 a 4.5,4.5 0 0 0 4.42,-2.78 5,5 0 0 1 -1.93,8 c -3,1.15 -6.77,-0.58 -9.27,1.38 -1.23,1 -1.84,2.66 -3.26,3.32 a 5.57,5.57 0 0 1 -2.44,0.34 c -2.19,0 -4.86,-0.32 -5.74,-2.33 -1.54,1.65 -3.94,2.16 -6.2,2.26 a 9.2,9.2 0 0 1 -4,-0.52 4.27,4.27 0 0 1 -2.61,-2.87 14.81,14.81 0 0 1 -7.11,2.59 c -2.56,0.06 -5.31,-1.37 -6,-3.83 a 15.44,15.44 0 0 1 -5.43,1.62 4.26,4.26 0 0 1 -1.95,-0.15 9.62,9.62 0 0 1 -1.6,-1 5.44,5.44 0 0 0 -6.21,0.29 c -0.9,-0.52 -0.42,-2 0.5,-2.53 1.9,-1 5.07,-0.83 5.79,-3.5 a 7.52,7.52 0 0 0 0.14,-1.34 4.33,4.33 0 0 1 1.9,-3.45 z"
           id="path37"
           inkscape:connector-curvature="0"
           style="fill:#a44401" />
        <path
           class="cls-3"
           d="m 402.6,204.72 c 1.42,-1 3.27,-1.06 5,-1.07 2.6,0 5.44,0.15 7.36,1.9 a 3.7,3.7 0 0 1 2.48,-3.92 6.69,6.69 0 0 1 4.92,0.4 5.6,5.6 0 0 1 3,-4 4.38,4.38 0 0 1 4.79,0.69 c 1.58,1.53 1.57,4 1.44,6.21 a 8.59,8.59 0 0 1 11.94,4.8 5.29,5.29 0 0 1 5.07,-2.08 c 1.72,0.29 3.22,1.43 5,1.57 a 4.51,4.51 0 0 0 4.42,-2.78 5,5 0 0 1 -1.93,8 c -3,1.15 -6.77,-0.57 -9.27,1.39 -1.23,1 -1.85,2.65 -3.26,3.31 a 5.73,5.73 0 0 1 -2.44,0.35 c -2.19,0 -4.86,-0.33 -5.74,-2.34 -1.54,1.65 -3.95,2.17 -6.2,2.27 a 9.33,9.33 0 0 1 -4,-0.53 4.23,4.23 0 0 1 -2.61,-2.87 c -2.18,1.32 -4.56,2.54 -7.11,2.59 -2.55,0.05 -5.31,-1.37 -6,-3.83 a 15.44,15.44 0 0 1 -5.43,1.62 4.13,4.13 0 0 1 -1.95,-0.15 8.67,8.67 0 0 1 -1.6,-1 5.45,5.45 0 0 0 -6.21,0.29 c -0.9,-0.52 -0.42,-2 0.5,-2.52 1.9,-1.05 5.07,-0.84 5.79,-3.51 a 7.43,7.43 0 0 0 0.14,-1.34 4.33,4.33 0 0 1 1.9,-3.45 z"
           id="path39"
           inkscape:connector-curvature="0"
           style="fill:#a44401" />
        <path
           class="cls-10"
           d="M 397.19,230.81 A 145.75,145.75 0 0 0 374,236 c -17.29,5.19 -34.43,12 -52.47,12.67 -14.78,0.54 -29.26,-3.09 -43.62,-6.06 a 178.66,178.66 0 0 0 -42.14,-3.37 c -12.31,0.36 -23.6,5.64 -34.19,11.45 -12.42,6.82 -24.8,13.74 -37.59,19.86 -10.58,5.08 -21.6,9.16 -32.46,13.6 a 12.86,12.86 0 0 0 -4.28,2.43 c -2.43,2.43 -0.66,5.39 1.55,7.35 5.84,5.19 14.21,7.43 22.32,9 a 299.4,299.4 0 0 0 39.48,4.45 c 27.94,1.58 56,1.07 84,0.57 l 179.08,-3.25 c 8.44,-0.15 5.53,-11.84 6.48,-17.14 4.2,-23.6 -10.2,-46.7 -32.95,-54.46 -9.7,-3.28 -19.88,-3.58 -30.02,-2.29 z"
           id="path41"
           inkscape:connector-curvature="0"
           style="fill:#ba4721" />
        <path
           class="cls-11"
           d="m 233.6,174.37 a 33.88,33.88 0 0 1 3.46,10.35 4,4 0 0 0 1.89,-1.84 c 0,0.45 0,0.9 0,1.35 a 1.75,1.75 0 0 0 1.79,-1.21 11.07,11.07 0 0 0 -0.37,3.14 1.84,1.84 0 0 0 1.36,-0.62 17.09,17.09 0 0 1 3.52,-2.59 c 2.26,-1.09 4.91,-1 7.4,-0.69 2.49,0.31 5.07,0.64 7.5,0 -0.71,1.39 -2.36,2 -3.83,2.47 -1.47,0.47 -3.1,1.28 -3.55,2.77 0.2,-0.51 -0.5,-0.9 -1.05,-1 a 6.49,6.49 0 0 0 -3.72,0.5 3.84,3.84 0 0 0 -2.14,3 5.64,5.64 0 0 0 -5.34,-0.3 16.5,16.5 0 0 0 -4.54,3.21 13.38,13.38 0 0 0 -1.95,-6.11 7.11,7.11 0 0 0 -5.32,-3.29 4.21,4.21 0 0 0 -1.06,-7.36 5.23,5.23 0 0 0 1,-4.13 15.36,15.36 0 0 0 -1.41,-4.14 c 1,1.15 2.51,1.43 3.62,2.53 a 16.58,16.58 0 0 1 2.74,3.96 z"
           id="path43"
           inkscape:connector-curvature="0"
           style="fill:#98290b" />
        <path
           class="cls-11"
           d="m 258.35,156.6 a 21.12,21.12 0 0 1 5.53,3.92 2.47,2.47 0 0 0 0.27,-1.62 l 0.5,0.67 a 1.07,1.07 0 0 0 0.46,-1.26 7.05,7.05 0 0 0 1,1.71 1.14,1.14 0 0 0 0.45,-0.81 11,11 0 0 1 0.81,-2.59 8.59,8.59 0 0 1 3.46,-3.07 12.44,12.44 0 0 0 3.75,-2.77 3.9,3.9 0 0 1 -1,2.65 3.13,3.13 0 0 0 -0.76,2.69 c -0.09,-0.33 -0.59,-0.26 -0.89,-0.1 a 4,4 0 0 0 -1.69,1.65 2.36,2.36 0 0 0 0,2.29 3.52,3.52 0 0 0 -2.79,1.82 10.61,10.61 0 0 0 -1.1,3.27 8.37,8.37 0 0 0 -3.22,-2.34 4.42,4.42 0 0 0 -3.87,0.3 2.62,2.62 0 0 0 -3.24,-3.3 3.25,3.25 0 0 0 -1,-2.45 9.67,9.67 0 0 0 -2.23,-1.55 c 0.91,0.22 1.79,-0.21 2.75,-0.06 a 10.27,10.27 0 0 1 2.81,0.95 z"
           id="path45"
           inkscape:connector-curvature="0"
           style="fill:#98290b" />
        <path
           class="cls-12"
           d="m 83.54,324.34 130.26,-0.69 c 8.54,0 16.73,-1.43 25.13,-1.76 8.4,-0.33 16.69,-4.15 23,-9.74 8,-7.07 13.4,-16.71 17.46,-26.62 l -60.52,-28.29 c -23.86,-11.15 -48.39,-23.25 -74.41,-28.43 -21.85,-4.36 -43.23,-1.08 -64.09,6.07 -10.2,3.49 -20.54,7.16 -29.19,13.59 -8.89,6.61 -13.06,14.59 -15.78,25 -2.28,8.7 -16.86,14.49 -25,17.16 -3.73,1.23 -8,2.5 -9.74,6.12 -1.44,3 -0.55,6.7 1.19,9.52 4.18,6.78 12.25,9.6 19.74,11.76 21.33,6.15 40.29,6.42 61.95,6.31 z"
           id="path47"
           inkscape:connector-curvature="0"
           style="fill:#64190f" />
        <path
           class="cls-13"
           d="M 448.77,308.42 H 56.66 V 255.1 c 0,0.43 2.27,-0.36 2.53,-0.56 1.2,-0.91 2.08,-4 2.77,-5.35 l 0.25,3.26 a 8.12,8.12 0 0 0 2.59,-4 c 0.14,1.51 0.28,3 0.41,4.54 l 4,-4 c 0.29,1 0.58,2.07 0.86,3.1 a 31.82,31.82 0 0 0 7.8,-7.9 c 0.34,1.8 0.69,3.61 1,5.42 a 21.28,21.28 0 0 0 3.76,-5.27 l 3.3,6.66 c 0.86,-1.92 1.72,-3.85 2.57,-5.77 q 0.91,3.47 1.81,6.95 a 51.37,51.37 0 0 1 5.32,-9.49 28.61,28.61 0 0 0 2.81,9.82 72.57,72.57 0 0 1 4.5,-14.34 l 1.72,11.57 9.79,-18.86 a 113.46,113.46 0 0 0 0.85,16.79 73.76,73.76 0 0 1 5.8,-13.49 c 0,6.51 1.12,13.57 5.06,18.93 a 117.34,117.34 0 0 1 7.9,-27.47 164.52,164.52 0 0 0 -1.32,25.58 50.16,50.16 0 0 1 9.19,-21.51 85.75,85.75 0 0 0 -3,22.3 59.47,59.47 0 0 1 8.6,-19.76 93.78,93.78 0 0 0 -0.81,18 60.21,60.21 0 0 1 8.82,-15.92 47,47 0 0 0 -1.07,14.23 l 2.82,-3.57 c 0.11,2.14 0.21,4.29 0.32,6.43 0.9,-1.55 1.81,-3.09 2.72,-4.64 l 0.09,6.24 2.37,-3.7 0.63,3.82 3.5,-4.65 1.56,4.1 a 11.56,11.56 0 0 0 3.66,-3.26 4.6,4.6 0 0 0 0.78,3.68 l 7.28,-9.15 0.57,14.67 a 56.27,56.27 0 0 1 9.43,-22.66 137.79,137.79 0 0 0 -3.33,20.49 l 4.58,-6.09 1.17,4.12 1.77,-2.59 a 2.77,2.77 0 0 1 0.95,2.25 62.41,62.41 0 0 1 6.66,-11.77 82.64,82.64 0 0 0 -0.6,12.58 c -0.13,-4.42 4.53,-7.6 7.26,-10.44 q -1,7.14 -2,14.29 a 50.11,50.11 0 0 1 10,-16.57 35.06,35.06 0 0 0 -2.23,14.9 13.54,13.54 0 0 1 4.92,-8.09 q -0.37,5.16 -0.73,10.32 l 3.3,-5.06 c 0.31,1.56 0.62,3.11 0.92,4.67 q 2.63,-4.17 5.23,-8.34 a 41.06,41.06 0 0 1 0.53,7.26 c 1.59,-2 3.19,-3.92 4.78,-5.89 0.25,1.64 0.5,3.27 0.76,4.9 l 3.09,-5.13 c 0.66,1.95 1.33,3.89 2,5.83 l 2.52,-3 1.2,2.72 2.07,-2.11 a 3.44,3.44 0 0 1 0.5,2 l 2.79,-3.83 c 0.25,1.26 0.5,2.53 0.76,3.79 l 4.93,-9.4 q -0.63,6.36 -1.27,12.71 a 50.16,50.16 0 0 1 6.44,-14.66 q -0.48,6.18 -1,12.36 a 31.47,31.47 0 0 1 3.78,-9.47 v 6.79 l 3.24,-5.88 c 0.31,2 0.61,4 0.92,5.94 l 3,-3.83 0.57,4.95 a 41.16,41.16 0 0 1 4.5,-5.28 11.74,11.74 0 0 1 0.87,3.4 l 2.34,-3.76 a 7,7 0 0 1 0.27,2.37 c 0.91,-1.31 1.81,-2.63 2.71,-3.94 l 0.35,4.3 a 25.12,25.12 0 0 1 2.67,-4.35 l 0.36,3.34 2.22,-3.07 c 0.29,1.37 0.59,2.74 0.89,4.11 l 3.12,-3.41 a 4.1,4.1 0 0 0 1.5,3.3 l 0.43,2 a 43.21,43.21 0 0 1 5.59,-10.79 66.23,66.23 0 0 0 0.5,14 c -0.22,-8.36 4.92,-15.81 9.83,-22.57 a 86.25,86.25 0 0 0 -2,21.61 84,84 0 0 1 6.4,-16.13 c -2.06,4.76 -4.16,9.79 -3.63,15 a 49.89,49.89 0 0 1 5.78,-13.91 96.81,96.81 0 0 0 -0.72,13.83 39.64,39.64 0 0 1 4.17,-9 12.34,12.34 0 0 0 1.37,3.69 c -0.7,-1.25 2.45,-6.26 3.3,-7.28 1.78,-2.14 3.63,-4.13 5.29,-6.45 q 0,8.49 -0.08,17 l 6.6,-11.1 0.37,10.14 5.28,-5.87 a 31.76,31.76 0 0 1 1.37,7.67 c 1.77,-1.67 4,-4.73 6.24,-5.56 0.14,2.38 -1,4.6 0.12,7 2.42,-4.36 4.53,-8.85 7.22,-13.08 l 0.05,14.07 q 2.94,-7.19 5.87,-14.37 0.14,4 0.25,7.93 l 6.4,-8.73 q 1.13,6.1 2.27,12.22 a 40.36,40.36 0 0 1 7.08,-9.64 c 0.1,2.7 0.21,5.39 0.31,8.08 a 93.88,93.88 0 0 1 7.42,-10.94 l 0.25,10 6.93,-8.69 0.49,8.88 q 4.43,-4.34 8.47,-9 a 30.24,30.24 0 0 0 0.58,8.38 l 6.86,-6.89 c 0.35,2.73 0.69,5.46 1,8.19 l 7.53,-5.32 a 12.1,12.1 0 0 0 1.73,4.37 c 1.46,0.27 2.67,-2.39 3.86,-1.5 0.48,0.35 0.47,1.08 0.85,1.55 a 2.4,2.4 0 0 0 1.43,0.62 c 5.76,1 10.66,2.27 16.53,2.27 h 7.73 z"
           id="path49"
           inkscape:connector-curvature="0"
           style="fill:#330700" />
        <path
           class="cls-13"
           d="m 364.17,176 a 17.52,17.52 0 0 1 -4.71,6.2 c -2.11,1.72 -4.45,3.15 -6.39,5.07 a 1.8,1.8 0 0 0 -0.66,1.16 c 0,0.81 0.94,1.23 1.72,1.42 4,0.93 9.18,1.26 11.64,5.08 2.32,3.59 4.14,8.93 2.47,13.11 a 17.33,17.33 0 0 1 -3.56,5.9 32.11,32.11 0 0 1 -5.24,4.49 l -0.7,0.48 a 45.68,45.68 0 0 1 -14.63,6.13 c -1.29,0.31 -4.75,1 -4.88,-1.1 -0.13,-2.1 2.94,-5.08 4.09,-6.52 -0.87,1.09 -3.62,1.8 -4.9,2.25 a 30.48,30.48 0 0 1 -5.69,1.46 c -3.22,0.52 -6.1,1.36 -9.29,0.1 a 3.19,3.19 0 0 1 -2,-1.75 2.42,2.42 0 0 1 0.82,-2.42 5.76,5.76 0 0 1 2.42,-1.14 76.93,76.93 0 0 0 8.07,-2.06 25.18,25.18 0 0 0 6.36,-4 7.77,7.77 0 0 0 2.91,-3.5 c -0.13,0.39 -2.44,1.06 -2.87,1.23 a 24.87,24.87 0 0 1 -2.95,1 c -5.08,1.3 -11.71,2 -15.59,-2.46 -3.88,-4.46 -5.12,-11.35 -3.57,-17 1.88,-6.84 7.73,-11 13,-15.24 0.93,-0.75 1.86,-1.5 2.76,-2.29 3.35,-2.93 5.79,-6.76 8.22,-10.45 4.21,-6.35 8.86,-13 15.32,-17.26 a 19.75,19.75 0 0 1 10.51,-3.44 11,11 0 0 1 5.28,1.33 c 1.79,0.94 1.88,2.26 2.9,3.86 0.28,0.43 0.65,0.81 1,1.21 a 7.52,7.52 0 0 1 1.62,4 1.92,1.92 0 0 1 -0.15,1.09 0.77,0.77 0 0 1 -0.94,0.39 c -0.3,-0.15 -0.53,-0.57 -0.86,-0.47 -0.18,0.05 -0.27,0.25 -0.34,0.42 a 13.45,13.45 0 0 0 -1.09,5.22 4,4 0 0 0 0.9,2.5 c 0.25,0.28 0.58,0.59 0.52,1 -0.14,0.9 -3.29,1 -4,1 a 18.4,18.4 0 0 1 -5.95,-1.81 c 0.4,2.65 1,5.06 0.76,7.82 a 21.94,21.94 0 0 1 -2.33,7.99 z"
           id="path51"
           inkscape:connector-curvature="0"
           style="fill:#330700" />
        <path
           class="cls-13"
           d="m 389.43,196.22 a 4.94,4.94 0 0 1 -1.7,4.5 c -4.6,3.93 -13.58,-3.14 -10.14,-8.35 1.42,-2.14 4.31,-2.58 6.65,-2.11 a 7,7 0 0 1 5.19,5.96 z"
           id="path53"
           inkscape:connector-curvature="0"
           style="fill:#330700" />
        <path
           class="cls-13"
           d="m 363.11,189.84 a 77.16,77.16 0 0 0 8.85,4.58 c 2.67,1.12 7.81,3.42 10.56,1.42 a 1.62,1.62 0 0 0 0.65,-1.82 2.17,2.17 0 0 0 -0.82,-0.88 c -1.85,-1.31 -4.06,-2 -6,-3.28 a 33.82,33.82 0 0 1 -8.77,-7.72 c -2.64,-3.55 -3.39,-7.67 -4.37,-11.89 a 1,1 0 0 0 -0.25,-0.56 1,1 0 0 0 -0.77,-0.21 7.29,7.29 0 0 0 -4.51,2 22.14,22.14 0 0 0 -3.17,3.91 c -3.94,5.73 2.9,11.15 7.39,13.74 z"
           id="path55"
           inkscape:connector-curvature="0"
           style="fill:#330700" />
        <path
           class="cls-13"
           d="m 370,144.73 c -1.39,0.28 -2.79,0.51 -4.16,0.72 -7.11,1.05 -15.27,2.8 -22.32,0.91 a 14.73,14.73 0 0 1 -3.28,-1.29 c -0.44,-0.25 -0.93,-0.69 -0.75,-1.16 a 1,1 0 0 1 0.62,-0.49 c 2.46,-1 5.25,-0.57 7.91,-0.63 a 38.38,38.38 0 0 0 4,-0.38 93,93 0 0 0 15.85,-3.32 46.27,46.27 0 0 0 10.92,-4.92 10.56,10.56 0 0 1 4.09,-1.77 c 4.35,-0.58 4.43,3.5 1.77,5.87 -4.02,3.63 -9.3,5.4 -14.65,6.46 z"
           id="path57"
           inkscape:connector-curvature="0"
           style="fill:#330700" />
        <path
           class="cls-13"
           d="m 350.05,135.64 a 8.05,8.05 0 0 0 1,2.67 1.21,1.21 0 0 1 0.21,0.53 1.38,1.38 0 0 1 -0.09,0.39 c -0.63,1.62 -2.32,4.43 -0.35,5.79 1,0.68 3.13,0.39 4.29,0.32 a 47.69,47.69 0 0 0 5.15,-1 q 4.46,-0.8 8.89,-1.66 c 3.56,-0.7 5.84,-3.12 4.31,-6.89 a 8.71,8.71 0 0 0 -0.93,-1.62 l -1.68,-2.5 a 15.26,15.26 0 0 0 -1.33,-1.78 7.58,7.58 0 0 0 -3.05,-2 2.35,2.35 0 0 1 -0.88,-0.44 2.85,2.85 0 0 1 -0.59,-1.45 4.42,4.42 0 0 0 -3.49,-3.28 c -1,-0.18 -2.11,0 -3.13,-0.23 -1.66,-0.41 -2.81,-1.93 -4.37,-2.62 -1.19,-0.53 -2.58,-0.57 -3.68,-1.26 a 4.61,4.61 0 0 0 -0.82,-0.5 2.86,2.86 0 0 0 -1,-0.12 h -8.06 l 5.79,3.68 a 1.68,1.68 0 0 1 0.56,0.5 1.82,1.82 0 0 1 0.15,0.69 c 0.15,2.16 0.42,4.49 1.92,6 a 3.74,3.74 0 0 1 0.75,0.89 2.67,2.67 0 0 1 0.17,1.22 22.23,22.23 0 0 0 0.26,4.67 z"
           id="path59"
           inkscape:connector-curvature="0"
           style="fill:#330700" />
        <path
           class="cls-13"
           d="m 335.76,149 c 2.12,2.23 5.61,2.25 8.69,2.12 l -3.26,0.9 c -2.68,0.73 -5.43,1.48 -8.2,1.21 -2.77,-0.27 -5.59,-1.76 -6.64,-4.33 -0.46,2.48 1.17,5 3.31,6.3 a 19.22,19.22 0 0 0 7.21,2.15 c -2.44,-0.18 -4.66,1.23 -6.76,2.46 -2.1,1.23 -4.58,2.38 -6.91,1.64 0.8,1.74 2.94,2.46 4.85,2.39 1.91,-0.07 3.75,-0.75 5.64,-1 a 12,12 0 0 1 -7.93,4.38 14.16,14.16 0 0 0 10.66,1.84 19.77,19.77 0 0 0 7.77,-3.47 c 2,-1.52 3.59,-4.09 5.06,-6.16 3.31,-4.68 6.21,-9.63 9.1,-14.57 0.17,-0.28 -5,-0.43 -5.44,-0.33 a 14.24,14.24 0 0 0 -5,2.55 16.09,16.09 0 0 1 -12.15,1.92 z"
           id="path61"
           inkscape:connector-curvature="0"
           style="fill:#330700" />
        <path
           class="cls-13"
           d="m 354.74,229.54 c -1,2.93 -6.41,0.44 -8.15,-0.28 -2.2,-0.9 -9.69,-3.41 -6.79,-6.65 1.06,-1.18 3,-1.87 4.44,-2.48 4.7,-2 8.48,5 10.25,8.25 a 1.43,1.43 0 0 1 0.25,1.16 z"
           id="path63"
           inkscape:connector-curvature="0"
           style="fill:#330700" />
        <path
           class="cls-13"
           d="m 330,231.76 c -2.62,1.66 -5.29,-3.66 -6.2,-5.31 -1.16,-2.08 -5.44,-8.71 -1.15,-9.43 1.56,-0.26 3.52,0.41 5,0.83 4.92,1.37 3.49,9.22 2.87,12.85 a 1.52,1.52 0 0 1 -0.52,1.06 z"
           id="path65"
           inkscape:connector-curvature="0"
           style="fill:#330700" />
        <path
           class="cls-13"
           d="m 257.91,215.53 a 46.78,46.78 0 0 1 -5.13,0.95 c 1.37,1.46 3.41,2.06 5.35,2.59 a 49.46,49.46 0 0 0 14.88,2 A 38.74,38.74 0 0 0 290,217 c 3.15,-1.63 6.46,-3.81 8.53,-6.76 a 8.77,8.77 0 0 0 -1.7,-12.19 c -3.36,-2.51 -8,-3 -12,-3 -6.78,-0.1 -13.81,1.17 -20.6,1.77 l 6.64,2 c -6.89,0.93 -13.3,0 -20,-1.66 0.56,1 1.82,1.78 2.55,2.69 a 19.59,19.59 0 0 0 3.52,3.41 23.74,23.74 0 0 1 -9.35,-0.12 26.21,26.21 0 0 0 3.68,3.84 l -6.84,0.66 c 3.56,4.35 9.32,6.11 14.73,7.64 z"
           id="path67"
           inkscape:connector-curvature="0"
           style="fill:#330700" />
        <path
           class="cls-13"
           d="m 329,206.55 c -11,1.31 -22.08,2.21 -33.08,0.34 -0.92,-0.15 -2,-0.53 -2.15,-1.45 a 1.51,1.51 0 0 1 0.94,-1.46 4.35,4.35 0 0 1 1.83,-0.3 337.6,337.6 0 0 0 34.94,-2.68 c 11.47,-1.5 22.8,-3.87 34.25,-5.5 q 17.44,-2.49 35,-4.22 a 52.84,52.84 0 0 0 6.16,-0.59 l 1.75,-0.16 c 1.15,-0.11 6.67,0.94 3.7,2.72 a 3.77,3.77 0 0 1 -1.41,0.41 c -6.73,1 -13.54,1.17 -20.27,2.12 q -10.8,1.5 -21.54,3.48 c -7.56,1.39 -15,3.42 -22.6,4.71 -5.73,0.96 -11.6,1.88 -17.52,2.58 z"
           id="path69"
           inkscape:connector-curvature="0"
           style="fill:#330700" />
        <path
           class="cls-13"
           d="m 307,196.9 a 25.12,25.12 0 0 1 -6.89,3.17 c -2.41,0.81 -5.57,1.33 -7.54,3 a 3.6,3.6 0 0 0 -1.37,3 c 0.17,1.65 1.77,2.74 3.28,3.43 3.79,1.74 8.26,2.59 10.91,5.8 -0.59,-1.33 -1.19,-2.66 -1.78,-4 a 18.87,18.87 0 0 1 5.85,1.82 l -4.75,-7.21 c -0.27,-0.41 -0.56,-0.93 -0.34,-1.37 A 1.37,1.37 0 0 1 305,204 a 23,23 0 0 1 5.57,-2.11 22.46,22.46 0 0 0 -6.6,0 c 2,-0.29 3.78,-4.47 4.24,-6 A 11.21,11.21 0 0 1 307,196.9 Z"
           id="path71"
           inkscape:connector-curvature="0"
           style="fill:#330700" />
      </g>
    </g>
  </g>
</svg>
